<svg version="1.2" xmlns="http://www.w3.org/2000/svg" viewBox="0 0 1669 908" width="1669" height="908">
	<title>event-bg-svg</title>
	<style>
		.s0 { fill: #ead481 } 
		.s1 { fill: #bc9662 } 
		.s2 { fill: #e1cfba } 
		.s3 { fill: #8c673e } 
		.s4 { fill: #d8c3a4 } 
		.s5 { fill: #e7d1b3 } 
		.s6 { fill: #d88968 } 
		.s7 { fill: #4c2619 } 
		.s8 { fill: #bb9562 } 
		.s9 { fill: #f871a6 } 
		.s10 { fill: #7a5529 } 
		.s11 { fill: #e0a288 } 
		.s12 { fill: #4c2416 } 
		.s13 { fill: none;stroke: #ffffff;stroke-width: .5 } 
		.s14 { fill: #ffffff } 
		.s15 { fill: #e1c69e } 
	</style>
	<path id="&lt;Path&gt;" class="s0" d="m1296.9 306.8c-10.1 2.1-20.2 3.4-30.6 1-19.9-4.6-38.5-18.9-46.2-40.4-29.7-83.1 64.1-86.7 157.8-157.8 48.7-36.9 131-105.5 197-61 34.3 23.1 47.5 73.7 49.8 113.8 2.5 42.6-7.5 85.3-29.4 118.7-28.6 43.7-77.8 70.9-129.3 61.9-25.3-4.4-49.2-16.6-73.4-26.7-15.3-6.4-30.9-12-46.8-14.4-17.5-2.6-32.2 1.5-48.9 4.9z"/>
	<path id="&lt;Path&gt;" class="s0" d="m248.4 168.6c5.4-1.7 10.6-3.8 15-7.6 8.3-7.4 13.7-18.9 12-30.9-6.4-46.2-51.7-74-114.3-82-32.5-4.1-91.8 22.2-110.2 74.9-7.5 21.4-4.5 46.6 4.4 65.7 9.4 20.4 24.9 37.4 43.7 47 24.6 12.7 54.9 12.2 77.4-5.6 11-8.7 19.4-20.7 28.5-31.8 5.7-6.9 11.8-13.7 18.9-19 7.7-5.8 15.8-7.9 24.6-10.7z"/>
	<path id="&lt;Path&gt;" class="s0" d="m875.2 626.2c-9.7 2.3-19.2 5.2-27.3 11-15.5 11.1-25.8 29-23.6 48.1 8.6 73.5 88 120.5 199.8 137.4 58.1 8.9 166.1-28.7 202.5-110.7 14.8-33.5 11-73.4-3.7-104.3-15.6-32.8-42.2-60.8-75.3-77.4-43.4-21.6-97.8-23-139.2 3.6-20.3 13-36.3 31.4-53.3 48.3-10.7 10.6-22 20.8-35 28.8-14.3 8.6-28.9 11.3-44.9 15.2z"/>
	<g id="OBJECTS 1">
		<g id="&lt;Group&gt;">
			<g id="&lt;Group&gt;">
				<g id="&lt;Group&gt;">
					<path id="&lt;Path&gt;" class="s1" d="m1429.4 516.1c1.6 0 1.6-2.5 0-2.5-1.6 0-1.6 2.5 0 2.5z"/>
				</g>
			</g>
			<g id="&lt;Group&gt;">
				<g id="&lt;Group&gt;">
					<path id="&lt;Path&gt;" class="s1" d="m1412.9 516.9c1.5 0 1.5-2.3 0-2.3-1.5 0-1.5 2.3 0 2.3z"/>
				</g>
			</g>
			<g id="&lt;Group&gt;">
				<g id="&lt;Group&gt;">
					<path id="&lt;Path&gt;" class="s1" d="m1395.6 526.8c3.2 0 3.2-5 0-5-3.2 0-3.2 5 0 5z"/>
				</g>
			</g>
			<g id="&lt;Group&gt;">
				<g id="&lt;Group&gt;">
					<path id="&lt;Path&gt;" class="s1" d="m1431 499.7q0.3 0 0.7-0.1c1.5-0.1 2.8-1.1 2.8-2.7 0-1.3-1.3-2.9-2.8-2.7q-0.4 0-0.7 0.1c-1.5 0.2-2.7 1.1-2.7 2.7 0 1.4 1.2 2.6 2.7 2.6q0.3 0 0.7 0c3.5 0.1 3.5-5.4 0-5.4q-0.4 0-0.7 0c-1.5 0-2.8 1.3-2.8 2.8 0 1.3 1.3 2.9 2.8 2.7z"/>
				</g>
			</g>
			<g id="&lt;Group&gt;">
				<g id="&lt;Group&gt;">
					<path id="&lt;Path&gt;" class="s1" d="m1423.7 529.5c3.7 0 3.7-5.8 0-5.8-3.8 0-3.8 5.8 0 5.8z"/>
				</g>
			</g>
			<g id="&lt;Group&gt;">
				<g id="&lt;Group&gt;">
					<path id="&lt;Path&gt;" class="s1" d="m1414.7 504.7c3.9 0 3.9-6 0-6-3.9 0-3.9 6 0 6z"/>
				</g>
			</g>
		</g>
	</g>
	<g id="OBJECTS 2">
		<path id="&lt;Path&gt;" class="s2" d="m1504.4 844.5c0 6.6-21.3 12.1-47.5 12.1-26.3 0-47.5-5.5-47.5-12.1 0-6.7 21.2-12.2 47.5-12.2 26.2 0 47.5 5.5 47.5 12.2z"/>
		<path id="&lt;Path&gt;" class="s2" d="m1568 863.5c0 6.7-17.5 12.1-39.1 12.1-21.5 0-39-5.4-39-12.1 0-6.7 17.5-12.1 39-12.1 21.6 0 39.1 5.4 39.1 12.1z"/>
		<path id="&lt;Path&gt;" class="s2" d="m1417.7 856.6c0 6.7-17.5 12.1-39 12.1-21.5 0-39-5.4-39-12.1 0-6.7 17.5-12.1 39-12.1 21.5 0 39 5.4 39 12.1z"/>
		<g id="&lt;Group&gt;">
			<path id="&lt;Path&gt;" class="s3" d="m1383.1 781.1c-44.6-2.7-64 51.6-31.5 72.4 29.4 18.7 75.7-3.2 69.9-40.5-3.2-20.2-20.3-27.7-38.4-31.9z"/>
			<g id="&lt;Group&gt;">
				<path id="&lt;Path&gt;" class="s4" d="m1389 822q0 0-0.3-0.5-0.2-0.3-0.5-0.7c-0.2-0.2-0.4-0.5-0.7-0.7-0.5-0.6-1.3-1.2-2.3-1.5-1.1-0.4-2.4-0.4-3.7 0-2.7 0.8-5.6 3.4-6.8 7.1-0.6 1.8-0.7 3.9-0.1 6 0.3 1 0.8 2 1.4 2.9 0.3 0.5 0.6 0.9 1 1.4l0.6 0.6 0.6 0.6c0.8 0.8 1.7 1.5 2.8 2q1.5 0.9 3.3 1.2 1.8 0.3 3.6 0.2 1.9-0.2 3.6-0.9c4.7-1.8 8.7-5.8 10.3-10.7 0.8-2.4 0.9-5 0.5-7.5-0.4-2.5-1.4-4.9-2.9-6.8-3-4-7.6-6.2-12-7.3-4.4-1.1-9.4-1.2-14.3 0.1-2.4 0.6-4.8 1.7-6.9 3.1-2.1 1.5-3.9 3.3-5.4 5.5-3 4.2-4.4 9.5-4.3 14.6 0 2.5 0.5 5 1.2 7.4 0.8 2.3 1.9 4.5 3.2 6.4 2.6 4 6.1 6.9 9.7 8.6 3.5 1.9 7.1 2.7 10 3.2 2.9 0.4 5.4 0.5 7 0.6q1.2 0 1.9 0 0.6 0 0.7 0c1.9-0.1 1.9 0.7 0 0.8q0 0-0.7 0.1-0.7 0-1.9 0c-1.7-0.1-4.1-0.1-7.2-0.6-3-0.4-6.6-1.2-10.3-3.1-3.8-1.7-7.5-4.8-10.2-8.8-1.5-2-2.6-4.3-3.5-6.8-0.8-2.5-1.2-5.1-1.3-7.8-0.2-5.3 1.3-10.9 4.4-15.5 1.6-2.3 3.6-4.3 5.8-5.9 2.3-1.6 4.8-2.7 7.4-3.4 5.1-1.3 10.4-1.2 15.1-0.1 2.3 0.5 4.7 1.4 6.9 2.7 2.3 1.3 4.4 3 6 5.2 1.6 2.1 2.8 4.8 3.2 7.5 0.4 2.7 0.3 5.6-0.6 8.3-1.8 5.3-6.1 9.6-11.3 11.5q-1.9 0.7-3.9 0.9-2.1 0.2-4-0.2c-1.3-0.2-2.6-0.7-3.7-1.3-1.2-0.6-2.2-1.4-3.1-2.3l-0.7-0.6-0.6-0.7c-0.4-0.5-0.7-1-1.1-1.5-0.6-1.1-1.1-2.1-1.4-3.3-0.7-2.3-0.6-4.6 0.1-6.6 1.4-4.1 4.5-6.9 7.6-7.8 1.5-0.4 3.1-0.3 4.3 0.1 1.2 0.4 2.1 1.1 2.7 1.7 0.3 0.3 0.5 0.6 0.7 0.9q0.3 0.4 0.5 0.7 0.4 0.6 0.4 0.6c0.8 1.9 0 2.1-0.8 0.4z"/>
			</g>
			<path id="&lt;Path&gt;" class="s5" d="m1420.8 832.7c5.8-7 3.6-16.6 1.2-25.3-5.5-19.6-20.5-29.3-40.1-29.6-13.8-0.3-30.5 5.8-39.2 16.7 0 0-5.4 7.1-6.7 11.9-1 3.2-5.8 16.7-0.7 18.6 5.8 2 4.9-12.5 5.5-15.1 1.3-9.3 6.8-5.1 12.9-8 6.4-2.6 4.5-11.9 12.8-12.8 6.8-1 11.9 3.8 19 2.2 3.2-1 5.1-2.2 7.7 0.3 1.9 2.3 2.5 7.1 5.8 7.7 2.5 0.7 4.1-2.9 6.7-3.2 3.5-0.3 5.8 3.6 7.1 6.1 2.9 5.8 6.1 12.6 4.5 19.3-1.3 3.2-0.6 17 3.5 11.2z"/>
			<path id="&lt;Path&gt;" class="s6" d="m1383.2 782.1c-1.2 1.9-6.5-2.2-7.5-3.6-2.8-4.4-0.4-9.4 4.1-11.6 8.7-3.9 24.1 4.6 14 14-3.4 3.1-7.9 1.6-12 1.6"/>
			<g id="&lt;Group&gt;">
				<path id="&lt;Path&gt;" class="s7" d="m1388.4 779.8c0 0 0.2-0.1 0.6-0.2q0.2-0.2 0.5-0.3 0.3-0.3 0.6-0.6c0.9-0.8 1.4-2.2 1.5-3.3 0.2-1.1 0.1-2.7-0.5-3.7-0.2-0.5-0.5-0.9-0.8-1.2-0.3-0.3-0.4-0.4-0.4-0.4-0.1-0.1 0.2-0.6 0.3-0.5 0 0 0.2 0.2 0.6 0.4 0.3 0.3 0.7 0.7 1.1 1.3 0.8 1.1 1 2.9 0.8 4.2-0.1 1.4-0.9 3-2 3.9q-0.4 0.3-0.8 0.5-0.4 0.2-0.7 0.3c-0.4 0.1-0.7 0.1-0.7 0.1-0.1 0-0.2-0.5-0.1-0.5z"/>
			</g>
			<g id="&lt;Group&gt;">
				<path id="&lt;Path&gt;" class="s7" d="m1387.9 768.1q0 0-0.2 0.2c-0.1 0-0.3 0.2-0.5 0.3-0.3 0.3-0.9 0.5-1.4 0.5-0.5 0-1.1-0.1-1.5-0.4-0.4-0.3-0.6-0.6-0.6-0.6 0-0.1 0.3-0.4 0.4-0.4 0-0.1 0.2 0.1 0.6 0.2 0.3 0.1 0.7 0.1 1.1 0.1 0.3 0 0.7 0 1.1-0.1 0.2-0.1 0.3-0.2 0.4-0.2q0.2-0.1 0.2-0.1c0.1 0.1 0.4 0.4 0.4 0.5z"/>
			</g>
			<g id="&lt;Group&gt;">
				<path id="&lt;Path&gt;" class="s7" d="m1378 756.7c0 0 0.2 0.1 0.7 0.2q0.3 0.2 0.7 0.4 0.4 0.2 0.9 0.5c1.3 0.7 2.7 1.9 3.6 3.1 1 1.1 1.9 2.7 2.2 4.2 0.1 0.4 0.1 0.8 0.1 1.1q0 0.5 0 0.8c-0.1 0.5-0.1 0.8-0.1 0.8-0.1 0.2-0.6 0-0.6-0.1 0 0 0-0.3 0.1-0.7q-0.1-0.3-0.1-0.7c-0.1-0.3-0.1-0.6-0.2-0.9-0.4-1.3-1.4-2.8-2.2-3.8-0.9-1.1-2.1-2.3-3.2-3.1q-0.5-0.3-0.8-0.6-0.4-0.2-0.7-0.4c-0.4-0.1-0.6-0.3-0.6-0.3-0.2-0.1 0-0.5 0.2-0.5z"/>
			</g>
			<g id="&lt;Group&gt;">
				<path id="&lt;Path&gt;" class="s7" d="m1339.3 808.3c0 0 0 0.3-0.1 0.7-0.1 0.4-0.2 1-0.2 1.8-0.1 1.4 0 3.2-0.1 4.7 0 1.4-0.1 3.3-0.7 4.8-0.3 0.8-0.8 1.3-1.3 1.6-0.4 0.3-0.7 0.4-0.7 0.4-0.2 0-0.3-0.5-0.2-0.5 0 0 0.2-0.1 0.5-0.4 0.3-0.3 0.7-0.7 0.9-1.4 0.4-1.3 0.4-3.1 0.4-4.5 0.1-1.5 0.1-3.3 0.3-4.8 0.1-0.8 0.3-1.4 0.4-1.9 0.2-0.4 0.3-0.7 0.3-0.7 0.1-0.1 0.6 0.1 0.5 0.2z"/>
			</g>
			<g id="&lt;Group&gt;">
				<path id="&lt;Path&gt;" class="s7" d="m1351.7 799.4c0 0 0.2-0.1 0.5-0.2 0.3-0.2 0.7-0.4 1.1-0.7 0.9-0.5 1.7-1.6 2.3-2.4 0.7-0.8 1.4-2 2-2.9 0.7-0.9 1.2-1.6 1.2-1.6 0.1-0.1 0.6 0.2 0.5 0.3 0 0-0.4 0.7-0.9 1.7-0.6 1-1.2 2.2-1.9 3.2-0.6 0.9-1.7 1.9-2.8 2.5-0.5 0.2-1 0.4-1.3 0.5-0.4 0.1-0.6 0.1-0.6 0.1-0.1 0-0.2-0.5-0.1-0.5z"/>
			</g>
			<g id="&lt;Group&gt;">
				<path id="&lt;Path&gt;" class="s7" d="m1419.7 830c0 0 0.1-0.3 0.3-0.7q0.2-0.3 0.4-0.7 0.1-0.5 0.4-1c0.3-0.7 0.4-1.5 0.7-2.3 0.2-0.8 0.3-1.7 0.5-2.4 0.2-1.4 0.4-3.3 0.3-4.8 0-0.3 0-0.7 0-1q-0.1-0.5-0.2-0.8c-0.1-0.5-0.1-0.8-0.1-0.8 0-0.1 0.5-0.3 0.6-0.1 0 0 0 0.2 0.2 0.7q0.1 0.4 0.2 0.9c0.1 0.3 0.1 0.7 0.2 1.1 0.2 1.5 0.1 3.5-0.1 5-0.2 0.8-0.4 1.6-0.6 2.5-0.3 0.8-0.6 1.6-1 2.3q-0.2 0.6-0.5 1-0.2 0.4-0.4 0.8c-0.3 0.4-0.5 0.6-0.5 0.6-0.1 0.1-0.5-0.2-0.4-0.3z"/>
			</g>
			<g id="&lt;Group&gt;">
				<path id="&lt;Path&gt;" class="s7" d="m1404.2 794.9q0 0-0.2 0.1-0.2 0-0.4 0.2c-0.4 0.2-0.7 0.5-1 0.7-0.3 0.2-0.7 0.5-1 0.7q-0.3 0.2-0.4 0.4-0.1 0.1-0.1 0.1c-0.1 0.1-0.5-0.2-0.5-0.3q0 0 0.1-0.2 0-0.2 0.2-0.5c0.2-0.4 0.6-0.8 1-1.1 0.4-0.3 0.9-0.5 1.4-0.6 0.2-0.1 0.4-0.1 0.6-0.1q0.2 0 0.2 0c0.1 0.1 0.1 0.5 0.1 0.6z"/>
			</g>
			<g id="&lt;Group&gt;">
				<path id="&lt;Path&gt;" class="s7" d="m1421 812.1c0 0-0.1-0.3-0.2-0.9q-0.3-0.7-0.6-2.1c-0.4-1.7-1.1-3.8-1.7-5.4-0.6-1.6-1.3-3.6-2.1-5.2-0.4-0.8-0.8-1.4-1.1-1.9-0.3-0.5-0.4-0.8-0.4-0.8-0.1-0.1 0.3-0.4 0.4-0.3 0 0 0.2 0.3 0.6 0.7 0.3 0.5 0.8 1.1 1.2 1.9 1 1.5 1.8 3.6 2.5 5.2 0.5 1.7 1.1 3.9 1.4 5.6 0.2 0.9 0.3 1.7 0.4 2.2 0.1 0.6 0.1 0.9 0.1 0.9 0 0.2-0.5 0.3-0.5 0.1z"/>
			</g>
			<g id="&lt;Group&gt;">
				<path id="&lt;Path&gt;" class="s7" d="m1393.8 790.8q0 0-0.3-0.3c-0.1-0.1-0.3-0.4-0.6-0.6-0.6-0.6-1.4-0.9-2.1-1.1-0.6-0.1-1.5-0.2-2.3 0-0.3 0.1-0.6 0.3-0.9 0.3q-0.3 0.2-0.3 0.2c-0.1 0-0.4-0.5-0.3-0.5q0 0 0.3-0.3c0.3-0.1 0.6-0.3 1-0.5 0.8-0.4 1.9-0.4 2.8-0.3 0.8 0.3 1.9 0.8 2.4 1.6 0.3 0.3 0.4 0.6 0.6 0.9q0.2 0.3 0.2 0.3c0 0.2-0.5 0.4-0.5 0.3z"/>
			</g>
			<g id="&lt;Group&gt;">
				<path id="&lt;Path&gt;" class="s7" d="m1365.8 787.9q0 0-0.3 0.1-0.3 0.1-0.8 0.2c-0.7 0.2-1.5 0.6-2.1 0.8-0.6 0.3-1.4 0.6-2 1-0.3 0.2-0.5 0.3-0.7 0.5q-0.3 0.2-0.3 0.2c-0.1 0-0.4-0.4-0.4-0.4q0-0.1 0.2-0.3c0.2-0.2 0.4-0.4 0.7-0.7 0.6-0.5 1.4-1 2-1.3 0.7-0.3 1.6-0.5 2.4-0.6 0.3 0 0.7-0.1 0.9-0.1q0.4 0 0.4 0c0.1 0.1 0.1 0.6 0 0.6z"/>
			</g>
		</g>
		<g id="&lt;Group&gt;">
			<path id="&lt;Path&gt;" class="s8" d="m1412.6 785c7.4 21.8 16.3 59.2 16.3 59.2l59.3 2.4 15.1-61.5c-9.4 3.2-73.8 10.7-90.7-0.1z"/>
			<path id="&lt;Path&gt;" class="s9" d="m1438.6 741.5c-16.8 5.9-36.6 19.8-29.7 40.6 6.4 20.3 28.2 17.3 45 17.8 14.4 0 35.7 6.4 48.1-3.5 15.3-12.8 9.4-39.1-4.5-50-14.4-11.8-34.6-9.9-51.5-6.9z"/>
			<path id="&lt;Path&gt;" class="s10" d="m1450.8 737.1c-3.6 0.9-17-5.9-19.2-9.8-6.6-11.5 8.6-15.7 16.1-9.7-2.1-12.1 14-15.6 15.3-3.3 0.5 6.9-6.5 18.7-10.8 23.9z"/>
			<path id="&lt;Path&gt;" class="s11" d="m1428.8 753.1c-2.5-21.4 24.3-25.9 40.3-23.8 8.2 1.2 27.1 12.7 16.8 22.6-6.1 6.1-20.9 2.4-29.1 3.7-7.9 1.6-24.6 7.9-28-2.5z"/>
			<g id="&lt;Group&gt;">
				<path id="&lt;Path&gt;" class="s12" d="m1417.5 768.4q0 0-0.2-0.3c-0.1-0.2-0.2-0.5-0.3-0.8-0.3-0.7-0.5-1.6-0.3-2.4 0.1-0.7 0.6-1.6 1.2-2.1 0.6-0.4 1.1-0.6 1.1-0.6 0.1-0.1 0.5 0.6 0.5 0.6 0 0-0.4 0.4-0.7 0.8-0.3 0.5-0.5 1.1-0.6 1.6-0.1 0.5-0.2 1.2-0.1 1.8 0 0.3 0.1 0.5 0.1 0.7q0.1 0.3 0.1 0.3c-0.1 0.1-0.7 0.4-0.8 0.4z"/>
			</g>
			<g id="&lt;Group&gt;">
				<path id="&lt;Path&gt;" class="s12" d="m1427.6 783.2q0 0-0.4-0.1c-0.2 0-0.6-0.1-0.9-0.3-0.8-0.3-1.6-1-2.1-1.7-0.4-0.7-0.7-1.8-0.6-2.7 0.1-0.8 0.4-1.3 0.4-1.3 0-0.1 0.7 0.1 0.8 0.2 0 0-0.1 0.5 0 1.1 0 0.7 0.4 1.4 0.7 1.9 0.3 0.5 0.8 1.1 1.4 1.5 0.2 0.2 0.5 0.4 0.7 0.5q0.3 0.2 0.3 0.2c0 0.1-0.2 0.7-0.3 0.7z"/>
			</g>
			<g id="&lt;Group&gt;">
				<path id="&lt;Path&gt;" class="s12" d="m1413.1 776.7c0 0-0.4-1-0.3-1.8 0.1-0.4 0.2-0.9 0.5-1.2 0.3-0.3 0.5-0.5 0.5-0.5 0-0.1 0.7 0.4 0.7 0.4 0 0 0 0.3-0.1 0.6-0.1 0.3 0 0.6-0.1 0.9 0 0.6-0.4 1.6-0.4 1.6-0.1 0.1-0.8 0.1-0.8 0z"/>
			</g>
			<g id="&lt;Group&gt;">
				<path id="&lt;Path&gt;" class="s12" d="m1433.2 774.3c0 0-0.3-0.4-0.8-0.9-0.5-0.5-0.8-1.2-1.1-1.8-0.1-0.7-0.3-1.5-0.3-2.1 0.1-0.7 0.1-1.2 0.1-1.2 0-0.1 0.8-0.1 0.8 0 0 0 0.2 0.4 0.3 1 0.1 0.6 0.5 1.2 0.6 1.8 0.3 0.4 0.3 1.2 0.6 1.7 0.3 0.5 0.5 0.9 0.5 0.9-0.1 0.1-0.6 0.6-0.7 0.6z"/>
			</g>
			<g id="&lt;Group&gt;">
				<path id="&lt;Path&gt;" class="s12" d="m1422.3 760.8q0 0-0.1-0.2c-0.1-0.1-0.2-0.3-0.2-0.5-0.1-0.4-0.1-1 0.1-1.4 0.2-0.4 0.6-0.8 1-1 0.4-0.2 0.7-0.3 0.7-0.3 0 0 0.4 0.6 0.4 0.7 0 0-0.1 0.2-0.3 0.4-0.1 0.3-0.2 0.6-0.4 0.8-0.1 0.3-0.2 0.5-0.3 0.8-0.1 0.3-0.1 0.5-0.1 0.5-0.1 0.1-0.8 0.3-0.8 0.2z"/>
			</g>
			<g id="&lt;Group&gt;">
				<path id="&lt;Path&gt;" class="s12" d="m1453.2 792.5q-0.1 0-0.4-0.1c-0.2 0-0.6 0-0.9-0.2-0.7-0.1-1.7-0.5-2.2-1.1-0.6-0.6-1.1-1.6-1-2.4-0.1-0.8 0.1-1.4 0.1-1.4 0-0.1 0.8 0.1 0.8 0.1 0.1 0 0 0.5 0.2 1.1 0.1 0.6 0.6 1.1 1 1.5 0.3 0.4 0.9 0.8 1.5 1.1 0.3 0.2 0.6 0.3 0.8 0.4q0.2 0.2 0.3 0.2c0 0.1-0.2 0.7-0.2 0.8z"/>
			</g>
			<g id="&lt;Group&gt;">
				<path id="&lt;Path&gt;" class="s12" d="m1454.5 780.2c0 0-0.5 0-1.2-0.2-0.7-0.2-1.6-0.5-2.1-1.1-0.6-0.5-1.1-1.4-1.2-2.1-0.1-0.4-0.1-0.7-0.1-0.9q0-0.4 0-0.4c0-0.1 0.7-0.2 0.8-0.1 0 0 0.1 0.5 0.4 1 0.3 0.5 0.7 1 1.1 1.4 0.4 0.4 1 0.8 1.5 1.1 0.6 0.3 1 0.5 1 0.5 0.1 0.1-0.1 0.8-0.2 0.8z"/>
			</g>
			<g id="&lt;Group&gt;">
				<path id="&lt;Path&gt;" class="s12" d="m1441.3 767.9c0 0-0.1-0.3-0.1-0.7-0.1-0.4 0-0.9 0.1-1.3 0.2-0.4 0.5-0.8 0.9-1 0.3-0.3 0.7-0.4 0.6-0.4 0.1 0 0.5 0.7 0.5 0.7 0 0-0.1 0.2-0.2 0.5-0.2 0.2-0.2 0.6-0.3 0.8-0.1 0.2-0.3 0.6-0.4 0.9-0.2 0.2-0.3 0.5-0.3 0.5 0 0-0.7 0-0.8 0z"/>
			</g>
			<g id="&lt;Group&gt;">
				<path id="&lt;Path&gt;" class="s12" d="m1459.5 778.1q0 0-0.2-0.1c-0.2-0.1-0.4-0.3-0.6-0.4-0.5-0.4-0.9-1-1.2-1.5-0.1-0.5-0.2-1.3-0.1-1.8 0-0.3 0.1-0.6 0.2-0.7q0.1-0.3 0.1-0.3c0 0 0.8 0.1 0.8 0.2 0 0 0 0.3 0.1 0.8 0.1 0.4 0.3 0.9 0.4 1.2 0.2 0.4 0.3 0.9 0.6 1.3 0.2 0.4 0.4 0.6 0.4 0.6 0 0.1-0.4 0.7-0.5 0.7z"/>
			</g>
			<g id="&lt;Group&gt;">
				<path id="&lt;Path&gt;" class="s12" d="m1466.8 766.3c0 0-0.4 0-0.9-0.1-0.5 0-1.1-0.1-1.5-0.3-0.9-0.4-2-1.4-2-1.4-0.1 0 0.3-0.7 0.3-0.7 0 0 1.5 0.3 2.3 0.6 0.4 0.2 0.8 0.5 1.3 0.7 0.4 0.2 0.7 0.4 0.7 0.4 0 0.1-0.1 0.7-0.2 0.8z"/>
			</g>
			<g id="&lt;Group&gt;">
				<path id="&lt;Path&gt;" class="s12" d="m1481.8 784.6c0 0-0.2 0.3-0.6 0.6-0.4 0.3-1 0.6-1.5 0.6-0.5 0-1.2-0.2-1.6-0.6-0.4-0.3-0.5-0.7-0.5-0.6-0.1-0.1 0.5-0.6 0.5-0.6 0 0 0.3 0.1 0.6 0.2 0.3 0.1 0.7 0 0.9 0 0.3 0 0.7 0 1.1-0.1 0.3-0.1 0.6-0.2 0.6-0.2 0.1 0.1 0.5 0.6 0.5 0.7z"/>
			</g>
			<g id="&lt;Group&gt;">
				<path id="&lt;Path&gt;" class="s12" d="m1481 767.3c0 0-1.1 0.5-1.9 0.7-0.8 0-1.9-0.4-1.9-0.4-0.1 0-0.1-0.8 0-0.8 0 0 1.1-0.4 1.8-0.4 0.6-0.1 1.8 0.1 1.8 0.1 0 0.1 0.2 0.7 0.2 0.8z"/>
			</g>
			<g id="&lt;Group&gt;">
				<path id="&lt;Path&gt;" class="s12" d="m1487.3 761c0 0 0-1.1 0.2-1.7 0.2-0.6 0.8-1.4 0.8-1.4l0.8 0.3c0 0 0 1-0.1 1.6-0.3 0.6-0.9 1.4-0.9 1.4-0.1 0-0.7-0.2-0.8-0.2z"/>
			</g>
			<g id="&lt;Group&gt;">
				<path id="&lt;Path&gt;" class="s12" d="m1493.8 769.5c0 0 0.3-0.1 0.4-0.2 0.2-0.1 0.2-0.3 0.2-0.4 0.1-0.1 0.2-0.4 0.3-0.7 0.1-0.3 0.1-0.5 0.1-0.5 0 0 0.7-0.2 0.8-0.2q0 0 0.3 0.6c0.1 0.4 0.2 0.9 0 1.4-0.2 0.5-0.8 1-1.3 0.9-0.5 0.1-0.7-0.1-0.7 0-0.1-0.1-0.1-0.8-0.1-0.9z"/>
			</g>
			<g id="&lt;Group&gt;">
				<path id="&lt;Path&gt;" class="s12" d="m1488.1 792.7c0 0 0.4 0 0.8-0.1 0.4-0.1 0.8-0.2 1.1-0.3 0.3 0 0.7-0.1 1-0.3 0.2-0.1 0.3-0.4 0.4-0.3 0-0.1 0.8 0.1 0.8 0.2q0 0-0.1 0.3c0 0.1-0.1 0.4-0.2 0.6-0.3 0.6-1 1-1.5 1.1-0.5 0.1-1.2 0-1.6-0.1-0.5-0.1-0.8-0.3-0.8-0.3 0-0.1 0.1-0.7 0.1-0.8z"/>
			</g>
			<g id="&lt;Group&gt;">
				<path id="&lt;Path&gt;" class="s12" d="m1437.3 793.2q0 0-0.3 0.1c-0.2 0-0.5 0.1-0.9 0.1-0.7 0.2-1.7 0.1-2.4-0.1-0.6-0.3-1.4-0.8-1.9-1.3-0.3-0.3-0.5-0.5-0.6-0.7q-0.3-0.2-0.3-0.3c0 0 0.5-0.6 0.6-0.5q0 0 0.3 0.1c0.2 0.1 0.4 0.3 0.7 0.4 0.5 0.4 1.2 0.6 1.7 0.8 0.6 0.1 1.3 0.4 1.9 0.4 0.3 0.1 0.6 0.1 0.8 0.1q0.3 0.1 0.3 0.1c0.1 0 0.2 0.7 0.1 0.8z"/>
			</g>
			<g id="&lt;Group&gt;">
				<path id="&lt;Path&gt;" class="s12" d="m1435.2 838.5c0 0-2.8-11.2-4.3-18.5-1.5-7.3-3.5-18.7-3.5-18.7 0-0.4 0.7-0.5 0.8-0.2 0 0 2.7 11.3 4.3 18.6 1.5 7.2 3.4 18.6 3.4 18.6 0 0.4-0.6 0.6-0.7 0.2z"/>
			</g>
			<g id="&lt;Group&gt;">
				<path id="&lt;Path&gt;" class="s12" d="m1447.5 840.4c0 0 0-0.7 0.1-2q0.1-0.9 0.1-2.2 0.1-1.3 0.1-2.8c0-4-0.1-9-0.2-12.9-0.1-3.9-0.2-8.9-0.2-12.9 0-2 0-3.8 0-5 0-1.3 0.1-2 0.1-2 0-0.5 0.7-0.4 0.8 0 0 0 0 0.7 0.1 2 0 1.2 0.1 3 0.2 5 0.2 4 0.4 9 0.5 12.9 0.1 3.9 0.1 8.9-0.1 12.9q-0.1 1.6-0.2 2.8c-0.1 0.9-0.2 1.7-0.3 2.3-0.1 1.2-0.2 2-0.2 2-0.1 0.4-0.8 0.3-0.8-0.1z"/>
			</g>
			<g id="&lt;Group&gt;">
				<path id="&lt;Path&gt;" class="s12" d="m1462.1 840.4c0 0 1.5-11 2.7-18 1.2-7 3.4-17.9 3.4-17.9 0.1-0.3 0.8-0.2 0.8 0.2 0 0-1.5 11-2.7 18-1.1 7-3.4 17.9-3.4 17.9-0.1 0.3-0.8 0.2-0.8-0.2z"/>
			</g>
			<g id="&lt;Group&gt;">
				<path id="&lt;Path&gt;" class="s12" d="m1476.8 840.4c0 0 3.3-10 5.6-16.4 2.3-6.4 6.2-16.1 6.2-16.1 0.1-0.4 0.8-0.1 0.7 0.2 0 0-3.2 10-5.5 16.4-2.3 6.4-6.2 16.1-6.2 16.1-0.2 0.4-0.8 0.1-0.8-0.2z"/>
			</g>
			<g id="&lt;Group&gt;">
				<path id="&lt;Path&gt;" class="s12" d="m1442.6 738.3c0 0-0.7-0.9-0.7-1.5 0.1-0.4 0.4-0.8 0.6-1 0.3-0.3 0.5-0.5 0.5-0.5l1.5 0.5c0 0.1 0.6 0.9 0.6 1.3-0.1 0.4-0.8 1.2-0.8 1.2-0.2 0-1.6 0-1.7 0z"/>
			</g>
			<g id="&lt;Group&gt;">
				<path id="&lt;Path&gt;" class="s12" d="m1456.6 743.9c0 0-1-1.1-1.3-1.8-0.1-0.3 0-0.9 0-1.3 0-0.3 0.1-0.7 0.1-0.7l1.3-0.9c0 0 0.4 0.3 0.8 0.7 0.4 0.4 0.7 0.9 0.9 1.3 0.2 0.9-0.2 2.3-0.2 2.3-0.2 0.1-1.5 0.4-1.6 0.4z"/>
			</g>
			<g id="&lt;Group&gt;">
				<path id="&lt;Path&gt;" class="s12" d="m1443.4 747.5c-0.1 0.1-0.3-1.3 0.2-1.9 0.2-0.3 0.6-0.5 1-0.6 0.3-0.1 0.6-0.1 0.6-0.1 0.1 0 1.2 1.1 1.2 1.1 0 0 0 0.3-0.1 0.6-0.1 0.4-0.1 0.7-0.2 0.9-0.3 0.3-1.2 0.5-1.2 0.6-0.2-0.1-1.5-0.5-1.5-0.6z"/>
			</g>
			<g id="&lt;Group&gt;">
				<path id="&lt;Path&gt;" class="s12" d="m1434.4 744.4c0 0 0.5-1.1 0.9-1.3 0.3-0.1 1.2 0.1 1.3 0.1l1.1 1.1c0 0-0.4 1.3-1 1.6-0.6 0.3-1.6-0.1-1.6-0.1-0.1-0.1-0.7-1.3-0.7-1.4z"/>
			</g>
			<g id="&lt;Group&gt;">
				<path id="&lt;Path&gt;" class="s12" d="m1457.8 733.8c0-0.1-0.9 0.1-1.3 0-0.4-0.2-1-1.2-1-1.2-0.1 0 0.4-1.5 0.5-1.5 0 0 1.1-0.5 1.8-0.2 0.3 0.2 0.7 0.6 0.9 1 0.2 0.4 0.3 0.7 0.3 0.7-0.1 0.1-1.1 1.1-1.2 1.2z"/>
			</g>
			<g id="&lt;Group&gt;">
				<path id="&lt;Path&gt;" class="s12" d="m1467.5 746.2c0 0-0.4-1.2-0.2-1.9 0.2-0.7 1.2-1.5 1.2-1.5 0.1 0 1.5 0.5 1.6 0.5 0 0 0.4 1.3 0.2 1.9-0.2 0.6-1.2 1.4-1.2 1.4-0.2 0-1.5-0.3-1.6-0.4z"/>
			</g>
			<g id="&lt;Group&gt;">
				<path id="&lt;Path&gt;" class="s12" d="m1469.2 734.2c0 0-0.4 0-0.8-0.2-0.5-0.1-1-0.4-1.3-0.7-0.2-0.4-0.3-1-0.3-1.4 0-0.5 0-0.8 0-0.8 0.1-0.1 1.5-0.5 1.6-0.5 0 0 0.2 0.1 0.5 0.3 0.3 0.2 0.7 0.3 0.8 0.5 0.1 0.1 0.1 0.6 0.2 0.8 0.1 0.4 0.2 0.6 0.2 0.6-0.1 0.2-0.8 1.3-0.9 1.4z"/>
			</g>
			<g id="&lt;Group&gt;">
				<path id="&lt;Path&gt;" class="s12" d="m1478.4 743.9c0 0-1-0.9-1.2-1.7-0.1-0.4 0-1 0.2-1.4 0.1-0.5 0.3-0.8 0.3-0.8h1.6c0 0 0.2 0.3 0.4 0.6 0.2 0.3 0.5 0.7 0.6 1 0.1 0.6-0.3 1.9-0.3 1.9-0.2 0.1-1.5 0.4-1.6 0.4z"/>
			</g>
			<g id="&lt;Group&gt;">
				<path id="&lt;Path&gt;" class="s12" d="m1469 785c0 0-0.7 0.4-1.1 0.4-0.5 0-1.1-0.4-1.1-0.4v-0.8c0 0 0.6-0.4 1.1-0.4 0.4 0 1.1 0.4 1.1 0.4 0 0.1 0 0.7 0 0.8z"/>
			</g>
			<g id="&lt;Group&gt;">
				<path id="&lt;Path&gt;" class="s12" d="m1499.5 776.7c0 0 0.1 0.3 0.2 0.8 0.1 0.4 0 1.1-0.4 1.5-0.3 0.4-1 0.7-1.5 0.7-0.2 0-0.4-0.1-0.5-0.1q-0.2 0-0.2-0.1c-0.1 0-0.1-0.7 0-0.8 0 0 0.2-0.1 0.5-0.2 0.3-0.1 0.4-0.4 0.5-0.5 0.1-0.1 0.3-0.3 0.4-0.6 0.1-0.3 0.2-0.6 0.2-0.6 0.1 0 0.7-0.1 0.8-0.1z"/>
			</g>
			<g id="&lt;Group&gt;">
				<path id="&lt;Path&gt;" class="s12" d="m1495.4 784.8c0 0-0.4 0.4-1 0.8-0.6 0.4-1.6 0.9-2.6 0.7-0.5-0.2-1-0.5-1.3-0.9-0.3-0.4-0.4-0.9-0.5-1.3-0.2-0.7-0.1-1.3-0.1-1.3 0 0 0.7-0.2 0.8-0.1 0 0 0.1 0.5 0.4 1 0.2 0.3 0.4 0.6 0.5 0.7q0.3 0.3 0.6 0.3c0.3 0.2 1 0.1 1.6-0.1 0.6-0.2 1.1-0.5 1.1-0.5 0.1 0 0.5 0.6 0.5 0.7z"/>
			</g>
			<g id="&lt;Group&gt;">
				<path id="&lt;Path&gt;" class="s13" d=""/>
			</g>
			<g id="&lt;Group&gt;">
				<path id="&lt;Path&gt;" class="s14" d="m1441 730.8c0 0-0.4-0.2-1.1-0.4-0.8-0.3-1.7-0.8-2.7-1.4-1-0.6-2.2-1.4-3-2.6-1-1-1.6-2.4-1.7-3.7-0.2-1.3 0.4-3 1.5-3.9 1.2-1 2.6-1.4 3.8-1.6 0.6-0.1 1.2 0 1.7-0.1 0.5 0 1 0.1 1.4 0.1 0.7 0.1 1.2 0.1 1.2 0.1 0.2 0.1 0.1 0.8-0.1 0.8 0 0-0.5 0-1.2 0-0.3 0-0.8 0-1.2 0.1-0.5 0.1-1 0-1.6 0.2-1 0.2-2.2 0.7-3 1.4-0.8 0.8-1 1.8-0.9 2.8 0 1.9 1.9 4.2 3.7 5.4 0.9 0.7 1.8 1.2 2.4 1.5 0.7 0.3 1.1 0.5 1.1 0.5 0.2 0.2-0.1 0.8-0.3 0.8z"/>
			</g>
			<g id="&lt;Group&gt;">
				<path id="&lt;Path&gt;" class="s14" d="m1456.7 709.1c0 0-0.2 0.1-0.5 0.1-0.3 0.1-0.8 0.2-1.2 0.5-1 0.3-1.8 1-2.4 1.7-0.5 0.6-1 1.7-1.2 2.7-0.1 0.4-0.1 0.9-0.1 1.2-0.1 0.3-0.1 0.5-0.1 0.5 0 0.1-0.8 0.2-0.8 0.1 0 0 0-0.2-0.1-0.6 0-0.3-0.1-0.8-0.1-1.4 0-1.1 0.4-2.6 1.2-3.5 0.8-0.9 2.1-1.7 3.2-1.9 0.6-0.2 1.1-0.1 1.4-0.2q0.6 0 0.6 0c0.1 0 0.2 0.7 0.1 0.8z"/>
			</g>
			<g id="&lt;Group&gt;">
				<path id="&lt;Path&gt;" class="s14" d="m1437.5 756.7c0 0-0.2 0-0.7 0.1-0.5 0-1.1 0-1.8-0.2-0.8-0.1-1.6-0.4-2.4-0.7-0.7-0.5-1.4-1-1.9-1.6-1.1-1.1-1.6-3.2-1.4-4.7 0.1-0.8 0.3-1.4 0.5-1.8 0.2-0.4 0.3-0.7 0.3-0.7 0.1-0.1 0.8 0.2 0.7 0.3 0 0 0 0.2-0.1 0.6-0.1 0.5-0.2 1-0.2 1.7 0 1.3 0.6 2.7 1.4 3.6 0.3 0.5 0.9 0.9 1.5 1.3 0.6 0.3 1.2 0.7 1.8 0.9 0.7 0.2 1.3 0.3 1.7 0.3 0.4 0.1 0.6 0.1 0.6 0.1 0.2 0.1 0.2 0.8 0 0.8z"/>
			</g>
			<g id="&lt;Group&gt;">
				<path id="&lt;Path&gt;" class="s14" d="m1450.5 754.7q0 0-0.5 0.1c-0.3 0.1-0.7 0.1-1.2 0.3-0.9 0.2-2.1 0.7-3.1 1-1 0.2-2.3 0.5-3.4 0.5-0.5 0-1-0.1-1.3-0.1-0.4-0.1-0.6-0.1-0.6-0.1-0.1 0 0-0.8 0.1-0.8 0 0 0.2 0 0.5-0.1 0.3 0 0.7 0 1.2-0.1 1-0.2 2.1-0.6 3.1-0.9 0.9-0.2 2.2-0.5 3.3-0.6 0.5-0.1 1 0 1.4 0 0.3 0 0.5 0 0.5 0 0.1 0.1 0.1 0.7 0 0.8z"/>
			</g>
		</g>
		<g id="&lt;Group&gt;">
			<path id="&lt;Path&gt;" class="s8" d="m1488.1 808.6c6.7 19.9 14.9 54 14.9 54l54.1 2.2 13.8-56.1c-8.6 2.9-67.3 9.7-82.8-0.1z"/>
			<path id="&lt;Path&gt;" class="s15" d="m1511.8 768.9c-15.3 5.4-33.4 18.1-27.1 37.1 5.9 18.5 25.8 15.8 41.1 16.2 13.1 0 32.6 5.9 43.9-3.1 14-11.8 8.6-35.7-4.1-45.7-13.1-10.8-31.6-9-47-6.3z"/>
			<path id="&lt;Path&gt;" class="s10" d="m1523 764.9c-3.3 0.8-15.5-5.4-17.5-8.9-6.1-10.5 7.8-14.4 14.6-8.9-1.9-11.1 12.8-14.3 14-3.1 0.5 6.4-6 17.2-9.8 21.9z"/>
			<path id="&lt;Path&gt;" class="s9" d="m1502.9 779.5c-2.3-19.5 22.1-23.6 36.8-21.8 7.5 1.2 24.7 11.7 15.4 20.7-5.7 5.6-19.2 2.2-26.7 3.4-7.1 1.5-22.4 7.2-25.5-2.3z"/>
			<g id="&lt;Group&gt;">
				<path id="&lt;Path&gt;" class="s12" d="m1492.6 793.4q0 0-0.2-0.2c-0.1-0.2-0.2-0.4-0.3-0.8-0.3-0.6-0.4-1.4-0.3-2.1 0.1-0.7 0.6-1.5 1.2-1.9 0.5-0.4 1-0.6 0.9-0.6 0.1-0.1 0.5 0.5 0.5 0.6 0 0-0.4 0.3-0.6 0.7-0.4 0.4-0.5 1-0.6 1.5-0.1 0.4-0.1 1-0.1 1.6 0 0.2 0.1 0.5 0.1 0.7q0.1 0.2 0.1 0.2c-0.1 0.1-0.7 0.4-0.7 0.3z"/>
			</g>
			<g id="&lt;Group&gt;">
				<path id="&lt;Path&gt;" class="s12" d="m1501.8 807q0 0-0.4-0.1c-0.2 0-0.5-0.1-0.8-0.3-0.7-0.2-1.5-0.9-1.9-1.5-0.4-0.7-0.7-1.7-0.5-2.5 0-0.7 0.3-1.2 0.3-1.2 0-0.1 0.7 0.1 0.7 0.2 0 0 0 0.4 0 1 0.1 0.6 0.4 1.3 0.7 1.7 0.3 0.4 0.7 1 1.2 1.4 0.2 0.2 0.5 0.3 0.7 0.5q0.2 0.1 0.2 0.1c0.1 0.1-0.1 0.7-0.2 0.7z"/>
			</g>
			<g id="&lt;Group&gt;">
				<path id="&lt;Path&gt;" class="s12" d="m1488.5 801.1c0 0-0.3-1-0.2-1.7 0-0.4 0.2-0.8 0.5-1.1 0.2-0.3 0.4-0.5 0.4-0.5l0.6 0.4c0 0 0 0.3 0 0.5-0.1 0.3 0 0.7-0.1 0.9-0.1 0.5-0.4 1.5-0.4 1.5-0.1 0-0.7 0-0.8 0z"/>
			</g>
			<g id="&lt;Group&gt;">
				<path id="&lt;Path&gt;" class="s12" d="m1506.9 798.8c0 0-0.3-0.3-0.7-0.8-0.5-0.4-0.8-1.1-1-1.6-0.2-0.6-0.3-1.4-0.3-2 0.1-0.6 0.1-1 0.1-1 0-0.1 0.7-0.1 0.7 0 0 0 0.2 0.4 0.3 0.9 0.1 0.5 0.4 1.1 0.5 1.6 0.3 0.4 0.4 1.1 0.6 1.6 0.2 0.5 0.4 0.9 0.4 0.9 0 0-0.5 0.4-0.6 0.4z"/>
			</g>
			<g id="&lt;Group&gt;">
				<path id="&lt;Path&gt;" class="s12" d="m1496.9 786.6q0 0-0.1-0.2c0-0.1-0.1-0.3-0.1-0.5-0.1-0.4-0.1-0.9 0.1-1.3 0.2-0.4 0.6-0.8 0.9-0.9 0.3-0.2 0.6-0.3 0.6-0.3l0.4 0.6c0 0-0.1 0.2-0.3 0.5-0.1 0.2-0.2 0.5-0.3 0.7-0.1 0.2-0.3 0.4-0.3 0.7-0.1 0.3-0.1 0.5-0.2 0.5 0 0-0.6 0.2-0.7 0.2z"/>
			</g>
			<g id="&lt;Group&gt;">
				<path id="&lt;Path&gt;" class="s12" d="m1525.1 815.4q0 0-0.3 0c-0.2 0-0.5-0.1-0.8-0.2-0.7-0.1-1.5-0.5-2.1-1-0.5-0.5-0.9-1.5-0.9-2.2 0-0.8 0.2-1.3 0.2-1.3l0.7 0.1c0 0 0 0.5 0.2 1 0.1 0.6 0.5 1 0.8 1.4 0.4 0.3 0.9 0.7 1.5 1 0.2 0.2 0.5 0.3 0.6 0.4q0.3 0.1 0.3 0.1c0 0.1-0.1 0.7-0.2 0.7z"/>
			</g>
			<g id="&lt;Group&gt;">
				<path id="&lt;Path&gt;" class="s12" d="m1526.4 804.3c0 0-0.5-0.1-1.2-0.2-0.6-0.2-1.4-0.5-1.9-1-0.5-0.5-1-1.3-1.1-2-0.1-0.3-0.1-0.6-0.1-0.8q0-0.3 0-0.3c0-0.1 0.7-0.2 0.7-0.1 0.1-0.1 0.2 0.4 0.4 0.9 0.3 0.5 0.7 0.9 1.1 1.2 0.3 0.4 0.8 0.8 1.3 1.1 0.5 0.2 1 0.4 1 0.4 0 0.1-0.2 0.7-0.2 0.8z"/>
			</g>
			<g id="&lt;Group&gt;">
				<path id="&lt;Path&gt;" class="s12" d="m1514.3 793c0 0-0.1-0.3-0.1-0.6-0.1-0.4 0-0.8 0.1-1.2 0.2-0.3 0.5-0.7 0.8-1 0.3-0.2 0.6-0.3 0.6-0.3 0.1 0 0.4 0.6 0.4 0.7 0 0-0.1 0.1-0.2 0.4-0.1 0.2-0.2 0.5-0.2 0.7-0.1 0.3-0.3 0.6-0.4 0.8-0.2 0.3-0.2 0.5-0.2 0.5-0.1 0-0.7 0-0.8 0z"/>
			</g>
			<g id="&lt;Group&gt;">
				<path id="&lt;Path&gt;" class="s12" d="m1530.9 802.3q0 0-0.2-0.1c-0.1-0.1-0.3-0.2-0.5-0.4-0.5-0.3-0.9-0.8-1.1-1.3-0.1-0.5-0.2-1.2-0.1-1.7 0-0.2 0.1-0.4 0.2-0.6q0-0.2 0-0.2c0.1-0.1 0.8 0.1 0.8 0.1 0 0 0 0.3 0.1 0.7 0.1 0.4 0.3 0.8 0.4 1.2 0.1 0.3 0.3 0.8 0.5 1.1 0.2 0.4 0.4 0.6 0.4 0.6 0 0.1-0.4 0.6-0.5 0.6z"/>
			</g>
			<g id="&lt;Group&gt;">
				<path id="&lt;Path&gt;" class="s12" d="m1537.6 791.5c0 0-0.4 0-0.8 0-0.5 0-1-0.2-1.4-0.3-0.9-0.4-1.9-1.2-1.9-1.2 0-0.1 0.3-0.7 0.3-0.7 0 0 1.4 0.3 2.1 0.6 0.4 0.1 0.8 0.4 1.2 0.5 0.3 0.2 0.6 0.4 0.6 0.4 0.1 0.1-0.1 0.7-0.1 0.7z"/>
			</g>
			<g id="&lt;Group&gt;">
				<path id="&lt;Path&gt;" class="s12" d="m1551.3 808.3c0 0-0.2 0.2-0.6 0.5-0.3 0.3-0.8 0.5-1.3 0.6-0.5 0-1.1-0.2-1.5-0.6-0.3-0.3-0.5-0.6-0.5-0.6l0.5-0.5c0 0 0.3 0.1 0.6 0.2 0.2 0.1 0.6 0 0.8 0 0.2 0 0.6 0 0.9-0.1 0.3 0 0.6-0.1 0.6-0.1 0.1 0 0.5 0.5 0.5 0.6z"/>
			</g>
			<g id="&lt;Group&gt;">
				<path id="&lt;Path&gt;" class="s12" d="m1550.5 792.5c0 0-1 0.5-1.7 0.6-0.7 0-1.8-0.3-1.8-0.3 0 0 0-0.7 0-0.8 0 0 1-0.3 1.7-0.4 0.6 0 1.6 0.1 1.6 0.1 0.1 0.1 0.2 0.7 0.2 0.8z"/>
			</g>
			<g id="&lt;Group&gt;">
				<path id="&lt;Path&gt;" class="s12" d="m1556.3 786.7c0 0 0-1 0.1-1.5 0.2-0.6 0.8-1.3 0.8-1.3 0.1 0 0.7 0.2 0.7 0.3 0 0 0.1 0.9-0.1 1.4-0.2 0.6-0.8 1.3-0.8 1.3-0.1 0-0.7-0.2-0.7-0.2z"/>
			</g>
			<g id="&lt;Group&gt;">
				<path id="&lt;Path&gt;" class="s12" d="m1562.3 794.5c0 0 0.2-0.1 0.3-0.2 0.2-0.1 0.2-0.3 0.2-0.4 0.1-0.1 0.2-0.3 0.2-0.6 0.1-0.2 0.1-0.5 0.1-0.5 0 0 0.7-0.2 0.8-0.2 0 0 0.1 0.3 0.2 0.6 0.1 0.3 0.2 0.8 0 1.3-0.1 0.4-0.7 0.8-1.2 0.8-0.4 0.1-0.6-0.1-0.6 0-0.1-0.1-0.1-0.7 0-0.8z"/>
			</g>
			<g id="&lt;Group&gt;">
				<path id="&lt;Path&gt;" class="s12" d="m1557.1 815.7c0 0 0.3-0.1 0.6-0.1 0.4-0.1 0.8-0.2 1.1-0.3 0.3 0 0.6-0.1 0.8-0.2 0.3-0.2 0.4-0.4 0.4-0.4l0.7 0.2q0 0 0 0.3 0 0.2-0.2 0.6c-0.3 0.4-0.9 0.8-1.4 0.9-0.4 0.2-1 0.1-1.5 0-0.4-0.2-0.7-0.3-0.7-0.3 0-0.1 0.1-0.7 0.2-0.7z"/>
			</g>
			<g id="&lt;Group&gt;">
				<path id="&lt;Path&gt;" class="s12" d="m1510.7 816.1q-0.1 0-0.4 0.1c-0.2 0-0.4 0.1-0.8 0.1-0.6 0.1-1.5 0-2.1-0.1-0.6-0.3-1.4-0.7-1.8-1.2-0.3-0.2-0.4-0.4-0.6-0.6q-0.2-0.2-0.2-0.3c0 0 0.5-0.5 0.6-0.5q0 0 0.2 0.2 0.3 0.2 0.6 0.3c0.5 0.3 1.2 0.5 1.7 0.7 0.4 0.1 1.1 0.4 1.7 0.4 0.2 0.1 0.5 0.1 0.7 0.1q0.2 0 0.3 0c0 0.1 0.1 0.7 0.1 0.8z"/>
			</g>
			<g id="&lt;Group&gt;">
				<path id="&lt;Path&gt;" class="s12" d="m1508.7 857.5c0 0-2.5-10.3-3.9-16.9-1.4-6.7-3.2-17.1-3.2-17.1 0-0.4 0.7-0.5 0.8-0.1 0 0 2.4 10.2 3.8 16.9 1.4 6.6 3.2 17 3.2 17 0 0.4-0.6 0.5-0.7 0.2z"/>
			</g>
			<g id="&lt;Group&gt;">
				<path id="&lt;Path&gt;" class="s12" d="m1519.9 859.2c0 0 0.1-0.7 0.2-1.8q0-0.9 0.1-2 0-1.2 0-2.6c0.1-3.6-0.1-8.2-0.2-11.7-0.1-3.6-0.1-8.1-0.1-11.8-0.1-1.9 0-3.5 0-4.6 0-1.2 0-1.9 0-1.9 0-0.3 0.7-0.3 0.8 0 0 0 0 0.7 0 1.9 0.1 1.1 0.2 2.7 0.2 4.6 0.2 3.6 0.5 8.2 0.6 11.7 0 3.6 0 8.2-0.2 11.9q-0.1 1.3-0.2 2.5-0.1 1.2-0.2 2.1c-0.1 1.1-0.2 1.8-0.2 1.8-0.1 0.4-0.7 0.3-0.8-0.1z"/>
			</g>
			<g id="&lt;Group&gt;">
				<path id="&lt;Path&gt;" class="s12" d="m1533.3 859.2c0 0 1.4-10 2.4-16.4 1.1-6.4 3.1-16.3 3.1-16.3 0.1-0.4 0.8-0.2 0.8 0.1 0 0-1.4 10-2.4 16.4-1.1 6.4-3.1 16.3-3.1 16.3-0.2 0.4-0.8 0.3-0.8-0.1z"/>
			</g>
			<g id="&lt;Group&gt;">
				<path id="&lt;Path&gt;" class="s12" d="m1546.8 859.2c0 0 2.9-9.2 5-15 2.1-5.8 5.7-14.7 5.7-14.7 0.1-0.3 0.7-0.1 0.7 0.2 0 0-3 9.2-5.1 15-2.1 5.8-5.6 14.7-5.6 14.7-0.2 0.3-0.8 0.1-0.7-0.2z"/>
			</g>
			<g id="&lt;Group&gt;">
				<path id="&lt;Path&gt;" class="s12" d="m1515.5 766c0 0-0.7-0.9-0.6-1.4 0-0.3 0.3-0.7 0.5-0.9 0.2-0.3 0.5-0.4 0.5-0.4 0 0 1.3 0.4 1.4 0.5 0 0 0.5 0.8 0.4 1.1 0 0.4-0.7 1.1-0.7 1.1-0.2 0-1.4 0-1.5 0z"/>
			</g>
			<g id="&lt;Group&gt;">
				<path id="&lt;Path&gt;" class="s12" d="m1528.3 771.1c0 0-1-1-1.2-1.7-0.1-0.3 0-0.7 0-1.1 0-0.3 0-0.6 0-0.6 0.1-0.1 1.2-0.9 1.3-0.9 0 0 0.3 0.3 0.7 0.6 0.3 0.4 0.6 0.8 0.8 1.2 0.2 0.9-0.2 2.1-0.2 2.1-0.1 0.1-1.3 0.4-1.4 0.4z"/>
			</g>
			<g id="&lt;Group&gt;">
				<path id="&lt;Path&gt;" class="s12" d="m1516.2 774.4c0 0.1-0.3-1.2 0.2-1.8 0.2-0.2 0.6-0.4 0.9-0.5 0.3-0.1 0.6-0.1 0.6-0.1 0 0 1 1 1 1.1 0 0 0 0.2 0 0.5-0.1 0.3-0.1 0.6-0.2 0.8-0.3 0.2-1.1 0.5-1.1 0.5-0.2 0-1.3-0.4-1.4-0.5z"/>
			</g>
			<g id="&lt;Group&gt;">
				<path id="&lt;Path&gt;" class="s12" d="m1508 771.5c0 0 0.5-0.9 0.8-1.1 0.3-0.2 1.1 0.1 1.2 0 0 0.1 1 1 1 1.1 0 0-0.3 1.2-0.9 1.4-0.5 0.3-1.4 0-1.4 0-0.1-0.2-0.7-1.3-0.7-1.4z"/>
			</g>
			<g id="&lt;Group&gt;">
				<path id="&lt;Path&gt;" class="s12" d="m1529.4 761.8c-0.1 0-0.9 0.2-1.2 0.1-0.4-0.2-1-1.1-1-1.1l0.5-1.4c0 0 1-0.4 1.6-0.1 0.3 0.1 0.7 0.5 0.9 0.8 0.2 0.4 0.2 0.7 0.2 0.7 0 0.1-0.9 1-1 1z"/>
			</g>
			<g id="&lt;Group&gt;">
				<path id="&lt;Path&gt;" class="s12" d="m1538.2 773.2c0 0-0.4-1.1-0.2-1.7 0.2-0.6 1.2-1.4 1.2-1.4 0 0 1.3 0.4 1.4 0.5 0 0 0.3 1.1 0.2 1.7-0.2 0.6-1.1 1.3-1.1 1.3-0.2 0-1.4-0.3-1.5-0.4z"/>
			</g>
			<g id="&lt;Group&gt;">
				<path id="&lt;Path&gt;" class="s12" d="m1539.7 762.2c0 0-0.3 0-0.7-0.1-0.4-0.1-0.8-0.4-1.1-0.7-0.2-0.3-0.4-0.8-0.3-1.3 0-0.4 0-0.7 0-0.7l1.4-0.5c0 0 0.3 0.2 0.5 0.3 0.3 0.2 0.6 0.3 0.7 0.5 0.2 0.1 0.2 0.5 0.2 0.8 0.1 0.3 0.2 0.5 0.2 0.5-0.1 0.1-0.8 1.2-0.9 1.2z"/>
			</g>
			<g id="&lt;Group&gt;">
				<path id="&lt;Path&gt;" class="s12" d="m1548.2 771.1c0 0-1-0.8-1.1-1.5-0.1-0.4 0-0.9 0.1-1.3 0.2-0.4 0.3-0.7 0.3-0.7 0.1-0.1 1.5-0.1 1.5 0 0 0 0.2 0.2 0.4 0.5 0.2 0.3 0.4 0.6 0.5 0.9 0.1 0.5-0.3 1.8-0.3 1.8-0.1 0-1.3 0.3-1.4 0.3z"/>
			</g>
			<g id="&lt;Group&gt;">
				<path id="&lt;Path&gt;" class="s12" d="m1539.5 808.6c0 0-0.6 0.4-1 0.4-0.3 0-0.9-0.4-0.9-0.4-0.1 0-0.1-0.7 0-0.7 0 0 0.6-0.4 0.9-0.4 0.4 0 1 0.4 1 0.4 0.1 0.1 0.1 0.7 0 0.7z"/>
			</g>
			<g id="&lt;Group&gt;">
				<path id="&lt;Path&gt;" class="s12" d="m1567.4 801.1c0 0 0.2 0.3 0.2 0.7 0.1 0.4 0 1-0.3 1.4-0.4 0.4-1 0.6-1.4 0.5-0.2 0.1-0.4 0-0.5 0q-0.2 0-0.2 0c0-0.1 0-0.8 0-0.8 0 0 0.3-0.1 0.5-0.2 0.2-0.1 0.4-0.4 0.5-0.5 0-0.1 0.2-0.3 0.3-0.5 0.1-0.3 0.2-0.5 0.2-0.5 0.1-0.1 0.7-0.1 0.7-0.1z"/>
			</g>
			<g id="&lt;Group&gt;">
				<path id="&lt;Path&gt;" class="s12" d="m1563.7 808.4c0 0-0.4 0.4-0.9 0.8-0.6 0.4-1.5 0.8-2.4 0.6-0.4-0.1-0.9-0.5-1.2-0.8-0.2-0.4-0.4-0.8-0.4-1.2-0.2-0.6-0.2-1.1-0.2-1.1 0-0.1 0.7-0.2 0.8-0.2 0 0 0.1 0.5 0.4 1 0.1 0.2 0.3 0.4 0.5 0.6q0.2 0.2 0.5 0.3c0.3 0.1 0.9 0 1.5-0.2 0.5-0.2 0.9-0.4 0.9-0.4 0.1 0.1 0.5 0.5 0.5 0.6z"/>
			</g>
			<g id="&lt;Group&gt;">
				<path id="&lt;Path&gt;" class="s13" d=""/>
			</g>
			<g id="&lt;Group&gt;">
				<path id="&lt;Path&gt;" class="s14" d="m1514 759.1c0 0-0.4-0.1-1-0.4-0.7-0.2-1.5-0.6-2.5-1.2-0.9-0.6-1.9-1.3-2.7-2.3-0.9-1-1.5-2.2-1.5-3.4-0.2-1.2 0.3-2.8 1.4-3.6 1.1-0.9 2.3-1.3 3.4-1.4 0.6-0.2 1.1-0.1 1.6-0.1 0.4-0.1 0.9 0 1.2 0 0.7 0.1 1.1 0.2 1.1 0.2 0.2 0 0.1 0.7-0.1 0.7 0 0-0.4 0-1 0q-0.6 0-1.2 0c-0.4 0.1-0.9 0.1-1.4 0.2-1 0.2-2 0.7-2.7 1.3-0.8 0.7-1 1.7-0.9 2.5 0 1.8 1.8 3.9 3.4 5 0.9 0.6 1.6 1.1 2.2 1.4 0.6 0.3 1 0.4 1 0.4 0.1 0.2-0.1 0.8-0.3 0.7z"/>
			</g>
			<g id="&lt;Group&gt;">
				<path id="&lt;Path&gt;" class="s14" d="m1528.3 739.3q0 0-0.4 0.2c-0.3 0.1-0.7 0.1-1.1 0.3-0.9 0.3-1.7 1-2.2 1.6-0.5 0.6-0.9 1.6-1.1 2.5-0.1 0.4-0.1 0.8-0.1 1.1q0 0.5 0 0.5c-0.1 0.1-0.8 0.1-0.8 0 0 0 0-0.2-0.1-0.5 0-0.3-0.1-0.7-0.1-1.2 0-1.1 0.4-2.4 1.1-3.3 0.7-0.8 1.9-1.6 3-1.7 0.5-0.2 0.9-0.1 1.2-0.2q0.6 0 0.6 0c0.1 0 0.1 0.7 0 0.7z"/>
			</g>
			<g id="&lt;Group&gt;">
				<path id="&lt;Path&gt;" class="s14" d="m1510.9 782.8c0 0-0.3 0-0.7 0-0.4 0-1 0-1.7-0.1-0.7-0.1-1.4-0.3-2.1-0.7-0.7-0.4-1.3-0.8-1.8-1.4-1-1-1.5-2.9-1.2-4.3 0.1-0.7 0.2-1.3 0.4-1.7 0.2-0.3 0.3-0.6 0.3-0.6 0-0.1 0.7 0.2 0.7 0.3 0 0-0.1 0.2-0.2 0.6-0.1 0.4-0.2 0.9-0.1 1.5-0.1 1.2 0.5 2.5 1.2 3.3 0.3 0.4 0.8 0.8 1.3 1.2 0.6 0.3 1.2 0.6 1.8 0.8 0.5 0.2 1.1 0.2 1.5 0.3 0.3 0.1 0.6 0.1 0.6 0.1 0.1 0.1 0.1 0.7 0 0.7z"/>
			</g>
			<g id="&lt;Group&gt;">
				<path id="&lt;Path&gt;" class="s14" d="m1522.7 781q0 0-0.4 0.1c-0.3 0-0.7 0.1-1.1 0.2-0.9 0.2-2 0.7-2.9 0.9-0.9 0.2-2.1 0.5-3.1 0.5-0.5 0-0.9-0.1-1.2-0.1-0.3-0.1-0.5-0.1-0.5-0.1-0.1 0 0-0.7 0.1-0.7q0 0 0.4-0.1c0.3 0 0.7 0 1.1-0.1 0.9-0.2 2-0.6 2.8-0.8 0.9-0.2 2.1-0.5 3.1-0.6q0.7 0 1.2 0c0.3 0 0.5 0 0.5 0 0.1 0.1 0.1 0.7 0 0.8z"/>
			</g>
		</g>
	</g>
</svg>