<svg version="1.2" xmlns="http://www.w3.org/2000/svg" viewBox="0 0 1669 908" width="1669" height="908">
	<title>event-bg-svg</title>
	<style>
		.s0 { fill: #004b41 } 
		.s1 { fill: #bc9662 } 
	</style>
	<path id="&lt;Path&gt;" class="s0" d="m1296.9 306.8c-10.1 2.1-20.2 3.4-30.6 1-19.9-4.6-38.5-18.9-46.2-40.4-29.7-83.1 64.1-86.7 157.8-157.8 48.7-36.9 131-105.5 197-61 34.3 23.1 47.5 73.7 49.8 113.8 2.5 42.6-7.5 85.3-29.4 118.7-28.6 43.7-77.8 70.9-129.3 61.9-25.3-4.4-49.2-16.6-73.4-26.7-15.3-6.4-30.9-12-46.8-14.4-17.5-2.6-32.2 1.5-48.9 4.9z"/>
	<path id="&lt;Path&gt;" class="s0" d="m248.4 168.6c5.4-1.7 10.6-3.8 15-7.6 8.3-7.4 13.7-18.9 12-30.9-6.4-46.2-51.7-74-114.3-82-32.5-4.1-91.8 22.2-110.2 74.9-7.5 21.4-4.5 46.6 4.4 65.7 9.4 20.4 24.9 37.4 43.7 47 24.6 12.7 54.9 12.2 77.4-5.6 11-8.7 19.4-20.7 28.5-31.8 5.7-6.9 11.8-13.7 18.9-19 7.7-5.8 15.8-7.9 24.6-10.7z"/>
	<path id="&lt;Path&gt;" class="s0" d="m875.2 626.2c-9.7 2.3-19.2 5.2-27.3 11-15.5 11.1-25.8 29-23.6 48.1 8.6 73.5 88 120.5 199.8 137.4 58.1 8.9 166.1-28.7 202.5-110.7 14.8-33.5 11-73.4-3.7-104.3-15.6-32.8-42.2-60.8-75.3-77.4-43.4-21.6-97.8-23-139.2 3.6-20.3 13-36.3 31.4-53.3 48.3-10.7 10.6-22 20.8-35 28.8-14.3 8.6-28.9 11.3-44.9 15.2z"/>
	<g id="OBJECTS 1">
		<g id="&lt;Group&gt;">
			<g id="&lt;Group&gt;">
				<g id="&lt;Group&gt;">
					<path id="&lt;Path&gt;" class="s1" d="m1429.4 516.1c1.6 0 1.6-2.5 0-2.5-1.6 0-1.6 2.5 0 2.5z"/>
				</g>
			</g>
			<g id="&lt;Group&gt;">
				<g id="&lt;Group&gt;">
					<path id="&lt;Path&gt;" class="s1" d="m1412.9 516.9c1.5 0 1.5-2.3 0-2.3-1.5 0-1.5 2.3 0 2.3z"/>
				</g>
			</g>
			<g id="&lt;Group&gt;">
				<g id="&lt;Group&gt;">
					<path id="&lt;Path&gt;" class="s1" d="m1395.6 526.8c3.2 0 3.2-5 0-5-3.2 0-3.2 5 0 5z"/>
				</g>
			</g>
			<g id="&lt;Group&gt;">
				<g id="&lt;Group&gt;">
					<path id="&lt;Path&gt;" class="s1" d="m1431 499.7q0.3 0 0.7-0.1c1.5-0.1 2.8-1.1 2.8-2.7 0-1.3-1.3-2.9-2.8-2.7q-0.4 0-0.7 0.1c-1.5 0.2-2.7 1.1-2.7 2.7 0 1.4 1.2 2.6 2.7 2.6q0.3 0 0.7 0c3.5 0.1 3.5-5.4 0-5.4q-0.4 0-0.7 0c-1.5 0-2.8 1.3-2.8 2.8 0 1.3 1.3 2.9 2.8 2.7z"/>
				</g>
			</g>
			<g id="&lt;Group&gt;">
				<g id="&lt;Group&gt;">
					<path id="&lt;Path&gt;" class="s1" d="m1423.7 529.5c3.7 0 3.7-5.8 0-5.8-3.8 0-3.8 5.8 0 5.8z"/>
				</g>
			</g>
			<g id="&lt;Group&gt;">
				<g id="&lt;Group&gt;">
					<path id="&lt;Path&gt;" class="s1" d="m1414.7 504.7c3.9 0 3.9-6 0-6-3.9 0-3.9 6 0 6z"/>
				</g>
			</g>
		</g>
	</g>
</svg>