<svg version="1.2" xmlns="http://www.w3.org/2000/svg" viewBox="0 0 500 500" width="500" height="500">
	<title>event-svg</title>
	<style>
		.s0 { fill: #ebebeb } 
		.s1 { fill: #e0e0e0 } 
		.s2 { fill: #ffbe9d } 
		.s3 { fill: #eb996e } 
		.s4 { fill: #263238 } 
		.s5 { fill: #455a64 } 
		.s6 { fill: #ff81ae } 
		.s7 { fill: #000000 } 
		.s8 { fill: #ffffff } 
	</style>
	<g id="freepik--background-complete--inject-80">
		<path id="Layer" class="s0" d="m456.1 269.6c0 0-8.4-2.9-12.8 16.5-4.4 19.5-5.2 30.3-5.2 30.3 0 0-1.4 4.2-4.4 2.4-3.1-1.7-8.2-7.5-12.1-5.2-3.9 2.3-4.3 7.6-1.6 14.5 2.7 7 7.9 22.4 8.4 23.8 0.5 1.4 0.2 3.7-2.1 2.8-2.3-0.8-16.7-10.4-20.8-3.3-4.2 7.1 6.4 25.2 7.6 27.2 1.1 2 0.9 3 0 3.8-0.9 0.8-5.4-2.9-9.6-5.4-4.2-2.6-9.5-4.8-11.6-0.5-2 4.2 0.8 19.2 20.8 39.5l9.9 8.8 12.7-4c26.7-10.3 35.4-22.7 35.3-27.5-0.1-4.7-5.9-4.9-10.8-4.3-4.8 0.7-10.5 2.1-11 1-0.4-1-0.2-2.1 1.7-3.4 1.8-1.4 19-13.6 18.1-21.7-0.9-8.2-17.9-5.4-20.4-5.5-2.4-0.2-1.7-2.4-0.7-3.5 1-1 12.2-13 17.4-18.2 5.3-5.2 7.3-10.1 4.6-13.9-2.7-3.8-9.7-0.5-13.2-0.2-3.5 0.3-3-4.1-3-4.1 0 0 3.7-10.1 7.7-29.6 4-19.6-5.1-20.3-5.1-20.3"/>
		<path id="Layer" class="s1" d="m452.1 287q0 0.1 0 0.1 0 0.1 0 0.1 0 0.1 0 0.1 0 0.1 0 0.1c0 0.3-0.1 0.7-0.2 1.2q-0.4 1.6-1 4.7c-0.8 3.9-2 9.8-3.5 16.9-3 14.4-7.3 34.1-12.2 55.9-4.8 21.9-9.2 41.6-12.3 55.9-1.5 7.1-2.7 12.9-3.6 17q-0.7 3-1 4.6-0.2 0.8-0.3 1.2 0 0.1 0 0.1 0 0.1 0 0.1 0 0.1-0.1 0.1 0 0.1 0 0.1c0 0 0-0.1 0.1-0.4 0-0.3 0.1-0.7 0.2-1.2q0.3-1.6 0.9-4.6c0.8-4 2-9.9 3.5-17 3-14.4 7.4-34.1 12.2-55.9 4.9-21.9 9.3-41.6 12.3-55.9 1.6-7.2 2.8-12.9 3.7-17q0.6-3 1-4.6 0.2-0.7 0.2-1.2 0.1-0.4 0.1-0.4z"/>
		<path id="Layer" class="s1" d="m428.4 322q0.1 0.1 0.1 0.2 0.1 0.1 0.2 0.2 0.1 0.1 0.1 0.2 0.1 0.1 0.1 0.2c0.4 0.5 0.8 1.3 1.4 2.2 1.1 1.9 2.5 4.6 4.1 7.6 1.6 2.9 2.9 5.6 4 7.6q0.7 1.4 1.2 2.3 0.1 0.1 0.1 0.2 0.1 0.1 0.1 0.2 0.1 0.1 0.1 0.2 0.1 0.2 0.1 0.3-0.1-0.1-0.1-0.2-0.1-0.1-0.2-0.2 0-0.1-0.1-0.2-0.1-0.1-0.1-0.2-0.5-0.8-1.4-2.3c-1-1.9-2.5-4.6-4-7.5-1.6-3-3-5.6-4-7.6l-1.3-2.3q0-0.1-0.1-0.2 0-0.1-0.1-0.3-0.1-0.1-0.1-0.2-0.1-0.1-0.1-0.2z"/>
		<path id="Layer" class="s1" d="m441.2 343.3c0-0.1 5.3-3.4 12-7.3 6.7-3.9 12.2-7 12.2-6.9 0.1 0.1-5.3 3.4-12 7.3-6.7 3.9-12.1 7-12.2 6.9z"/>
		<path id="Layer" class="s1" d="m432.3 376.5q0.1-0.1 0.2-0.1 0.1-0.1 0.2-0.1 0.1 0 0.3-0.1 0.1 0 0.2 0l2.6-0.7c2.1-0.5 5.1-1.3 8.4-2.3 3.3-0.9 6.3-2 8.4-2.7l2.5-0.8q0.1 0 0.2-0.1 0.1 0 0.3-0.1 0.1 0 0.2 0 0.1-0.1 0.2-0.1-0.1 0.1-0.2 0.1-0.1 0.1-0.2 0.2-0.1 0-0.2 0.1-0.1 0-0.3 0-0.8 0.4-2.4 1c-2.1 0.8-5 1.9-8.4 2.8-3.3 1-6.3 1.7-8.5 2.2-1.1 0.3-2 0.4-2.6 0.5q-0.1 0.1-0.2 0.1-0.1 0-0.3 0-0.1 0-0.2 0-0.1 0.1-0.2 0.1z"/>
		<path id="Layer" class="s1" d="m416.4 359.8q0.1 0 0.2 0.1 0.1 0 0.2 0.1 0.1 0.1 0.1 0.2 0.1 0.1 0.2 0.1l1.8 1.8c1.4 1.4 3.5 3.5 5.7 5.7 2.2 2.3 4.2 4.4 5.6 5.9l1.6 1.8q0.1 0.1 0.2 0.2 0.1 0 0.1 0.1 0.1 0.1 0.2 0.2 0 0.1 0.1 0.2-0.1-0.1-0.2-0.1-0.1-0.1-0.2-0.2 0-0.1-0.1-0.1-0.1-0.1-0.2-0.2l-1.7-1.7c-1.5-1.5-3.5-3.5-5.7-5.8-2.2-2.3-4.2-4.3-5.6-5.8l-1.7-1.9q-0.1 0-0.2-0.1 0-0.1-0.1-0.2-0.1-0.1-0.2-0.2 0-0.1-0.1-0.2z"/>
		<path id="Layer" class="s1" d="m404.8 388q0.1 0.1 0.2 0.2 0.1 0.1 0.2 0.2 0.1 0.1 0.2 0.2 0.2 0.1 0.2 0.2l2.3 2.1c1.9 1.9 4.5 4.5 7.4 7.4 2.8 2.9 5.4 5.5 7.2 7.4l2.2 2.3q0.1 0.1 0.2 0.2 0.1 0.1 0.2 0.2 0.1 0.1 0.2 0.2 0.1 0.2 0.2 0.3-0.1-0.1-0.3-0.2-0.1-0.1-0.2-0.2-0.1-0.1-0.2-0.2-0.1-0.1-0.2-0.2l-2.3-2.2c-1.9-1.9-4.5-4.4-7.3-7.3-2.9-2.9-5.4-5.5-7.3-7.4l-2.2-2.3q-0.1-0.1-0.2-0.2-0.1-0.1-0.2-0.2-0.1-0.2-0.1-0.3-0.1-0.1-0.2-0.2z"/>
		<path id="Layer" class="s1" d="m425.1 408.3q0.2-0.1 0.3-0.2 0.2 0 0.3-0.1 0.2 0 0.3-0.1 0.1 0 0.3 0l3.2-1c2.8-0.8 6.5-1.9 10.7-3.2 4.1-1.4 7.8-2.7 10.5-3.7l3.2-1.1q0.1-0.1 0.3-0.2 0.1 0 0.3-0.1 0.1 0 0.2-0.1 0.2 0 0.4 0-0.2 0-0.3 0.1-0.2 0.1-0.3 0.2-0.1 0-0.3 0.1-0.1 0-0.3 0.1c-0.7 0.3-1.8 0.7-3.1 1.3-2.6 1-6.4 2.4-10.5 3.7-4.1 1.4-7.9 2.4-10.7 3.2-1.4 0.3-2.5 0.6-3.3 0.8q-0.1 0-0.2 0.1-0.2 0-0.4 0-0.1 0.1-0.3 0.1-0.1 0-0.3 0z"/>
		<path id="Layer" class="s1" d="m375.9 171.3c7.5 2.5 12.4-6.1 12.4-6.1l-4.6-2.7c-2.3 5.3-9.8 4.5-9.8 4.5z"/>
		<path id="Layer" class="s1" d="m438.6 145.7c0.5 7.9 10.2 9.3 10.2 9.3l0.9-5.2c-5.8-0.3-7.8-7.5-7.8-7.5z"/>
		<path id="Layer" class="s1" d="m86.3 248.7c-2.3-4.9-8.9-3.4-8.9-3.4l0.7 3.5c3.8-1.2 6.9 3 6.9 3z"/>
		<path id="Layer" class="s1" d="m317.9 96.5c-2.2-4.9-8.8-3.4-8.8-3.4l0.7 3.6c3.7-1.3 6.8 2.9 6.8 2.9z"/>
		<path id="Layer" class="s1" d="m420.9 44.6c-2.2-5-8.8-3.5-8.8-3.5l0.7 3.6c3.7-1.3 6.8 2.9 6.8 2.9z"/>
		<path id="Layer" class="s1" d="m257.1 70.4c-1.5-3.3-6-2.3-6-2.3l0.5 2.4c2.5-0.8 4.6 2 4.6 2z"/>
		<path id="Layer" class="s1" d="m155.6 80.2c-3.6 0.9-3.3 5.5-3.3 5.5l2.4-0.1c-0.4-2.7 2.8-4.2 2.8-4.2z"/>
		<path id="Layer" class="s1" d="m47.1 158.8c0-3.7-4.5-4.6-4.5-4.6l-0.5 2.4c2.7 0.3 3.4 3.7 3.4 3.7z"/>
		<path id="Layer" class="s1" d="m367.9 107.6c9.7 3.2 16-7.9 16-7.9l-5.9-3.5c-3 6.8-12.7 5.8-12.7 5.8z"/>
		<path id="Layer" class="s1" d="m111 59.1c9.6 3.2 15.9-7.9 15.9-7.9l-5.8-3.5c-3 6.8-12.7 5.8-12.7 5.8z"/>
		<path id="Layer" class="s1" d="m91.3 96.5c-2.2-4.9-8.8-3.4-8.8-3.4l0.7 3.6c3.8-1.3 6.9 2.9 6.9 2.9z"/>
		<path id="Layer" class="s1" d="m81.8 207.6c-3.5-9.4-16.3-5.5-16.3-5.5l0.9 6.8c7.3-3 12.6 4.8 12.6 4.8z"/>
		<path id="Layer" class="s1" d="m318.6 227.9c-4.3-9.5-16.9-6.6-16.9-6.6l1.3 6.8c7.2-2.4 13.1 5.6 13.1 5.6z"/>
		<path id="Layer" class="s1" d="m249.1 123.3c0-3.7-4.5-4.6-4.5-4.6l-0.6 2.4c2.7 0.3 3.4 3.7 3.4 3.7z"/>
		<path id="Layer" class="s1" d="m311.7 160.8c0-3.6-4.5-4.6-4.5-4.6l-0.6 2.4c2.7 0.3 3.5 3.8 3.5 3.8z"/>
		<path id="Layer" class="s1" d="m273.3 236.8c0-3.7-4.5-4.6-4.5-4.6l-0.5 2.4c2.6 0.2 3.4 3.7 3.4 3.7z"/>
		<path id="Layer" class="s1" d="m437.6 209c0-3.7-4.6-4.6-4.6-4.6l-0.5 2.4c2.7 0.3 3.4 3.7 3.4 3.7z"/>
	</g>
	<g id="freepik--Character--inject-80">
		<path id="Layer" class="s2" d="m434.2 241.9c-1.4-1.5-0.8-1-13.6 6.9 0 0 18.2-11.3 12.3-12-1-0.1-4 1.3-7.3 3 4.5-3.2 5.9-5.5 5.2-6.7-1.1-2.1-12.2 4.1-17.3 7.1 4.2-2.5 12.2-7.5 13.6-9.1 2-2.2-1.6-2.4-4.6-1.7-3.5 0.8-22.7 8.4-28.4 10.3-3.9 1.3-4.8-2.2-4.8-2.2-1.2-8.5-6.8-14.6-9-15.5-2.3-1-4.4 1.8-2.9 4.1 1.2 1.9 2.2 5.5 2.8 8.3q0.2 0.9 0.3 1.8 0.1 0.8 0.2 1.7 0.1 0.9 0 1.8 0 0.9-0.1 1.7c-0.3 2.7-6.2 14-8.6 15.9l23.1 20.2c0 0 26.5-22.5 31.6-26.7 6.3-5.2 8.6-7.7 7.5-8.9z"/>
		<path id="Layer" class="s3" d="m414.2 252.1c0.3 0.4 4.7-2.1 9.9-5.5 5.3-3.3 9.4-6.4 9.1-6.7-0.2-0.4-4.6 2.1-9.9 5.5-5.2 3.3-9.3 6.4-9.1 6.7z"/>
		<path id="Layer" class="s3" d="m410.4 247.1c0.2 0.3 5-2 10.9-5.3 5.8-3.2 10.3-6.2 10.1-6.6-0.2-0.3-5.1 2-10.9 5.3-5.8 3.3-10.3 6.2-10.1 6.6z"/>
		<path id="Layer" class="s3" d="m406.4 241.8c0.2 0.4 4.8-1.8 10.4-4.8 5.5-3 9.8-5.8 9.6-6.1-0.2-0.4-4.8 1.7-10.4 4.8-5.5 3-9.8 5.7-9.6 6.1z"/>
		<path id="Layer" class="s4" d="m293.8 302.2l71.6-51.5 32.3 28.8-63 58.1c-25 22.7-33.8 28.4-75.2 4.8l-26.4-15.1 9.8 120.1h-119.1c-13.1-0.4 17-33.3 15-33.3l-26.2-88.1-40.4 27.1 38.3 30-18.7 39.6-60.9-37.2c-23.8-15.7-20.6-46.5-0.3-66.6 36.5-36.1 63.9-61.4 95.1-66.7q3-0.7 6-1.3 2.9-0.5 5.9-1 3-0.5 6.1-0.9 3-0.4 6-0.8c2-0.2 23.1-3.1 39.1-2.5q1.5 0 2.9 0.1 1.4 0.1 2.9 0.3 1.4 0.1 2.8 0.3 1.4 0.2 2.8 0.4 5.5 0.8 10.9 2.3 5.3 1.4 10.4 3.5 5.2 2.2 10 4.9 4.8 2.7 9.3 6z"/>
		<path id="Layer" class="s5" d="m118.4 343.3q-0.1-0.1-0.1-0.1 0-0.1-0.1-0.2 0 0 0-0.1 0 0 0-0.1l-0.5-1.3c-0.4-1.1-1-2.7-1.7-4.7-1.4-4.1-3.2-9.6-5.3-15.8-2.1-6.1-4.1-11.6-5.6-15.6l-1.8-4.7q-0.3-0.7-0.5-1.3 0 0 0-0.1 0 0 0-0.1-0.1-0.1-0.1-0.1 0-0.1 0-0.1 0 0 0.1 0.1 0 0 0 0.1 0.1 0 0.1 0.1 0 0 0 0.1 0.3 0.5 0.6 1.2c0.5 1.1 1.2 2.7 2 4.7 1.6 4 3.6 9.4 5.7 15.6 2.1 6.1 3.9 11.7 5.2 15.8l1.5 4.8q0.2 0.8 0.4 1.3 0 0 0 0.1 0 0.1 0.1 0.1 0 0.1 0 0.1 0 0.1 0 0.2z"/>
		<path id="Layer" class="s5" d="m198.4 266.6q0 0.1 0 0.2 0 0 0 0.1 0 0 0 0.1 0 0.1 0 0.1 0 0.6 0 1.5 0 0.4 0 1c0 0.3-0.1 0.8-0.1 1.2q-0.1 0.4-0.1 0.7 0 0.4-0.1 0.8-0.1 0.4-0.1 0.7-0.1 0.4-0.1 0.8-0.2 0.8-0.4 1.7c-0.1 0.6-0.3 1.2-0.5 1.8q-0.1 0.5-0.3 1-0.1 0.5-0.3 1-0.2 0.5-0.3 1-0.2 0.5-0.4 1-0.9 2.2-2.1 4.3-1.1 2.1-2.5 4-1.3 2-2.9 3.8-1.6 1.8-3.4 3.4-0.4 0.3-0.8 0.7-0.4 0.3-0.8 0.6-0.4 0.4-0.8 0.7-0.4 0.3-0.9 0.6c-0.5 0.4-1 0.8-1.5 1.1l-1.5 0.9q-0.3 0.2-0.6 0.4-0.4 0.2-0.7 0.3-0.3 0.2-0.7 0.4-0.3 0.1-0.6 0.3-0.6 0.3-1.1 0.5l-1 0.4-1.4 0.5q0 0-0.1 0.1 0 0-0.1 0-0.1 0-0.1 0-0.1 0-0.2 0.1 0.1-0.1 0.2-0.1 0 0 0.1-0.1 0 0 0.1 0 0-0.1 0.1-0.1l1.3-0.6 0.9-0.4c0.4-0.2 0.7-0.4 1.1-0.6q0.3-0.1 0.7-0.3 0.3-0.2 0.6-0.4 0.3-0.1 0.6-0.3 0.4-0.2 0.7-0.4l1.4-1c0.5-0.3 1-0.7 1.6-1.1 1-0.7 2-1.6 3.1-2.6q1.8-1.6 3.3-3.3 1.6-1.8 3-3.7 1.3-2 2.5-4.1 1.1-2 2-4.2c0.5-1.4 1-2.7 1.4-3.9 0.1-0.6 0.3-1.2 0.5-1.8q0.2-0.9 0.4-1.7 0-0.4 0.1-0.7 0.1-0.4 0.1-0.7 0.1-0.4 0.1-0.8 0.1-0.4 0.1-0.7 0.1-0.7 0.2-1.2 0.1-0.6 0.1-1c0-0.6 0.1-1 0.1-1.5q0 0 0-0.1 0 0 0-0.1 0-0.1 0.1-0.1 0-0.1 0-0.2z"/>
		<path id="Layer" class="s5" d="m227.9 291.2c0.1 0 1.4 8.4 2.9 18.7 1.5 10.4 2.6 18.8 2.4 18.8-0.1 0-1.4-8.3-2.9-18.7-1.5-10.3-2.5-18.7-2.4-18.8z"/>
		<path id="Layer" class="s5" d="m73.7 353.3c0 0.1-1.9-0.7-5-1.2q-0.3-0.1-0.7-0.1-0.3-0.1-0.6-0.1-0.3 0-0.6-0.1-0.3 0-0.7 0c-0.9-0.1-1.9-0.1-2.9-0.1q-0.8 0-1.7 0-0.8 0.1-1.6 0.2-0.9 0.1-1.7 0.2-0.8 0.2-1.7 0.3-0.8 0.2-1.6 0.5-0.8 0.2-1.6 0.5-0.8 0.2-1.6 0.5-0.8 0.3-1.5 0.7c-1 0.4-1.9 0.8-2.6 1.3q-0.3 0.2-0.6 0.3-0.3 0.2-0.5 0.4-0.3 0.2-0.6 0.3-0.2 0.2-0.5 0.4c-2.6 1.8-3.9 3.2-4 3.1q0.1-0.1 0.2-0.2 0.1-0.1 0.2-0.3 0.2-0.1 0.3-0.2 0.1-0.1 0.2-0.3 0.2-0.1 0.3-0.2 0.1-0.2 0.3-0.3 0.1-0.2 0.3-0.3 0.2-0.1 0.3-0.3 0.2-0.1 0.4-0.3 0.2-0.2 0.4-0.4 0.3-0.1 0.5-0.3 0.2-0.1 0.4-0.3 0.3-0.2 0.6-0.4 0.2-0.2 0.5-0.4 0.3-0.1 0.5-0.3 0.3-0.2 0.6-0.3c0.8-0.6 1.7-1 2.6-1.5q0.8-0.3 1.6-0.6 0.8-0.4 1.6-0.6 0.8-0.3 1.6-0.5 0.8-0.3 1.7-0.5 0.8-0.2 1.6-0.3 0.9-0.1 1.7-0.2 0.9-0.1 1.7-0.2 0.9 0 1.7 0c1 0 2 0 3 0.1q0.4 0.1 0.7 0.1 0.3 0.1 0.6 0.1 0.4 0 0.7 0.1 0.3 0.1 0.6 0.1c0.8 0.1 1.5 0.4 2.1 0.5q0.2 0.1 0.4 0.1 0.2 0.1 0.4 0.2 0.2 0 0.4 0.1 0.1 0.1 0.3 0.1 0.2 0.1 0.4 0.1 0.1 0.1 0.3 0.2 0.1 0 0.3 0.1 0.1 0.1 0.3 0.2z"/>
		<path id="Layer" class="s5" d="m295.5 325.8q-0.1-0.1-0.2-0.2-0.1-0.1-0.1-0.2-0.1-0.1-0.2-0.2 0-0.1-0.1-0.2-0.1-0.3-0.3-0.6-0.1-0.3-0.3-0.6-0.1-0.3-0.3-0.7-0.1-0.3-0.2-0.6-0.2-0.5-0.4-0.9-0.1-0.5-0.3-1-0.1-0.5-0.2-1-0.2-0.5-0.3-1-0.2-1.2-0.4-2.4-0.2-1.2-0.2-2.5 0-1.2 0-2.4 0.1-1.3 0.3-2.5 0.1-0.5 0.1-1 0.1-0.5 0.2-1 0.2-0.5 0.3-1 0.1-0.5 0.3-0.9 0.1-0.4 0.2-0.7 0.1-0.3 0.2-0.6 0.1-0.3 0.2-0.7 0.2-0.3 0.3-0.6 0.1-0.1 0.1-0.2 0.1-0.1 0.1-0.2 0.1-0.1 0.2-0.3 0-0.1 0.1-0.2c0.1 0-0.5 1.4-1.1 3.6q-0.1 0.4-0.2 0.9-0.1 0.5-0.2 1-0.1 0.5-0.2 1-0.1 0.5-0.1 1-0.1 0.6-0.2 1.2 0 0.6-0.1 1.2 0 0.6 0 1.2 0 0.6 0 1.2 0.1 0.6 0.1 1.2 0.1 0.6 0.1 1.2 0.1 0.7 0.2 1.3 0.1 0.6 0.2 1.1 0.1 0.5 0.2 1 0.1 0.5 0.2 1 0.2 0.5 0.3 0.9 0.1 0.5 0.3 1c0.8 2.1 1.4 3.4 1.4 3.4z"/>
		<path id="Layer" class="s4" d="m152.8 126c10-10.2 25.8-16.2 38.8-10.5 8.8 3.9 14.8 12.1 22.5 17.8 5.6 4.2 12.5 7.4 15.5 13.7 2.6 5.6 1.3 12.1 0.7 18.2-0.7 6.1-0.2 13.2 4.5 17.1 2.5 2.1 5.8 2.9 8.6 4.5 5.6 3.2 9 9.5 10.2 15.9 1.2 6.4 0.6 13-0.1 19.5l-26.9 5.1-4.4-7.4-1.5 11.6-34.4 3.1z"/>
		<path id="Layer" class="s2" d="m148.4 137.1l-0.1 7.5-2.1 112.2c-0.2 13 12.2 24.1 26.2 24.2 14 0.1 19.8-10.5 20.2-23.6 0.4-13.8 1.1-28.3 1.1-28.3 0 0 17.9-2.5 22.2-25.6 2.1-11.4 2.1-30.4 1.5-45.8-0.1-3.3-0.9-6.6-2.3-9.6-1.4-3-3.4-5.6-5.8-7.8-2.5-2.3-5.4-3.9-8.5-5-3.1-1-6.4-1.5-9.7-1.2z"/>
		<path id="Layer" class="s4" d="m209.6 170.6q0 0.5-0.3 1.1-0.2 0.5-0.6 0.9-0.4 0.4-1 0.6-0.5 0.3-1.1 0.3-0.5 0-1.1-0.2-0.5-0.2-1-0.6-0.4-0.4-0.6-0.9-0.3-0.5-0.3-1.1 0-0.6 0.3-1.1 0.2-0.5 0.6-0.9 0.5-0.5 1-0.7 0.5-0.2 1.1-0.2 0.6 0 1.1 0.2 0.6 0.2 1 0.6 0.4 0.4 0.6 0.9 0.3 0.5 0.3 1.1z"/>
		<path id="Layer" class="s4" d="m213.1 167.4c-0.4 0.3-2.6-1.4-5.8-1.5-3.2 0-5.6 1.5-6 1.1-0.1-0.2 0.3-0.9 1.3-1.6q0.5-0.3 1.1-0.6 0.6-0.2 1.2-0.4 0.6-0.2 1.2-0.3 0.6 0 1.3 0 0.6 0 1.2 0.1 0.6 0.1 1.2 0.3 0.6 0.2 1.1 0.5 0.6 0.3 1.1 0.7c0.9 0.8 1.2 1.5 1.1 1.7z"/>
		<path id="Layer" class="s4" d="m177.7 170.2q0 0.6-0.2 1.1-0.3 0.5-0.7 0.9-0.4 0.5-0.9 0.7-0.5 0.2-1.1 0.2-0.6 0-1.1-0.1-0.6-0.2-1-0.6-0.4-0.4-0.7-0.9-0.2-0.6-0.2-1.2 0-0.5 0.2-1.1 0.3-0.5 0.7-0.9 0.4-0.4 0.9-0.6 0.5-0.3 1.1-0.3 0.6 0 1.1 0.2 0.6 0.2 1 0.6 0.4 0.4 0.7 0.9 0.2 0.5 0.2 1.1z"/>
		<path id="Layer" class="s4" d="m181.6 167.1c-0.4 0.4-2.6-1.3-5.8-1.4-3.2-0.1-5.6 1.4-5.9 1-0.2-0.1 0.2-0.8 1.3-1.6q0.5-0.3 1.1-0.6 0.5-0.2 1.1-0.4 0.6-0.2 1.3-0.2 0.6-0.1 1.2-0.1 0.6 0 1.2 0.1 0.6 0.2 1.2 0.4 0.6 0.2 1.2 0.5 0.5 0.3 1 0.6c1 0.8 1.3 1.5 1.1 1.7z"/>
		<path id="Layer" class="s4" d="m192.6 191.2c0-0.2 2-0.5 5.2-0.8 0.8-0.1 1.6-0.2 1.7-0.8q0.1-0.3 0-0.6 0-0.3 0-0.7-0.1-0.3-0.2-0.6-0.1-0.3-0.3-0.5l-2.2-6.3c-3.1-9-5.3-16.3-5-16.4 0.3-0.2 3.2 7 6.3 16q1.1 3.3 2.1 6.3 0.2 0.4 0.3 0.8 0.1 0.3 0.2 0.8 0 0.4 0 0.8 0 0.4-0.1 0.8-0.1 0.2-0.3 0.4-0.1 0.2-0.3 0.3-0.2 0.2-0.4 0.3-0.2 0.1-0.4 0.2-0.2 0-0.4 0-0.1 0.1-0.3 0.1-0.2 0-0.4 0-0.1 0-0.3 0c-3.2 0.1-5.2 0-5.2-0.1z"/>
		<path id="Layer" class="s3" d="m193.7 229.1q-4.1-0.1-8.1-0.7-4-0.6-7.9-1.8-3.9-1.1-7.6-2.8-3.8-1.7-7.2-3.9c-2.3-1.4 7.1 16.2 30.4 14.6z"/>
		<path id="Layer" class="s3" d="m191 198.8q-0.4-0.6-1-1-0.6-0.5-1.3-0.8-0.6-0.3-1.4-0.4-0.7-0.1-1.4-0.1-0.5 0.1-1.1 0.2-0.5 0.1-0.9 0.4-0.5 0.2-0.9 0.6-0.4 0.3-0.8 0.7-0.3 0.4-0.5 0.9-0.2 0.4-0.3 0.9 0 0.5 0.1 1 0.1 0.5 0.3 1 0.4 0.4 0.9 0.7 0.5 0.4 1 0.5 0.6 0.2 1.2 0.2 0.6 0 1.1-0.2 0.6-0.2 1.1-0.5 0.6-0.2 1.1-0.5 0.5-0.3 1-0.6 0.5-0.4 1-0.8 0.1-0.1 0.2-0.2 0.2-0.1 0.3-0.2 0.1-0.1 0.2-0.2 0.1-0.1 0.2-0.3 0.1-0.1 0.1-0.3 0.1-0.1 0.1-0.3 0-0.1-0.1-0.3 0-0.1-0.1-0.3"/>
		<path id="Layer" class="s4" d="m183.1 193.1c0.5 0 0.4 3.5 3.3 6 2.9 2.5 6.6 2.3 6.6 2.8 0.1 0.2-0.8 0.6-2.4 0.6q-0.7 0-1.5-0.2-0.7-0.1-1.4-0.4-0.7-0.2-1.4-0.6-0.6-0.4-1.2-0.9-0.6-0.5-1-1-0.4-0.6-0.8-1.3-0.3-0.6-0.5-1.3-0.2-0.7-0.3-1.4c-0.1-1.5 0.3-2.3 0.6-2.3z"/>
		<path id="Layer" class="s4" d="m182.6 157.8c-0.3 0.9-3.5 0.4-7.3 0.7-3.7 0.4-6.8 1.3-7.3 0.5-0.2-0.4 0.4-1.2 1.6-2q0.6-0.4 1.3-0.7 0.6-0.3 1.3-0.5 0.7-0.2 1.4-0.4 0.7-0.1 1.5-0.1 0.7-0.1 1.4-0.1 0.7 0 1.4 0.1 0.7 0.1 1.4 0.3 0.7 0.2 1.4 0.5c1.4 0.6 2.1 1.3 1.9 1.7z"/>
		<path id="Layer" class="s4" d="m213.2 160.9c-0.7 0.7-3.4-0.1-6.6-0.2-3.2-0.2-6 0.3-6.6-0.5-0.3-0.4 0.2-1.1 1.4-1.7q0.6-0.3 1.3-0.6 0.6-0.2 1.3-0.3 0.7-0.1 1.4-0.2 0.7 0 1.4 0 0.7 0 1.4 0.2 0.6 0.1 1.3 0.3 0.7 0.2 1.3 0.4 0.6 0.3 1.2 0.7c1.1 0.8 1.5 1.6 1.2 1.9z"/>
		<path id="Layer" class="s4" d="m164.9 123.4c4.2 5.6 6.2 10 8.7 20 1.3 4.9-2.7 8.4-6.7 11.4q-0.6 0.5-1.4 0.6-0.9 0.1-1.6-0.2-0.8-0.3-1.3-0.9-0.6-0.6-0.8-1.4c0 0 1.4 15.4-4.1 22.3-2.6 3.2-2.7 7.3-2.1 10.8q0.2 1.3 0.7 2.6 0.5 1.3 1.1 2.5 0.6 1.2 1.4 2.3 0.8 1.1 1.8 2c6.4 6.8 8.2 17.8 3.8 26.1-1.2 2.2-2.7 4.1-3.6 6.3q-0.2 0.5-0.3 1-0.2 0.5-0.3 1-0.1 0.5-0.1 1.1 0 0.5 0 1 0 0.6-0.1 1.2-0.2 0.6-0.6 1.1-0.4 0.4-0.9 0.7-0.5 0.3-1.1 0.4-7.2 1.1-14.4 1.7-7.2 0.6-14.4 0.9-7.2 0.2-14.4 0-7.3-0.2-14.5-0.8-0.5-0.1-0.9-0.3-0.5-0.1-0.9-0.5-0.3-0.3-0.6-0.7-0.3-0.4-0.4-0.9c-1.5-6.4 1-13.3 4.2-19.2 3.6-6.5 8.2-12.8 9.4-20.2 1.2-6.9-0.7-14.4 2-20.8 3.5-7.9 12.7-11.7 17.4-19 4.4-6.8 4-15.8 8-23 5-9.1 17.5-13.3 27-9.2"/>
		<path id="Layer" class="s4" d="m166 131.9c7.3 3.8 10.7 12.7 17.7 16.8 6.5 3.8 14.5 2.8 21.9 1.7q-0.4-2.5-0.8-5 0.2 0.6 0.5 1.1 0.3 0.6 0.7 1.1 0.3 0.5 0.7 0.9 0.4 0.5 0.8 0.9 0.5 0.5 1 0.8 0.5 0.3 1.1 0.4 0.6 0.1 1.2 0.1 0.6 0 1.2-0.2c2.5-1 2.8-4.4 2.2-7q-0.4-1.5-1.1-3-0.6-1.5-1.4-2.9-0.8-1.4-1.8-2.6-1-1.3-2.1-2.4c-2.8-2.8-6-5.1-9.5-6.7-3.6-1.7-7.4-2.7-11.2-3-3.9-0.3-7.8 0.1-11.6 1.2-3.7 1-7.3 2.8-10.4 5.1"/>
		<path id="Layer" class="s4" d="m137.7 150.9q0.8-2.1 1-4.3 0.2-2.2-0.2-4.4-0.5-2.1-1.5-4.1-1.1-1.9-2.7-3.5-1.6-1.4-3.6-2.5-1.9-1-4.1-1.4-2.2-0.5-4.4-0.4-2.2 0.1-4.3 0.8-0.9 0.3-1.8 0.7-0.9 0.4-1.7 1-0.9 0.5-1.6 1.2-0.7 0.7-1.3 1.5c-2.8 3.9-2.3 9.7 0.6 13.5 3 3.9 7.9 5.9 12.7 6.2 4.9 0.3 9.7-1.1 14.1-2.9"/>
		<path id="Layer" class="s5" d="m129.8 151c0-0.1 1.4 1 3.8 2.4q0.5 0.3 1.1 0.5 0.5 0.3 1.1 0.5 0.5 0.3 1.1 0.5 0.6 0.2 1.1 0.4 0.7 0.2 1.4 0.4 0.8 0.2 1.5 0.4 0.7 0.2 1.4 0.3 0.8 0.1 1.5 0.2 0.7 0.1 1.5 0.1 0.7 0.1 1.5 0.1 0.7 0 1.5 0 0.7-0.1 1.4-0.1 0.6-0.1 1.2-0.2 0.6-0.1 1.2-0.2 0.6-0.1 1.2-0.2 0.6-0.2 1.2-0.3c2.7-0.8 4.2-1.6 4.3-1.5q-0.2 0.1-0.3 0.2-0.1 0.1-0.2 0.2-0.1 0.1-0.3 0.1-0.1 0.1-0.2 0.2-0.2 0-0.4 0.1-0.1 0.1-0.3 0.2-0.1 0-0.3 0.1-0.2 0.1-0.3 0.1-0.3 0.1-0.5 0.2-0.2 0.1-0.4 0.2-0.2 0.1-0.5 0.1-0.2 0.1-0.4 0.2-0.6 0.2-1.2 0.3-0.6 0.2-1.2 0.3-0.6 0.1-1.2 0.2-0.6 0.1-1.3 0.2-0.7 0.1-1.5 0.1-0.7 0-1.5 0-0.7 0-1.5 0-0.7 0-1.5-0.1-0.7-0.1-1.5-0.2-0.7-0.2-1.4-0.3-0.8-0.2-1.5-0.4-0.7-0.2-1.5-0.5-0.5-0.2-1.1-0.4-0.6-0.2-1.1-0.5-0.6-0.3-1.2-0.6-0.5-0.3-1-0.6-0.2-0.1-0.4-0.2-0.2-0.1-0.4-0.2-0.2-0.2-0.4-0.3-0.2-0.1-0.4-0.3-0.2-0.1-0.3-0.2-0.2-0.1-0.3-0.2-0.1-0.1-0.3-0.2-0.1-0.1-0.3-0.2-0.1-0.1-0.2-0.2-0.1-0.1-0.3-0.2-0.1-0.1-0.2-0.3-0.1-0.1-0.2-0.2z"/>
		<path id="Layer" class="s5" d="m159.7 164.4q-0.1 0-0.3 0.1-0.1 0.1-0.3 0.1-0.2 0.1-0.3 0.1-0.2 0-0.4 0.1c-0.8 0.2-1.9 0.4-3.5 0.7q-1.4 0.3-2.9 0.4-1.5 0.2-3 0.2-1.5 0-3-0.1-1.5-0.2-2.9-0.4-1.5-0.3-2.9-0.8-1.4-0.6-2.8-1.3-1.3-0.8-2.4-1.7-1.2-1-2.2-2.1-0.3-0.3-0.6-0.7-0.2-0.4-0.5-0.7-0.2-0.4-0.4-0.8-0.3-0.4-0.4-0.8-0.1-0.2-0.2-0.3-0.1-0.2-0.1-0.3-0.1-0.2-0.1-0.4 0-0.1-0.1-0.3 0.3 0.5 0.6 1.1 0.3 0.5 0.7 1 0.3 0.5 0.7 1 0.3 0.5 0.7 0.9 1 1.1 2.2 2 1.1 0.9 2.4 1.6 1.3 0.7 2.7 1.2 1.3 0.5 2.8 0.8 1.4 0.3 2.9 0.4 1.4 0.1 2.9 0.1 1.5 0.1 2.9-0.1 1.5-0.1 3-0.3c1.5-0.2 2.7-0.4 3.5-0.6q0.2 0 0.3 0 0.2-0.1 0.4-0.1 0.1 0 0.3 0 0.2 0 0.3 0z"/>
		<path id="Layer" class="s5" d="m118.4 235.3c0 0 0 0-0.1-0.1q-0.1-0.1-0.1-0.2-0.1 0-0.1-0.1-0.1-0.1-0.1-0.1-0.1-0.1-0.1-0.2-0.2-0.2-0.3-0.5-0.2-0.3-0.3-0.6-0.1-0.3-0.2-0.6-0.1-0.3-0.1-0.6-0.2-1.1-0.1-2.3 0.1-1.2 0.4-2.3 0.3-1.1 0.9-2.1 0.5-1 1.3-1.9 0.5-0.6 1.1-1.1 0.6-0.6 1.2-1.1 0.6-0.5 1.2-1 0.7-0.5 1.4-0.9c1.9-1.2 4-2.4 6.1-3.8q0.8-0.5 1.6-1.1 0.8-0.6 1.5-1.3 0.7-0.7 1.3-1.5 0.6-0.7 1.2-1.6 0.2-0.4 0.5-0.8 0.2-0.5 0.4-1 0.1-0.5 0.3-1 0.1-0.5 0.2-1 0-0.5 0.1-1 0-0.6-0.1-1.1 0-0.5-0.1-1.1 0-0.5-0.2-1-0.2-1-0.6-2-0.3-1.1-0.7-2.1-0.3-1-0.7-1.9-0.4-1-0.9-2-0.4-0.9-0.8-1.9-0.3-0.9-0.6-1.9-0.2-1-0.4-2-0.1-1-0.2-2 0-1.7 0.2-3.4 0.2-1.7 0.7-3.4 0.6-1.6 1.3-3.1 0.8-1.6 1.8-3 0.7-0.9 1.4-1.7 0.8-0.9 1.7-1.7 0.8-0.7 1.8-1.4 0.9-0.6 1.9-1.2l1.3-0.6 1-0.3q0.2-0.1 0.3-0.1 0.1 0 0.2-0.1 0.1 0 0.2 0 0.1 0 0.2-0.1-0.1 0.1-0.2 0.1-0.1 0.1-0.2 0.1-0.1 0.1-0.2 0.1-0.1 0.1-0.2 0.1l-1 0.4-1.3 0.7q-1 0.5-1.9 1.2-0.9 0.6-1.7 1.4-0.8 0.8-1.6 1.6-0.7 0.9-1.4 1.8-0.9 1.4-1.7 2.9-0.7 1.5-1.2 3.1-0.5 1.6-0.7 3.3-0.2 1.6-0.1 3.3 0 1 0.2 2 0.1 0.9 0.4 1.9 0.2 0.9 0.6 1.9 0.3 0.9 0.7 1.8 0.5 1 0.9 2 0.4 1 0.8 2 0.4 1 0.7 2 0.3 1.1 0.6 2.1 0.1 0.5 0.2 1.1 0.1 0.5 0.1 1.1 0.1 0.6 0 1.1 0 0.6-0.1 1.1 0 0.6-0.2 1.1-0.1 0.5-0.3 1-0.2 0.6-0.4 1-0.3 0.5-0.5 1-0.6 0.8-1.3 1.6-0.6 0.8-1.3 1.5-0.8 0.7-1.6 1.3-0.8 0.7-1.6 1.2c-2.2 1.4-4.3 2.6-6.2 3.8q-0.7 0.4-1.3 0.8-0.6 0.5-1.2 1-0.6 0.5-1.2 1-0.6 0.6-1.1 1.2-0.7 0.8-1.3 1.8-0.6 1-0.9 2-0.3 1.1-0.5 2.2-0.1 1.1 0.1 2.3 0.1 0.4 0.2 0.7 0.1 0.4 0.2 0.8 0.2 0.4 0.4 0.7 0.2 0.4 0.4 0.7z"/>
		<path id="Layer" class="s5" d="m149.3 235.7q-0.1 0-0.2 0-0.1-0.1-0.1-0.1-0.1-0.1-0.2-0.1-0.1-0.1-0.2-0.1-0.2-0.2-0.4-0.4-0.2-0.2-0.4-0.4-0.2-0.2-0.3-0.4-0.2-0.2-0.4-0.5-0.2-0.3-0.4-0.7-0.1-0.4-0.3-0.9-0.1-0.4-0.2-0.8-0.1-0.5-0.1-0.9 0-0.6 0-1.2 0-0.5 0-1.1 0.1-0.6 0.2-1.2 0.1-0.6 0.3-1.1c0.9-3.4 3.8-6.5 5.9-10.4q0.5-0.7 0.8-1.6 0.3-0.8 0.5-1.6 0.3-0.8 0.4-1.7 0.1-0.8 0.1-1.7-0.1-0.9-0.2-1.9-0.1-0.9-0.4-1.8-0.2-0.9-0.5-1.8-0.4-0.8-0.8-1.7c-2.2-4.6-5.6-8.3-7.9-12.2q-0.5-0.7-0.8-1.4-0.4-0.7-0.8-1.4-0.3-0.8-0.6-1.5-0.3-0.8-0.6-1.5-0.2-0.7-0.3-1.4-0.1-0.7-0.2-1.4-0.1-0.7-0.1-1.4 0-0.7 0.1-1.4 0-1.1 0.3-2 0.3-1 0.7-2 0.4-0.9 1-1.7 0.6-0.9 1.3-1.6 0.3-0.2 0.5-0.3 0.2-0.2 0.4-0.3 0.3-0.2 0.5-0.3 0.3-0.2 0.5-0.3 0.1 0 0.2-0.1 0.1 0 0.2 0 0.1-0.1 0.2-0.1 0 0 0.1 0-0.3 0.1-0.6 0.3-0.3 0.2-0.6 0.4-0.3 0.2-0.6 0.4-0.3 0.3-0.6 0.5-0.7 0.7-1.2 1.5-0.6 0.9-1 1.8-0.4 0.9-0.6 1.8-0.2 1-0.3 2-0.1 0.7 0 1.4 0 0.7 0 1.3 0.1 0.7 0.3 1.4 0.1 0.6 0.3 1.3 0.3 0.8 0.6 1.5 0.3 0.7 0.6 1.4 0.4 0.8 0.8 1.4 0.4 0.7 0.8 1.4c1.2 1.9 2.6 3.8 4 5.8q0.6 0.7 1.1 1.5 0.6 0.8 1.1 1.6 0.5 0.8 0.9 1.7 0.5 0.8 0.9 1.7 0.4 0.8 0.8 1.7 0.3 0.9 0.5 1.9 0.3 0.9 0.4 1.9 0.2 0.9 0.2 1.9 0 0.9-0.1 1.8-0.1 0.9-0.4 1.7-0.2 0.9-0.5 1.8-0.4 0.8-0.8 1.6c-2.3 4-5.1 7-6 10.2q-0.2 0.5-0.3 1.1-0.2 0.6-0.2 1.1-0.1 0.6-0.1 1.1 0 0.6 0 1.2 0 0.4 0.1 0.8 0 0.4 0.2 0.8 0.1 0.5 0.2 0.9 0.2 0.3 0.4 0.7 0.2 0.3 0.4 0.6 0.2 0.3 0.4 0.6 0.3 0.3 0.5 0.5 0.3 0.2 0.6 0.4z"/>
		<path id="Layer" class="s5" d="m195.1 148.7c0 0-0.2 0-0.5-0.2q-0.1-0.1-0.3-0.1-0.1-0.1-0.3-0.2-0.1-0.1-0.2-0.2-0.2-0.1-0.3-0.2-0.5-0.4-1-0.8-0.4-0.4-0.9-0.9-0.4-0.5-0.7-1-0.4-0.5-0.7-1-0.5-0.8-1-1.6-0.4-0.8-0.8-1.7-0.4-0.8-0.8-1.7-0.3-0.8-0.7-1.7c-0.5-1.3-1.1-2.6-1.8-3.9q-0.2-0.5-0.5-1-0.3-0.5-0.7-1-0.3-0.5-0.6-0.9-0.4-0.5-0.7-0.9-1.3-1.6-2.8-2.9-1.6-1.4-3.3-2.5-1.7-1.1-3.5-1.9-1.9-0.8-3.8-1.4-0.8-0.2-1.7-0.3-0.8-0.2-1.6-0.3-0.9-0.1-1.7-0.2-0.9-0.1-1.7-0.2 0.2 0 0.5 0 0.2 0 0.4-0.1 0.2 0 0.5 0 0.2 0 0.4 0 0.7 0.1 1.3 0.1 0.6 0.1 1.2 0.1 0.6 0.1 1.3 0.2 0.6 0.1 1.2 0.3 0.9 0.2 1.8 0.5 0.9 0.3 1.7 0.6 0.9 0.4 1.7 0.8 0.8 0.4 1.6 0.9 1 0.5 2 1.2 0.9 0.7 1.8 1.4 0.8 0.7 1.6 1.6 0.8 0.8 1.5 1.7 0.4 0.4 0.8 0.9 0.3 0.5 0.6 1 0.4 0.4 0.7 1 0.3 0.5 0.6 1 0.2 0.5 0.4 1 0.3 0.5 0.5 1 0.2 0.5 0.4 1 0.3 0.5 0.4 1 0.4 0.8 0.7 1.7 0.4 0.8 0.7 1.7 0.4 0.8 0.8 1.6 0.5 0.8 0.9 1.6 0.3 0.6 0.7 1.1 0.3 0.5 0.7 0.9 0.4 0.5 0.8 0.9 0.5 0.5 0.9 0.9c0.9 0.8 1.5 1.1 1.5 1.1z"/>
		<path id="Layer" class="s5" d="m211.2 148.6q0 0-0.1 0-0.1 0-0.2 0-0.1 0-0.1 0-0.1 0-0.2 0-0.2-0.1-0.4-0.1-0.3-0.1-0.5-0.1-0.2-0.1-0.4-0.2-0.2 0-0.4-0.1-0.8-0.3-1.6-0.7-0.7-0.3-1.4-0.8-0.7-0.4-1.3-1-0.7-0.5-1.3-1.1-0.8-0.9-1.6-1.8-0.8-0.9-1.5-1.9-0.7-1-1.4-2.1-0.6-1-1.2-2.1c-1.8-3.2-3.6-6.9-6.3-10q-1-1.1-2.1-2.1-1.1-0.9-2.4-1.7-1.2-0.8-2.6-1.4-1.3-0.6-2.7-1-1.2-0.3-2.4-0.5-1.2-0.2-2.4-0.4-1.2-0.2-2.4-0.2-1.2-0.1-2.4-0.1c-2.8-0.1-5 0-6.6 0.1l-1.8 0.1q0 0-0.1 0-0.1 0-0.2 0 0 0-0.1 0-0.1 0-0.2 0 0.1-0.1 0.2-0.1 0 0 0.1 0 0.1 0 0.2-0.1 0.1 0 0.1 0c0.4 0 1-0.1 1.8-0.1 1.6-0.2 3.8-0.4 6.6-0.3q1.2-0.1 2.5 0 1.2 0.1 2.4 0.2 1.2 0.2 2.4 0.4 1.2 0.2 2.4 0.5 1.5 0.4 2.9 1 1.4 0.6 2.7 1.4 1.3 0.8 2.4 1.8 1.2 1 2.2 2.1c2.8 3.3 4.5 7 6.3 10.2q0.5 1 1.2 2.1 0.6 1 1.3 2 0.7 1 1.4 1.9 0.8 1 1.6 1.9 0.6 0.5 1.2 1.1 0.6 0.5 1.3 1 0.7 0.4 1.4 0.8 0.7 0.4 1.5 0.7c1.4 0.5 2.3 0.7 2.2 0.7z"/>
		<path id="Layer" class="s5" d="m238.6 223.9c0 0 0.3-0.9 0.7-2.4q0.2-0.8 0.4-1.6 0.1-0.8 0.2-1.6 0.1-0.8 0.1-1.7 0-0.8 0-1.6 0-1.2-0.2-2.4-0.2-1.2-0.5-2.4-0.3-1.2-0.8-2.3-0.4-1.2-1-2.3-0.3-0.6-0.7-1.2-0.3-0.6-0.8-1.2-0.4-0.6-0.8-1.2-0.5-0.5-1-1.1c-1.3-1.5-2.9-2.9-4.4-4.4q-0.6-0.5-1.2-1-0.5-0.6-1-1.2-0.6-0.6-1.1-1.2-0.5-0.6-1-1.2-0.5-0.6-0.9-1.2-0.4-0.6-0.8-1.2-0.4-0.6-0.7-1.3-0.4-0.6-0.7-1.3-0.3-0.6-0.6-1.2-0.2-0.6-0.5-1.2-0.2-0.7-0.4-1.3-0.2-0.6-0.4-1.3-0.1-0.5-0.3-1.1-0.1-0.6-0.2-1.1-0.1-0.6-0.2-1.2-0.1-0.5-0.1-1.1-0.1-0.9-0.2-1.7 0-0.8 0-1.7 0-0.8 0.1-1.6 0-0.9 0.1-1.7 0.1-0.2 0.1-0.5 0-0.2 0.1-0.4 0-0.2 0.1-0.4 0-0.3 0-0.5 0.1-0.1 0.1-0.1 0-0.1 0-0.2 0-0.1 0.1-0.2 0 0 0-0.1c0.1 0-0.1 0.9-0.2 2.4q-0.1 0.8-0.1 1.7-0.1 0.8-0.1 1.6 0.1 0.9 0.1 1.7 0.1 0.8 0.2 1.6 0.1 0.6 0.2 1.2 0 0.5 0.2 1.1 0.1 0.5 0.2 1.1 0.2 0.5 0.3 1.1 0.2 0.6 0.4 1.2 0.2 0.7 0.4 1.3 0.3 0.6 0.5 1.2 0.3 0.6 0.6 1.2 0.3 0.6 0.7 1.2 0.3 0.7 0.7 1.3 0.4 0.6 0.8 1.2 0.4 0.6 0.9 1.1 0.4 0.7 1 1.2 0.5 0.6 1 1.2 0.5 0.6 1.1 1.1 0.5 0.6 1.1 1.1c1.6 1.5 3.1 2.9 4.5 4.4q0.5 0.6 0.9 1.1 0.5 0.6 0.9 1.2 0.4 0.6 0.8 1.3 0.4 0.6 0.7 1.3 0.6 1.1 1 2.2 0.5 1.2 0.8 2.4 0.3 1.2 0.4 2.5 0.2 1.2 0.2 2.5 0.1 0.8 0 1.6 0 0.9-0.2 1.7-0.1 0.8-0.2 1.7-0.2 0.8-0.5 1.6 0 0.2-0.1 0.4-0.1 0.2-0.2 0.5 0 0.2-0.1 0.4-0.1 0.2-0.2 0.4 0 0.1-0.1 0.1 0 0.1 0 0.2-0.1 0.1-0.1 0.1 0 0.1-0.1 0.2z"/>
		<path id="Layer" class="s5" d="m111.6 147.7q0-0.1 0-0.3 0-0.1 0-0.3 0-0.1 0.1-0.3 0-0.1 0.1-0.2 0-0.4 0.2-0.8 0.1-0.4 0.2-0.7 0.2-0.4 0.3-0.8 0.2-0.3 0.4-0.6c0.8-1.6 2-2.9 3.3-4 1.4-1.1 3-1.8 4.7-2.2 1.7-0.4 3.5-0.5 5.2-0.2 1.7 0.4 3.4 1 4.8 2q0.3 0.3 0.6 0.5 0.3 0.2 0.6 0.5 0.3 0.3 0.6 0.5 0.3 0.3 0.5 0.6 0.1 0.1 0.2 0.2 0.1 0.2 0.2 0.3 0.1 0.1 0.1 0.2 0.1 0.2 0.2 0.3-0.4-0.4-0.8-0.7-0.4-0.4-0.8-0.7-0.4-0.3-0.8-0.6-0.4-0.4-0.8-0.6c-1.4-1-3-1.6-4.7-1.9-1.6-0.3-3.3-0.2-4.9 0.2-1.7 0.4-3.2 1.1-4.5 2.1-1.4 1-2.5 2.3-3.4 3.7q-0.2 0.5-0.4 0.9-0.3 0.5-0.5 1-0.2 0.4-0.4 0.9-0.1 0.5-0.3 1z"/>
		<path id="Layer" class="s5" d="m122.8 152.6q0-0.4 0.1-0.7 0-0.3 0-0.6 0-0.4 0.1-0.7 0.1-0.3 0.2-0.7 0.1-0.8 0.3-1.5 0.3-0.8 0.6-1.5 0.4-0.8 0.8-1.5 0.5-0.6 1-1.3 0.6-0.6 1.3-1 0.7-0.4 1.6-0.6 0.8-0.2 1.6-0.2 0.8 0 1.6 0.3 0.3 0.1 0.5 0.2 0.2 0.1 0.4 0.2 0.3 0.2 0.4 0.3 0.2 0.2 0.4 0.4c0.3 0.4 0.4 0.6 0.3 0.6q-0.2-0.2-0.4-0.4-0.3-0.2-0.5-0.4-0.3-0.1-0.6-0.3-0.3-0.1-0.6-0.2-0.7-0.2-1.5-0.2-0.7 0-1.5 0.3-0.7 0.2-1.4 0.5-0.6 0.4-1.2 1-0.5 0.5-0.9 1.2-0.4 0.6-0.8 1.3-0.3 0.7-0.6 1.5-0.3 0.7-0.4 1.5-0.1 0.3-0.2 0.6 0 0.3-0.1 0.6-0.1 0.3-0.2 0.7-0.1 0.3-0.3 0.6z"/>
		<path id="Layer" class="s6" d="m137.6 135.6c0.1 0.1-1.8 2.7-3 6.3-1.3 3.7-1.4 6.9-1.6 6.8-0.2 0-0.3-3.2 1-7q0.2-0.8 0.6-1.6 0.4-0.9 0.8-1.6 0.5-0.8 1-1.5 0.5-0.8 1.2-1.4z"/>
		<path id="Layer" class="s6" d="m129.4 423.4l23.4-17.5-6.6-86.9 78.9-4.1 8.1 91 7.2 13.8 6.2 38.1h-135.2l18-34.4z"/>
		<path id="Layer" class="s6" d="m207.2 245.6l10.6 73.9 7.6-1.7-9.1-69.6c0 0-4.9-4.3-9.1-2.6z"/>
		<path id="Layer" class="s6" d="m146.2 319l-29.4-64.8c0 0 3.3-4.4 6.5-4.4 3.2 0 2.4 2.3 2.4 2.3l27.1 67.4z"/>
		<path id="Layer" class="s4" d="m216.1 349.7q0 0 0 0 0 0 0 0.1 0 0 0 0 0 0.1 0 0.1 0 0.3 0 0.7c0 0.6 0.1 1.6 0.1 2.8q0 1.2 0 2.5-0.1 1.2-0.1 2.5-0.1 1.2-0.2 2.5-0.2 1.2-0.4 2.5-0.2 1.8-0.6 3.6-0.5 1.9-1.1 3.6-0.6 1.8-1.4 3.5-0.8 1.7-1.7 3.3-0.6 1-1.3 1.9-0.7 0.9-1.4 1.7-0.7 0.8-1.5 1.6-0.9 0.7-1.7 1.4-0.5 0.4-1 0.8-0.4 0.3-0.9 0.6-0.5 0.4-1 0.7-0.5 0.3-1 0.5-0.6 0.3-1.1 0.6-0.6 0.2-1.1 0.4-0.6 0.3-1.2 0.5-0.6 0.2-1.1 0.3-0.6 0.2-1.2 0.3-0.6 0.1-1.2 0.2-0.6 0.1-1.2 0.1-0.7 0.1-1.3 0.1-0.6 0-1.1-0.1-0.6 0-1.2-0.1-0.6-0.1-1.2-0.2-0.6-0.1-1.1-0.2-1.1-0.3-2.1-0.8-1.1-0.4-2.1-0.9-0.9-0.6-1.8-1.2-1-0.6-1.8-1.4-1.4-1.2-2.6-2.6-1.3-1.4-2.3-3-1.1-1.5-1.9-3.2-0.9-1.6-1.5-3.4-0.5-1.2-0.9-2.4-0.4-1.2-0.8-2.4-0.4-1.2-0.7-2.4-0.3-1.2-0.6-2.4-0.3-1.8-0.5-2.7-0.1-0.4-0.2-0.7 0 0 0-0.1 0 0 0 0 0-0.1 0-0.1 0 0 0-0.1 0.1 0.1 0.1 0.1 0 0 0 0.1 0 0 0 0 0 0 0 0.1l0.2 0.7q0.2 0.9 0.7 2.6 0.3 1.2 0.6 2.4 0.3 1.2 0.7 2.4 0.4 1.2 0.8 2.4 0.4 1.2 0.9 2.4 0.7 1.7 1.5 3.3 0.9 1.7 2 3.2 1 1.5 2.3 2.9 1.2 1.3 2.6 2.6 0.8 0.7 1.7 1.3 0.9 0.6 1.9 1.1 0.9 0.5 1.9 1 1.1 0.4 2.1 0.7 0.6 0.1 1.1 0.2 0.6 0.1 1.2 0.2 0.5 0.1 1.1 0.1 0.6 0 1.1 0.1 0.6-0.1 1.2-0.1 0.6 0 1.2-0.1 0.6-0.1 1.2-0.2 0.5-0.1 1.1-0.3 0.6-0.2 1.1-0.3 0.6-0.2 1.2-0.4 0.5-0.3 1-0.5 0.6-0.3 1.1-0.5 0.5-0.3 1-0.6 0.5-0.3 1-0.6 0.5-0.3 0.9-0.7 0.5-0.3 1-0.7 0.8-0.6 1.6-1.4 0.8-0.7 1.5-1.6 0.8-0.8 1.4-1.6 0.7-0.9 1.3-1.8 0.9-1.6 1.7-3.3 0.8-1.7 1.4-3.4 0.6-1.8 1.1-3.6 0.4-1.8 0.7-3.6 0.2-1.3 0.3-2.5 0.2-1.2 0.3-2.5 0.1-1.2 0.1-2.5 0.1-1.3 0.1-2.5 0-1.7 0-2.7 0-0.5 0-0.8 0 0 0 0 0 0 0-0.1 0 0 0 0 0 0 0 0z"/>
		<path id="Layer" class="s4" d="m211.8 346q0 0-0.4 0.3-0.4 0.2-1.1 0.7-0.6 0.3-1.1 0.6-0.5 0.2-1.1 0.5-0.5 0.3-1.1 0.5-0.6 0.3-1.1 0.5-1.9 0.8-3.9 1.3-1.9 0.6-3.9 1-2 0.3-4 0.5-2.1 0.1-4.1 0.1c-3.2-0.1-6.2-0.4-8.9-0.6q-0.9-0.1-1.8-0.1-0.9-0.1-1.8-0.1-0.9 0-1.8 0-0.9 0.1-1.8 0.1-0.6 0.1-1.2 0.2-0.6 0-1.2 0.1-0.6 0.1-1.2 0.3-0.6 0.1-1.2 0.3-0.2 0.1-0.4 0.2-0.2 0-0.4 0.1-0.2 0.1-0.4 0.1-0.3 0.1-0.5 0.1 0.1 0 0.1 0 0.1-0.1 0.1-0.1 0.1 0 0.1 0 0.1-0.1 0.1-0.1 0.2-0.1 0.3-0.1 0.2-0.1 0.3-0.2 0.2 0 0.4-0.1 0.1 0 0.3-0.1 0.6-0.2 1.1-0.3 0.6-0.2 1.2-0.3 0.6-0.2 1.2-0.2 0.7-0.1 1.3-0.2 0.9-0.1 1.8-0.1 0.9 0 1.8 0 0.9 0 1.8 0 0.9 0 1.8 0.1c2.8 0.2 5.8 0.5 8.9 0.6q2.6 0 5.2-0.3 2.6-0.2 5.2-0.8 2.5-0.6 5-1.5 2.4-0.9 4.8-2.1 0.2-0.1 0.4-0.3 0.2-0.1 0.4-0.2 0.2-0.1 0.4-0.2 0.2-0.1 0.4-0.2z"/>
		<g id="Layer" style="opacity: .4">
			<path id="Layer" class="s7" d="m167.2 363c1.7 7 3.4 14.2 7.1 20.4 3.8 6.2 9.9 11.3 17 12.1 6 0.7 12.1-1.9 16.4-6.1q1.6-1.6 3-3.4 1.3-1.8 2.4-3.8 1-2 1.8-4.2 0.7-2.1 1.2-4.3c1.3-5.9 0.4-11.6 0-17.6 0 0-0.4 6.8-1.2 9.2-1.8 6.3-4.1 12-8.6 16.8-4.5 4.7-11.2 7.5-17.7 6.3-5.4-1-10.2-4.6-13.5-9.1-3.2-4.5-5.2-9.8-6.8-15.2"/>
		</g>
		<g id="Layer" style="opacity: .4">
			<path id="Layer" class="s8" d="m185.2 341q-0.8-0.1-1.5-0.3-0.7-0.2-1.4-0.5-0.7-0.2-1.4-0.5-0.7-0.4-1.3-0.7-0.4-0.2-0.7-0.4-0.4-0.2-0.7-0.5-0.3-0.2-0.6-0.5-0.3-0.3-0.6-0.6-0.2-0.3-0.4-0.7-0.1-0.4-0.2-0.8 0-0.4 0-0.8 0.1-0.4 0.3-0.8 0.2-0.4 0.5-0.7 0.4-0.3 0.8-0.4 0.4-0.2 0.9-0.3 0.4 0 0.9 0.1 0.4 0.1 0.8 0.4 0.4 0.2 0.8 0.5 0.3 0.3 0.6 0.6 0.2 0.4 0.4 0.8c-0.5-1.5 0.7-3.6 2.3-3.4q0.4 0.1 0.8 0.3 0.4 0.2 0.7 0.5 0.3 0.4 0.5 0.8 0.2 0.4 0.2 0.9 0 0.4 0 0.9-0.1 0.4-0.2 0.9-0.1 0.4-0.2 0.8-0.2 0.4-0.4 0.8-0.2 0.4-0.4 0.9-0.1 0.4-0.3 0.8-0.1 0.5-0.2 0.9-0.1 0.4-0.2 0.9"/>
		</g>
		<g id="Layer" style="opacity: .4">
			<path id="Layer" class="s8" d="m204.5 417.7q-0.8-0.1-1.5-0.3-0.7-0.2-1.4-0.5-0.7-0.2-1.4-0.5-0.7-0.3-1.3-0.7-0.4-0.2-0.7-0.4-0.4-0.2-0.7-0.4-0.3-0.3-0.6-0.6-0.3-0.3-0.5-0.6-0.3-0.3-0.5-0.7-0.1-0.4-0.2-0.8 0-0.4 0-0.8 0.1-0.4 0.2-0.7 0.3-0.4 0.6-0.7 0.4-0.3 0.8-0.5 0.4-0.2 0.9-0.2 0.4-0.1 0.9 0 0.4 0.2 0.8 0.4 0.4 0.2 0.8 0.5 0.3 0.3 0.6 0.6 0.3 0.4 0.4 0.8c-0.5-1.5 0.7-3.5 2.3-3.4q0.4 0.1 0.8 0.3 0.4 0.2 0.7 0.6 0.3 0.3 0.5 0.7 0.2 0.4 0.2 0.9 0 0.4 0 0.9-0.1 0.4-0.2 0.9-0.1 0.4-0.2 0.8-0.2 0.5-0.4 0.9-0.2 0.4-0.4 0.8-0.1 0.4-0.3 0.8-0.1 0.5-0.2 0.9-0.1 0.4-0.2 0.9"/>
		</g>
		<g id="Layer" style="opacity: .4">
			<path id="Layer" class="s8" d="m220.3 452.1q-0.7-0.1-1.4-0.3-0.8-0.2-1.5-0.5-0.7-0.2-1.3-0.5-0.7-0.3-1.4-0.7-0.3-0.2-0.7-0.4-0.3-0.2-0.7-0.4-0.3-0.3-0.6-0.6-0.3-0.3-0.5-0.6-0.3-0.3-0.4-0.7-0.2-0.4-0.2-0.8-0.1-0.4 0-0.8 0-0.4 0.2-0.8 0.2-0.4 0.6-0.7 0.3-0.3 0.7-0.4 0.5-0.2 0.9-0.3 0.5 0 0.9 0.1 0.4 0.1 0.9 0.4 0.4 0.2 0.7 0.5 0.3 0.3 0.6 0.6 0.3 0.4 0.5 0.8c-0.6-1.5 0.6-3.6 2.2-3.4q0.5 0.1 0.9 0.3 0.4 0.2 0.7 0.5 0.3 0.4 0.4 0.8 0.2 0.4 0.2 0.9 0.1 0.4 0 0.9 0 0.4-0.1 0.9-0.1 0.4-0.3 0.8-0.1 0.4-0.3 0.9-0.2 0.3-0.4 0.8-0.2 0.4-0.3 0.8-0.2 0.4-0.3 0.9-0.1 0.4-0.2 0.9"/>
		</g>
		<g id="Layer" style="opacity: .4">
			<path id="Layer" class="s8" d="m195.7 372.7q-0.7-0.1-1.4-0.3-0.8-0.2-1.5-0.5-0.7-0.2-1.3-0.5-0.7-0.3-1.4-0.7-0.3-0.2-0.7-0.4-0.3-0.2-0.7-0.4-0.3-0.3-0.6-0.6-0.3-0.3-0.5-0.6-0.3-0.3-0.4-0.7-0.2-0.4-0.2-0.8-0.1-0.4 0-0.8 0-0.4 0.2-0.8 0.2-0.4 0.6-0.7 0.3-0.3 0.7-0.4 0.5-0.2 0.9-0.2 0.5-0.1 0.9 0 0.4 0.2 0.9 0.4 0.4 0.2 0.7 0.5 0.4 0.3 0.6 0.6 0.3 0.4 0.5 0.8c-0.6-1.5 0.6-3.6 2.2-3.4q0.5 0.1 0.9 0.3 0.4 0.2 0.7 0.6 0.3 0.3 0.4 0.7 0.2 0.4 0.2 0.9 0.1 0.4 0 0.9 0 0.4-0.1 0.9-0.1 0.4-0.3 0.8-0.1 0.5-0.3 0.9-0.2 0.4-0.4 0.8-0.2 0.4-0.3 0.8-0.2 0.4-0.3 0.9-0.1 0.4-0.2 0.9"/>
		</g>
		<g id="Layer" style="opacity: .4">
			<path id="Layer" class="s8" d="m218.9 397.3q-0.6-0.4-1.2-0.8-0.7-0.4-1.2-0.9-0.6-0.4-1.2-0.9-0.6-0.5-1.1-1-0.3-0.3-0.5-0.6-0.3-0.3-0.5-0.7-0.2-0.3-0.4-0.7-0.2-0.3-0.4-0.7-0.1-0.4-0.1-0.8-0.1-0.4 0-0.8 0.1-0.4 0.3-0.7 0.1-0.4 0.4-0.7 0.4-0.3 0.8-0.5 0.4-0.2 0.8-0.2 0.5-0.1 0.9 0 0.5 0.2 0.9 0.4 0.4 0.3 0.7 0.6 0.3 0.3 0.5 0.7 0.3 0.4 0.4 0.8 0.2 0.4 0.2 0.9c0-1.6 1.7-3.2 3.2-2.6q0.4 0.2 0.7 0.6 0.3 0.3 0.5 0.7 0.2 0.4 0.2 0.9 0.1 0.5 0 0.9-0.2 0.4-0.4 0.8-0.1 0.5-0.4 0.8-0.2 0.4-0.5 0.8-0.2 0.3-0.6 0.7-0.3 0.3-0.6 0.6-0.3 0.3-0.5 0.7-0.3 0.4-0.6 0.8-0.2 0.3-0.4 0.7"/>
		</g>
		<g id="Layer" style="opacity: .4">
			<path id="Layer" class="s8" d="m157.2 451.9q-0.6-0.4-1.3-0.8-0.6-0.4-1.2-0.8-0.6-0.5-1.1-1-0.6-0.5-1.1-1-0.3-0.3-0.5-0.6-0.3-0.3-0.5-0.6-0.3-0.4-0.5-0.7-0.1-0.4-0.3-0.8-0.1-0.3-0.1-0.8-0.1-0.4 0-0.7 0.1-0.4 0.3-0.8 0.1-0.4 0.4-0.7 0.3-0.3 0.8-0.5 0.4-0.1 0.8-0.2 0.5 0 0.9 0.1 0.5 0.1 0.9 0.3 0.3 0.3 0.7 0.6 0.3 0.4 0.5 0.7 0.2 0.4 0.4 0.9 0.1 0.4 0.2 0.8c0-1.6 1.7-3.2 3.2-2.5q0.4 0.2 0.7 0.5 0.3 0.4 0.5 0.8 0.1 0.4 0.2 0.8 0 0.5-0.1 0.9-0.1 0.4-0.3 0.8-0.2 0.5-0.4 0.8-0.2 0.4-0.5 0.8-0.3 0.3-0.6 0.7-0.3 0.3-0.6 0.6-0.3 0.4-0.6 0.7-0.3 0.4-0.5 0.8-0.2 0.3-0.4 0.8"/>
		</g>
		<g id="Layer" style="opacity: .4">
			<path id="Layer" class="s8" d="m207.9 336.8q-0.4-0.1-0.8-0.3-0.4-0.1-0.8-0.3-0.4-0.2-0.7-0.3-0.4-0.2-0.7-0.5-0.2-0.1-0.4-0.2-0.2-0.1-0.3-0.3-0.2-0.1-0.4-0.3-0.1-0.2-0.2-0.4-0.2-0.2-0.2-0.4-0.1-0.2-0.1-0.4 0-0.2 0-0.5 0.1-0.2 0.2-0.4 0.1-0.2 0.3-0.3 0.2-0.2 0.5-0.3 0.2 0 0.5 0 0.2 0 0.5 0 0.2 0.1 0.4 0.3 0.2 0.1 0.4 0.3 0.2 0.2 0.3 0.4 0.1 0.2 0.2 0.4c-0.2-0.8 0.5-1.9 1.4-1.8q0.3 0.1 0.5 0.2 0.2 0.2 0.3 0.4 0.2 0.2 0.3 0.4 0 0.3 0 0.5 0 0.3 0 0.5-0.1 0.2-0.1 0.5-0.1 0.2-0.2 0.4-0.1 0.3-0.3 0.5-0.1 0.2-0.2 0.4-0.1 0.2-0.2 0.5-0.1 0.2-0.2 0.4-0.1 0.3-0.1 0.5"/>
		</g>
		<g id="Layer" style="opacity: .4">
			<path id="Layer" class="s8" d="m223.2 367.3q-0.3-0.1-0.6-0.2-0.3-0.1-0.6-0.3-0.2-0.1-0.5-0.2-0.3-0.2-0.5-0.3-0.2-0.1-0.3-0.2-0.1-0.1-0.2-0.2-0.2-0.1-0.3-0.3-0.1-0.1-0.2-0.2-0.1-0.2-0.1-0.3-0.1-0.2-0.1-0.3 0-0.2 0.1-0.4 0-0.1 0.1-0.3 0.1-0.1 0.2-0.2 0.2-0.1 0.3-0.2 0.2 0 0.4 0 0.2 0 0.4 0 0.1 0.1 0.3 0.2 0.1 0.1 0.3 0.2 0.1 0.1 0.2 0.3 0.1 0.1 0.2 0.3c-0.2-0.6 0.3-1.4 1-1.3q0.1 0.1 0.3 0.2 0.1 0.1 0.2 0.2 0.2 0.2 0.2 0.3 0.1 0.2 0.1 0.4 0 0.2-0.1 0.3 0 0.2-0.1 0.4 0 0.2-0.1 0.3-0.1 0.2-0.2 0.3-0.1 0.2-0.2 0.4 0 0.1-0.1 0.3-0.1 0.2-0.1 0.3-0.1 0.2-0.1 0.4"/>
		</g>
		<g id="Layer" style="opacity: .4">
			<path id="Layer" class="s8" d="m221 324.1q-0.3-0.1-0.6-0.2-0.3-0.1-0.5-0.2-0.3-0.1-0.6-0.3-0.2-0.1-0.5-0.3-0.1-0.1-0.2-0.2-0.2-0.1-0.3-0.2-0.1-0.1-0.2-0.2-0.1-0.1-0.2-0.3-0.1-0.1-0.2-0.3 0-0.1 0-0.3 0-0.1 0-0.3 0-0.2 0.1-0.3 0.1-0.2 0.3-0.3 0.1-0.1 0.3-0.1 0.2-0.1 0.4-0.1 0.1 0 0.3 0.1 0.2 0 0.3 0.1 0.2 0.1 0.3 0.3 0.1 0.1 0.2 0.2 0.1 0.2 0.2 0.4c-0.2-0.7 0.4-1.4 1-1.3q0.2 0 0.3 0.1 0.2 0.1 0.3 0.3 0.1 0.1 0.2 0.3 0 0.2 0 0.3 0 0.2 0 0.4-0.1 0.2-0.1 0.4-0.1 0.1-0.1 0.3-0.1 0.2-0.2 0.3-0.1 0.2-0.2 0.3-0.1 0.2-0.2 0.4 0 0.1-0.1 0.3 0 0.2-0.1 0.3"/>
		</g>
		<g id="Layer" style="opacity: .4">
			<path id="Layer" class="s8" d="m154.9 421.3q-0.3-0.1-0.6-0.2-0.3-0.1-0.5-0.3-0.3-0.1-0.6-0.2-0.2-0.2-0.5-0.4-0.1 0-0.3-0.1-0.1-0.1-0.2-0.2-0.1-0.1-0.2-0.3-0.1-0.1-0.2-0.2-0.1-0.2-0.2-0.3 0-0.2 0-0.3 0-0.2 0-0.4 0-0.1 0.1-0.3 0.1-0.1 0.3-0.2 0.1-0.1 0.3-0.2 0.2-0.1 0.3-0.1 0.2 0 0.4 0.1 0.2 0.1 0.3 0.2 0.2 0.1 0.3 0.2 0.1 0.1 0.2 0.3 0.1 0.1 0.2 0.3c-0.2-0.6 0.4-1.4 1-1.3q0.2 0 0.3 0.2 0.2 0.1 0.3 0.2 0.1 0.1 0.2 0.3 0 0.2 0 0.4 0 0.2 0 0.3-0.1 0.2-0.1 0.4-0.1 0.2-0.1 0.3-0.1 0.2-0.2 0.3-0.1 0.2-0.2 0.4-0.1 0.1-0.1 0.3-0.1 0.1-0.2 0.3 0 0.2-0.1 0.4"/>
		</g>
		<g id="Layer" style="opacity: .4">
			<path id="Layer" class="s8" d="m227.4 422.4q-0.3-0.1-0.6-0.2-0.3-0.1-0.5-0.3-0.3-0.1-0.6-0.2-0.2-0.2-0.5-0.3-0.1-0.1-0.3-0.2-0.1-0.1-0.2-0.2-0.1-0.1-0.2-0.3-0.1-0.1-0.2-0.2-0.1-0.2-0.2-0.3 0-0.2 0-0.3 0-0.2 0-0.4 0-0.1 0.1-0.3 0.1-0.1 0.3-0.2 0.1-0.1 0.3-0.2 0.2-0.1 0.4-0.1 0.1 0 0.3 0.1 0.2 0.1 0.3 0.2 0.2 0.1 0.3 0.2 0.1 0.1 0.2 0.3 0.1 0.1 0.2 0.3c-0.2-0.6 0.4-1.4 1-1.3q0.2 0.1 0.3 0.2 0.2 0.1 0.3 0.2 0.1 0.2 0.2 0.3 0 0.2 0 0.4 0 0.2 0 0.3-0.1 0.2-0.1 0.4-0.1 0.2-0.1 0.3-0.1 0.2-0.2 0.3-0.1 0.2-0.2 0.4-0.1 0.1-0.2 0.3 0 0.2-0.1 0.3 0 0.2-0.1 0.4"/>
		</g>
		<g id="Layer" style="opacity: .4">
			<path id="Layer" class="s8" d="m155.2 329.8q-0.3-0.1-0.6-0.2-0.2-0.1-0.5-0.2-0.3-0.2-0.6-0.3-0.2-0.2-0.5-0.3-0.1-0.1-0.2-0.2-0.2-0.1-0.3-0.2-0.1-0.1-0.2-0.2-0.1-0.2-0.2-0.3-0.1-0.1-0.2-0.3 0-0.2 0-0.3 0-0.2 0-0.3 0-0.2 0.1-0.4 0.1-0.1 0.3-0.2 0.1-0.1 0.3-0.2 0.2 0 0.4 0 0.1 0 0.3 0 0.2 0.1 0.3 0.2 0.2 0.1 0.3 0.2 0.2 0.1 0.2 0.3 0.1 0.2 0.2 0.3c-0.2-0.6 0.4-1.4 1-1.3q0.2 0.1 0.3 0.2 0.2 0.1 0.3 0.2 0.1 0.2 0.2 0.3 0 0.2 0 0.4 0 0.2 0 0.4-0.1 0.1-0.1 0.3-0.1 0.2-0.1 0.3-0.1 0.2-0.2 0.4-0.1 0.1-0.2 0.3-0.1 0.1-0.2 0.3 0 0.2-0.1 0.3 0 0.2-0.1 0.4"/>
		</g>
		<g id="Layer" style="opacity: .4">
			<path id="Layer" class="s8" d="m179.8 402.7q-0.4-0.1-0.8-0.3-0.3-0.1-0.7-0.3-0.4-0.1-0.8-0.3-0.3-0.2-0.7-0.5-0.2-0.1-0.3-0.2-0.2-0.1-0.4-0.3-0.2-0.1-0.3-0.3-0.1-0.2-0.3-0.4-0.1-0.2-0.2-0.4 0-0.2 0-0.4 0-0.2 0-0.5 0-0.2 0.1-0.4 0.2-0.2 0.4-0.3 0.2-0.2 0.4-0.3 0.3 0 0.5 0 0.3 0 0.5 0.1 0.3 0 0.5 0.2 0.2 0.1 0.4 0.3 0.1 0.2 0.3 0.4 0.1 0.2 0.2 0.4c-0.2-0.8 0.5-1.9 1.4-1.8q0.2 0.1 0.4 0.2 0.2 0.2 0.4 0.4 0.1 0.2 0.2 0.4 0.1 0.3 0.1 0.5 0 0.3-0.1 0.5 0 0.3-0.1 0.5-0.1 0.2-0.2 0.5-0.1 0.2-0.2 0.4-0.1 0.2-0.2 0.4-0.2 0.2-0.3 0.5-0.1 0.2-0.1 0.4-0.1 0.3-0.2 0.5"/>
		</g>
		<g id="Layer" style="opacity: .4">
			<path id="Layer" class="s8" d="m190.8 443.9q-0.4-0.1-0.8-0.2-0.3-0.2-0.7-0.3-0.4-0.2-0.8-0.4-0.3-0.2-0.7-0.4-0.2-0.1-0.3-0.2-0.2-0.2-0.4-0.3-0.2-0.2-0.3-0.3-0.1-0.2-0.3-0.4-0.1-0.2-0.2-0.4 0-0.2 0-0.4 0-0.3 0-0.5 0-0.2 0.1-0.4 0.2-0.2 0.4-0.4 0.2-0.1 0.4-0.2 0.3-0.1 0.5-0.1 0.3 0 0.5 0.1 0.3 0.1 0.5 0.2 0.2 0.2 0.4 0.3 0.1 0.2 0.3 0.4 0.1 0.3 0.2 0.5c-0.2-0.9 0.5-1.9 1.4-1.8q0.2 0.1 0.4 0.2 0.2 0.2 0.4 0.4 0.1 0.2 0.2 0.4 0.1 0.2 0.1 0.5 0 0.2-0.1 0.5 0 0.2-0.1 0.5-0.1 0.2-0.2 0.4-0.1 0.2-0.2 0.5-0.1 0.2-0.2 0.4-0.2 0.2-0.3 0.4-0.1 0.3-0.1 0.5-0.1 0.2-0.2 0.5"/>
		</g>
		<g id="Layer" style="opacity: .4">
			<path id="Layer" class="s8" d="m159.9 370.2q-0.4-0.1-0.8-0.2-0.4-0.2-0.8-0.3-0.4-0.2-0.7-0.4-0.4-0.2-0.7-0.4-0.2-0.1-0.4-0.2-0.2-0.2-0.4-0.3-0.1-0.2-0.3-0.3-0.1-0.2-0.2-0.4-0.2-0.2-0.2-0.4-0.1-0.2-0.1-0.4 0-0.3 0-0.5 0.1-0.2 0.2-0.4 0.1-0.2 0.3-0.4 0.2-0.1 0.5-0.2 0.2-0.1 0.5-0.1 0.2 0 0.5 0.1 0.2 0.1 0.4 0.2 0.2 0.2 0.4 0.4 0.2 0.1 0.3 0.3 0.1 0.3 0.2 0.5c-0.2-0.9 0.5-1.9 1.4-1.8q0.3 0.1 0.5 0.2 0.2 0.2 0.3 0.4 0.2 0.2 0.2 0.4 0.1 0.2 0.1 0.5 0 0.2 0 0.5-0.1 0.2-0.1 0.5-0.1 0.2-0.2 0.4-0.1 0.2-0.3 0.5-0.1 0.2-0.2 0.4-0.1 0.2-0.2 0.4-0.1 0.3-0.2 0.5-0.1 0.2-0.1 0.5"/>
		</g>
		<path id="Layer" class="s4" d="m233.2 405.9q-0.1 0-0.2 0.1-0.1 0.1-0.2 0.1-0.1 0.1-0.1 0.1-0.1 0.1-0.2 0.2c-0.5 0.2-1.2 0.7-2.1 1.2q-1 0.5-2 1-1 0.5-2 0.9-1 0.5-2.1 0.9-1 0.3-2.1 0.7c-7.1 2.3-17.5 3.8-29 3-5.7-0.5-11.1-1-16-1.7q-1.6-0.3-3.2-0.6-1.6-0.2-3.3-0.6-1.6-0.3-3.2-0.7-1.6-0.3-3.2-0.8c-3.6-1-6.5-1.9-8.4-2.6-1-0.4-1.8-0.7-2.3-0.9q-0.1 0-0.2-0.1-0.1 0-0.2 0-0.1-0.1-0.2-0.1-0.1-0.1-0.2-0.1 0.1 0 0.2 0 0.1 0 0.2 0.1 0.2 0 0.3 0 0.1 0.1 0.2 0.1c0.5 0.2 1.2 0.5 2.2 0.8 2 0.7 4.9 1.6 8.5 2.5q1.6 0.4 3.2 0.7 1.6 0.4 3.2 0.7 1.6 0.3 3.3 0.6 1.6 0.3 3.2 0.5c4.9 0.7 10.3 1.2 16 1.6 11.4 0.8 21.8-0.5 28.9-2.8q1-0.3 2.1-0.7 1-0.3 2-0.8 1.1-0.4 2.1-0.8 1-0.5 2-1c0.9-0.4 1.6-0.9 2.1-1.2q0 0 0.1-0.1 0.1 0 0.2-0.1 0.1 0 0.2 0 0.1-0.1 0.2-0.1z"/>
		<path id="Layer" class="s2" d="m109.3 385.3q0.5 0.5 1 0.9 0.5 0.5 1 0.9 0.5 0.5 1.1 0.9 0.5 0.4 1.1 0.8l7-2.5 8.7 4.5c0 0 7.8 0.8 7.8 3.6 0.1 2.8 4.7 16.7-1.3 26.1-5.9 9.5-10.1 12.6-10.1 12.6l-20.3-21.5-6-4.7z"/>
	</g>
	<g id="freepik--Table--inject-80">
		<path id="Layer" class="s4" d="m243 457.8c0 0.2-28 0.3-62.5 0.3-34.5 0-62.5-0.1-62.5-0.3 0-0.1 28-0.2 62.5-0.2 34.5 0 62.5 0.1 62.5 0.2z"/>
	</g>
	<g id="g">
		<path id="Layer" class="s6" d="m273.3 177.9c-1.4 0-2.5-1.1-2.5-2.5 0-1.4 1.1-2.5 2.5-2.5 1.3 0 2.4 1.1 2.4 2.5 0 1.4-1.1 2.5-2.4 2.5z"/>
		<path id="Layer" class="s6" d="m51.9 273.4c-1.4 0-2.5-1.1-2.5-2.5 0-1.3 1.1-2.5 2.5-2.5 1.4 0 2.5 1.2 2.5 2.5 0 1.4-1.1 2.5-2.5 2.5z"/>
		<path id="Layer" class="s6" d="m458.5 171.5c0 1-0.6 1.9-1.5 2.3-0.9 0.4-2 0.1-2.7-0.6-0.7-0.7-0.9-1.7-0.6-2.6 0.4-1 1.3-1.6 2.3-1.6q0.5 0 1 0.2 0.4 0.2 0.8 0.5 0.3 0.4 0.5 0.8 0.2 0.5 0.2 1z"/>
		<path id="Layer" class="s6" d="m72.4 148.6c0 1-0.6 1.9-1.6 2.2-0.9 0.4-2 0.2-2.7-0.5-0.7-0.7-0.9-1.8-0.5-2.7 0.4-0.9 1.3-1.5 2.3-1.5q0.5 0 0.9 0.2 0.5 0.1 0.8 0.5 0.4 0.3 0.6 0.8 0.2 0.5 0.2 1z"/>
		<path id="Layer" class="s6" d="m206.6 93.4c-1.4 0-2.5-1.1-2.5-2.5 0-1.4 1.1-2.5 2.5-2.5 1.4 0 2.5 1.1 2.5 2.5 0 1.4-1.1 2.5-2.5 2.5z"/>
		<path id="Layer" class="s6" d="m343.9 122.8c-1.4 0-2.5-1.1-2.5-2.5 0-1.3 1.1-2.5 2.5-2.5 1.3 0 2.4 1.2 2.4 2.5 0 1.4-1.1 2.5-2.4 2.5z"/>
		<path id="Layer" class="s6" d="m304.7 223.3q0.2 0.2 0.2 0.3 0.1 0.2 0.1 0.4 0 0.2-0.1 0.4 0 0.1-0.2 0.3-0.1 0.1-0.3 0.2-0.1 0-0.3 0-0.2 0-0.4 0-0.2-0.1-0.3-0.2-0.2-0.3-0.2-0.7 0-0.3 0.3-0.6 0.2-0.3 0.6-0.3 0.3 0 0.6 0.2z"/>
		<path id="Layer" class="s6" d="m392.6 159.4c0.2 0.3 0.3 0.7 0.2 1-0.2 0.4-0.5 0.6-0.9 0.6-0.4 0-0.7-0.2-0.8-0.6-0.2-0.3-0.1-0.7 0.2-1q0.1-0.1 0.3-0.2 0.1 0 0.3 0 0.2 0 0.4 0 0.1 0.1 0.3 0.2z"/>
		<path id="Layer" class="s6" d="m266.1 119.5c-0.6 0-1-0.5-1-1 0-0.5 0.4-0.9 1-0.9 0.5 0 0.9 0.4 0.9 0.9 0 0.5-0.4 1-0.9 1z"/>
		<path id="Layer" class="s6" d="m391.9 67.5c0.3 0.3 0.4 0.7 0.2 1.1-0.1 0.3-0.5 0.6-0.8 0.6-0.4 0-0.8-0.3-0.9-0.6-0.2-0.4-0.1-0.8 0.2-1.1q0.1-0.1 0.3-0.2 0.2 0 0.4 0 0.1 0 0.3 0 0.2 0.1 0.3 0.2z"/>
		<path id="Layer" class="s6" d="m457.4 220.5c0.2 0.3 0.3 0.7 0.2 1-0.2 0.4-0.5 0.6-0.9 0.6-0.4 0-0.7-0.2-0.9-0.6-0.1-0.3 0-0.7 0.2-1q0.2-0.1 0.3-0.2 0.2-0.1 0.4-0.1 0.2 0 0.4 0.1 0.1 0.1 0.3 0.2z"/>
		<path id="Layer" class="s6" d="m131.6 78.3q0.2 0.3 0.2 0.6-0.1 0.4-0.3 0.7-0.3 0.2-0.6 0.2-0.4 0.1-0.7-0.2-0.1-0.1-0.2-0.3-0.1-0.2-0.1-0.3 0-0.2 0.1-0.4 0.1-0.2 0.2-0.3 0.2-0.1 0.3-0.2 0.2-0.1 0.4-0.1 0.2 0 0.3 0.1 0.2 0.1 0.4 0.2z"/>
		<path id="Layer" class="s6" d="m50.1 222.8c-0.6 0-1-0.5-1-1 0-0.5 0.4-0.9 1-0.9 0.5 0 0.9 0.4 0.9 0.9 0 0.5-0.4 1-0.9 1z"/>
		<path id="Layer" class="s6" d="m40 105.6q0.1 0.1 0.2 0.3 0.1 0.1 0.1 0.3 0 0.2-0.1 0.4-0.1 0.2-0.2 0.3c-0.3 0.3-0.7 0.3-1 0.2-0.4-0.2-0.6-0.5-0.6-0.9 0-0.4 0.2-0.7 0.6-0.8 0.3-0.2 0.7-0.1 1 0.2z"/>
		<path id="Layer" class="s6" d="m263.8 61.5q-0.2 0.1-0.4 0.1-0.2 0-0.4 0-0.1-0.1-0.3-0.2-0.1-0.1-0.2-0.2c-0.2-0.3-0.2-0.5-0.2-0.8 0.1-0.2 0.2-0.5 0.5-0.6 0.2-0.1 0.5-0.2 0.7-0.1 0.3 0.1 0.5 0.3 0.6 0.5q0.1 0.2 0.1 0.4 0 0.1 0 0.3-0.1 0.2-0.2 0.3-0.1 0.2-0.2 0.3z"/>
		<path id="Layer" class="s6" d="m451.8 88.4c0 1-0.6 1.9-1.6 2.3-0.9 0.4-2 0.2-2.7-0.5-0.7-0.7-0.9-1.8-0.5-2.7 0.4-1 1.3-1.6 2.3-1.6q0.5 0 0.9 0.2 0.5 0.2 0.8 0.6 0.4 0.3 0.6 0.8 0.2 0.4 0.2 0.9z"/>
		<path id="Layer" class="s6" d="m309.2 46.8c-1.4 0-2.5-1.2-2.5-2.5 0-1.4 1.1-2.5 2.5-2.5 1.4 0 2.5 1.1 2.5 2.5 0 1.3-1.1 2.5-2.5 2.5z"/>
		<path id="Layer" class="s6" d="m348 203.5c0 1-0.6 1.9-1.5 2.3-1 0.4-2 0.2-2.7-0.5-0.7-0.7-1-1.8-0.6-2.7 0.4-0.9 1.3-1.5 2.3-1.5q0.5 0 1 0.1 0.4 0.2 0.8 0.6 0.3 0.3 0.5 0.8 0.2 0.4 0.2 0.9z"/>
	</g>
</svg>