<svg width="1440" height="146" viewBox="0 0 1440 146" xmlns="http://www.w3.org/2000/svg">
<path d="M0 116.426L8.9 118.827C17.8 121.41 36 125.941 53 114.024C71.1 101.926 89 72.9258 107 72.9258C124.4 72.9258 142 101.926 160 106.774C177.8 111.441 196 92.4102 213 75.3274C231.1 58.4258 249 43.9258 267 46.3274C284.4 48.9102 302 67.9415 320 75.3274C337.8 82.4415 356 77.9102 373 68.0774C391.1 58.4258 409 43.9258 427 31.8274C444.4 19.9102 462 9.94147 480 17.3274C497.8 24.4415 516 48.9102 533 56.0243C551.1 63.4102 569 53.4415 587 48.7743C604.4 43.9258 622 43.9258 640 36.6758C657.8 29.4258 676 14.9258 693 27.0243C711.1 38.9415 729 77.9102 747 97.0774C764.4 116.426 782 116.426 800 99.5243C817.8 82.4415 836 48.9102 853 46.3274C871.1 43.9258 889 72.9258 907 75.3274C924.4 77.9102 942 53.4415 960 36.6758C977.8 19.9102 996 9.94147 1013 10.0774C1031.1 9.94147 1049 19.9102 1067 39.0774C1084.4 58.4258 1102 87.4258 1120 99.5243C1137.8 111.441 1156 106.91 1173 104.327C1191.1 101.926 1209 101.926 1227 85.0243C1244.4 67.9415 1262 34.4102 1280 36.6758C1297.8 38.9415 1316 77.9102 1333 87.4258C1351.1 96.9415 1369 77.9102 1387 75.3274C1404.4 72.9258 1395.6 118.782 1431.1 114.024L1440 85.0243V46.3274V0.425842H1431.1C1422.2 0.425842 1404 0.425842 1387 0.425842C1368.9 0.425842 1351 0.425842 1333 0.425842C1315.6 0.425842 1298 0.425842 1280 0.425842C1262.2 0.425842 1244 0.425842 1227 0.425842C1208.9 0.425842 1191 0.425842 1173 0.425842C1155.6 0.425842 1138 0.425842 1120 0.425842C1102.2 0.425842 1084 0.425842 1067 0.425842C1048.9 0.425842 1031 0.425842 1013 0.425842C995.6 0.425842 978 0.425842 960 0.425842C942.2 0.425842 924 0.425842 907 0.425842C888.9 0.425842 871 0.425842 853 0.425842C835.6 0.425842 818 0.425842 800 0.425842C782.2 0.425842 764 0.425842 747 0.425842C728.9 0.425842 711 0.425842 693 0.425842C675.6 0.425842 658 0.425842 640 0.425842C622.2 0.425842 604 0.425842 587 0.425842C568.9 0.425842 551 0.425842 533 0.425842C515.6 0.425842 498 0.425842 480 0.425842C462.2 0.425842 444 0.425842 427 0.425842C408.9 0.425842 391 0.425842 373 0.425842C355.6 0.425842 338 0.425842 320 0.425842C302.2 0.425842 284 0.425842 267 0.425842C248.9 0.425842 231 0.425842 213 0.425842C195.6 0.425842 178 0.425842 160 0.425842C142.2 0.425842 124 0.425842 107 0.425842C88.9 0.425842 71 0.425842 53 0.425842C35.6 0.425842 18 0.425842 9 0.425842H0V116.426Z" fill="currentColor"/>
</svg>
