<svg version="1.2" xmlns="http://www.w3.org/2000/svg" viewBox="0 0 168 166" width="168" height="166">
	<title>inline-logo-svg</title>
	<style>
		.s0 { fill: #004b41 } 
		.s1 { fill: #d9b01a } 
	</style>
	<g id="Layer_3">
		<g id="Layer">
			<path id="Layer" class="s0" d="m84.2 100.4l45.1-65.9h-49.9-8.4v8.5 12.4l8.4-12.4h33.9l-45.1 65.8h49 8.5v-8.4-12.4l-8.4 12.4z"/>
			<path id="Layer" class="s0" d="m90 31.5h8.4v-22.7-8.4h-8.4-33.5v8.4h33.5z"/>
			<path id="Layer" class="s0" d="m97.8 46.8l-7.8-0.2c-0.2 11.7-9.8 21.2-21.6 21.2-11.9 0-21.6-9.7-21.6-21.6q0-0.3 0-0.6l-7.8-0.1q-0.1 0.6-0.1 1.2c0 16.3 13.2 29.5 29.5 29.5 16.2 0 29.4-13.2 29.4-29.4z"/>
		</g>
		<g id="XMLID_8_">
			<g id="Layer">
				<g id="XMLID_318_">
					<path id="Layer" class="s1" d="m166.4 78.7c-4.3 38.1-40.8 65.2-81.4 60.6-40.3-4.7-69.6-39-65.5-77q-0.1 0.3-0.1 0.6c-4.4 38.5 25.1 73.5 66 78.2 41 4.7 77.7-22.7 82.1-61.1 2.7-23.1-6.9-44.9-23.7-59.6 16.1 14.6 25.2 35.8 22.6 58.3z"/>
				</g>
				<path id="XMLID_317_" class="s1" d="m100.9 132.8c4.1 3.5 10.7 3.1 10.7 3.1 0 0-0.1-6.2-4.2-9.8-4.2-3.6-10.8-3.2-10.8-3.2 0 0 0.1 6.3 4.3 9.9z"/>
				<path id="XMLID_316_" class="s1" d="m111.8 151.4c3.4-4.1 2.3-10.3 2.3-10.3 0 0-6.6 0.5-10 4.7-3.4 4.1-2.3 10.3-2.3 10.3 0 0 6.6-0.5 10-4.7z"/>
				<path id="XMLID_315_" class="s1" d="m85.8 134.3c4 3.7 10.6 3.6 10.6 3.6 0 0 0.2-6.3-3.8-10-3.9-3.8-10.6-3.7-10.6-3.7 0 0-0.2 6.3 3.8 10z"/>
				<path id="XMLID_314_" class="s1" d="m95.7 153.7c3.8-3.9 3.2-10.1 3.2-10.1 0 0-6.6 0-10.4 3.9-3.7 3.8-3.2 10.1-3.2 10.1 0 0 6.7 0 10.4-3.9z"/>
				<path id="XMLID_313_" class="s1" d="m70.1 131.1c2.9 4.5 9.5 5.8 9.5 5.8 0 0 1.7-6.1-1.3-10.6-3-4.5-9.5-5.8-9.5-5.8 0 0-1.7 6 1.3 10.6z"/>
				<path id="XMLID_312_" class="s1" d="m76.4 151.8c4.5-3.2 5.2-9.4 5.2-9.4 0 0-6.6-1.1-11 2-4.5 3.1-5.2 9.4-5.2 9.4 0 0 6.5 1.1 11-2z"/>
				<path id="XMLID_311_" class="s1" d="m55 123.6c1.8 5.1 7.8 7.8 7.8 7.8 0 0 3.2-5.5 1.4-10.5-1.7-5.1-7.8-7.8-7.8-7.8 0 0-3.1 5.5-1.4 10.5z"/>
				<path id="XMLID_310_" class="s1" d="m59.7 146.9c4.7-2.8 6-8.9 6-8.9 0 0-6.4-1.7-11.2 1.1-4.7 2.7-6 8.9-6 8.9 0 0 6.4 1.6 11.2-1.1z"/>
				<path id="XMLID_309_" class="s1" d="m44.9 139.7c5.3-1.6 8.1-7.2 8.1-7.2 0 0-5.8-3.1-11.1-1.5-5.4 1.5-8.2 7.2-8.2 7.2 0 0 5.8 3 11.2 1.5z"/>
				<path id="XMLID_308_" class="s1" d="m31.5 130.4c5.6-0.2 9.9-5 9.9-5 0 0-4.9-4.4-10.5-4.1-5.6 0.2-9.8 5-9.8 5 0 0 4.8 4.4 10.4 4.1z"/>
				<path id="XMLID_307_" class="s1" d="m22.9 118.8c5.6 0.9 10.8-2.8 10.8-2.8 0 0-3.7-5.3-9.3-6.2-5.5-0.9-10.7 2.9-10.7 2.9 0 0 3.7 5.2 9.2 6.1z"/>
				<path id="XMLID_306_" class="s1" d="m51.4 111.8c-0.9-5.2-6.3-8.9-6.3-8.9 0 0-4.1 4.9-3.3 10.2 0.9 5.2 6.4 8.8 6.4 8.8 0 0 4.1-4.9 3.2-10.1z"/>
				<path id="XMLID_305_" class="s1" d="m42.7 102.4c0.6-5.3-3.6-10.1-3.6-10.1 0 0-5.4 3.7-6 8.9-0.7 5.2 3.6 10.1 3.6 10.1 0 0 5.3-3.7 6-8.9z"/>
				<path id="XMLID_304_" class="s1" d="m15.5 106.9c5.6 0.9 10.8-2.8 10.8-2.8 0 0-3.7-5.3-9.2-6.2-5.6-0.9-10.8 2.9-10.8 2.9 0 0 3.7 5.2 9.2 6.1z"/>
				<path id="XMLID_303_" class="s1" d="m36.1 91.8c2-4.9-0.8-10.6-0.8-10.6 0 0-6.2 2.2-8.3 7.1-2 4.9 0.8 10.6 0.8 10.6 0 0 6.2-2.3 8.3-7.1z"/>
				<path id="XMLID_302_" class="s1" d="m9.5 94.4c5.6 0.9 10.8-2.9 10.8-2.9 0 0-3.7-5.2-9.2-6.1-5.6-0.9-10.8 2.8-10.8 2.8 0 0 3.7 5.3 9.2 6.2z"/>
				<path id="XMLID_301_" class="s1" d="m6.4 81.1c4.1 3.6 10.7 3.3 10.7 3.3 0 0 0-6.3-4.1-9.9-4.1-3.7-10.8-3.3-10.8-3.3 0.1 0 0.1 6.2 4.2 9.9z"/>
				<path id="XMLID_300_" class="s1" d="m28.4 66.2c2.7-3.2 1.8-8.1 1.8-8.1 0 0-5.2 0.5-7.8 3.7-2.7 3.3-1.8 8.1-1.8 8.1 0 0 5.2-0.4 7.8-3.7z"/>
				<path id="XMLID_299_" class="s1" d="m24.2 54.3c0.6-4.1-2.7-8-2.7-8 0 0-4.2 2.8-4.8 6.9-0.6 4 2.6 7.9 2.6 7.9 0 0 4.3-2.8 4.9-6.8z"/>
				<path id="XMLID_298_" class="s1" d="m14.4 62.4c-2.5-3.5-7.7-4.3-7.7-4.3 0 0-1.1 4.8 1.4 8.2 2.5 3.5 7.6 4.3 7.6 4.3 0 0 1.1-4.8-1.3-8.2z"/>
				<path id="XMLID_297_" class="s1" d="m32.2 79.3c2.8-4.5 0.9-10.5 0.9-10.5 0 0-6.5 1.3-9.3 5.8-2.8 4.6-0.9 10.6-0.9 10.6 0 0 6.5-1.3 9.3-5.9z"/>
				<path id="XMLID_296_" class="s1" d="m119.2 166.3c0 0 10.7-2.7 16.2-14.3 5.4-11.6 4.3-25 14.7-34.2l5.4-6.6c0 0-5.6 10.4-7.4 17.4-1.7 7.1-4.6 34.6-28.9 37.7z"/>
				<path id="XMLID_295_" class="s1" d="m121.3 125.3c0 0 7.8 1.3 15-4.7 7.2-5.9 10.7-14.8 20.3-17.9l5.6-2.7c0 0-6.9 5.1-10.3 9.1-3.3 4.1-13.8 21-30.6 16.2z"/>
				<path id="XMLID_294_" class="s1" d="m9.8 62.3c0 0-7.4-9.2-8-20.2 0 0 1.1 11.9 9.3 19.4q0.3 0.3 0.6 0.5c8.8 7.4-1.9 0.3-1.9 0.3z"/>
				<path id="XMLID_293_" class="s1" d="m29.9 62.6c0 0 4.8-11.9 1.8-23.8 0 0 2.9 13.1-3.5 23.3q-0.2 0.3-0.5 0.7c-6.9 10.3 2.2-0.2 2.2-0.2z"/>
				<path id="XMLID_292_" class="s1" d="m20.4 48.7l4-24.1-2.5 25.2z"/>
			</g>
		</g>
	</g>
</svg>