<svg version="1.2" xmlns="http://www.w3.org/2000/svg" viewBox="0 0 415 415" width="415" height="415">
	<title>logo-svg</title>
	<style>
		.s0 { fill: #d9b01a } 
	</style>
	<g id="Layer_1">
		<g id="Layer">
			<path id="Layer" fill-rule="evenodd" class="s0" d="m316.1 244q0 0 0 0 0 0 0 0 0 0 0 0zm-6.6 19.2c-2.1 3.2-5.3 3.1-8.4 2.2-9.8-2.8-19-6.8-28.3-10.5-23-9.4-44.8-21.2-65.8-34.2-33.2-20.5-63.9-44.2-91.1-72.6-2-2.2-5.5-4.1-4.2-8.1 1.4-4.3 5.6-5.8 9.1-6.2 10.4-1.2 19.3-6.1 28.2-12 5-3.4 10.6-6 16.1-8.5 5.4-2.5 11-1.1 16.5-1.2 19.6-0.3 35.1 8.2 48.7 21.2 4.4 4.3 9.9 6.8 15.1 9.7 11.3 6.3 22.4 12.7 32.7 20.6-3.2-5.4-8-8.8-13-12.2-3-2-6.1-3.8-9.3-5.4-8.4-4.1-15.1-10-20.8-17.6-9.7-12.9-23.6-17.5-39.2-18.5-4.3-0.3-8.7-0.3-13.1-0.4 0.2-1.5 1.1-1.6 1.8-1.7 28.3-6.2 53.9-2.3 76.4 15.1 12.4 9.5 25.5 18 36.5 29.2 12.3 12.5 22 26.8 25.2 45.3 1 5.4 1.5 10.9 0.6 16.7-2.3 0.1-2.7-1.7-3.6-2.7-2-2.6-4.4-4.8-7.4-5.7-8.3-2.5-14.8-7.7-21.1-13.4-7.1-6.4-15.5-9.7-25.1-10.1-5.7-0.2-11.2-1.1-17.2-3.4 1.7 2.9 3.8 3.8 6.1 4.3 3.4 0.6 6.9 1.2 10.4 1.3 7.4 0.2 13.7 2.7 18.6 7.9 8.4 8.8 18.8 14.4 29.1 20.2 10.5 5.9 10.5 6 7.1 18.4-1.2 4.4-1.6 9-3.9 13.2q0-0.1-0.1-0.1c0 7.1-2.7 13.4-6.6 19.2zm-22.1-30.4c2.3 5 13.5 9.2 28.7 11.2-8.7-5.8-19.7-6.2-28.7-11.2zm-138.3-74.1c4.2 6.4 10.8 11.5 17.7 14.2 12.9 5.1 25.1 11.1 34.2 22.4 5.7 7 13.1 11.7 21.1 15.8 11 5.5 23.1 8.6 33.6 15 0.1 0.1 0.5-0.2 1-0.5-3.5-6.2-9.6-8.5-15.6-10.9-6.4-2.5-13.2-4.1-18.9-8.1-2.4-1.7-4.3-3.7-4.7-7-0.3-2.6-0.3-6.2-4.5-2.6-0.9 0.8-2-0.4-2.7-1.1-8.5-8.9-19.2-14.4-29.9-19.8-10.7-5.3-21.6-10.3-31.3-17.4zm56.3 5.9c-8.6-6.1-13.9-15.1-23.4-19 1.1-0.8 1.9-0.9 2.6-1 1-0.2 2.5 0.1 2.5-1.5 0-1.4-1.5-1.1-2.5-1.2-2 0-4 0.2-6 0.1-7-0.2-14 0.2-19.6-5.2-3.1-2.8-7.8-3.1-13.2-1.8 10.9 4.3 20 10.3 30.8 12.3 8.1 1.5 14.8 4.8 20 11.3 2.1 2.6 4.3 5.4 8.8 6z"/>
			<path id="Layer" fill-rule="evenodd" class="s0" d="m218.3 289.8c5.6 3.7 8.7 10.2 14.4 14 6 3.9 13.5 1.6 19.5 4.7-8.2 2.9-16.4 3.4-24.6 3.1-22.7-1-43.9-7.4-63.5-17.7-14.5-7.7-25-20.6-35.7-33-14.2-16.2-21.5-35.7-24-58-1-9 0.8-18 0.9-27 0-5.6-0.9-10.8-1.8-16.2-0.3-1.7-0.7-3.4-0.7-5.1 0-2.2 0.4-4.5 2.5-5.6 2.3-1.3 4.2-0.3 5.8 1.3 8 8 15.8 16.2 24.2 23.8 19.5 17.9 40.5 34 62.7 48.3 30.9 19.9 64 35.4 98.4 48.3 5.8 2.1 6.5 5.6 2.3 10.9-9.8 12.4-22.6 19.3-36.5 24.6-2.2 0.8-4.2 0.4-6.2-0.4-5.2-2.2-10.6-3.4-16.4-3.3-5.9 0-10.5-2.1-14-6.9-1.8-2.6-3.8-5.3-7.4-5.8zm45.3-13.6c-10.4-3.4-20.6-6.9-29.7-12.7-5.3-3.3-11.1-5.5-17.1-6.9-14.3-3.3-26-10.4-34.7-22.5-2.7-3.8-6.1-7-12.3-7.9 6.4 4.1 10.6 8.9 14.7 13.9 10 12.1 21.6 21.4 38.1 22.4 2 0.1 3.8 0.9 5.6 1.6 1.5 0.6 3.9 0.5 3.6 2.8-0.2 1.8-2.5 1.6-3.8 2.3-1.4 0.8-4.2 0.1-3.8 2.5 0.3 1.9 2.8 1.1 4.4 1.1q1.2-0.1 2.3-0.3c6.4-1.1 11.4 0.5 14.6 6.6 1 2 2.4 4.3 5.7 3.8-1.7-2.3-3.3-4.3-4.8-6.5-0.5-0.8-1.6-1.8-0.7-2.9 0.8-1.2 1.9-0.3 2.9 0.1 4.8 1.6 9.7 2.9 15 2.6zm-72.3 5.3c-4.6-5.1-10.9-6.6-17.1-8.2-5.4-1.3-10.1-3.8-13.7-8.1q-8-9.6-16-19.2c-4.9-6-9.1-12.7-15.9-16.7 3.7 4.7 6.4 10 8 15.9 1.2 4 3.3 6.9 7 8.5 2.7 1.2 4.6 3.3 5.9 6.1 2.1 4.3 5.6 7 9.4 9.5 9.8 6.4 21.9 7.2 32.4 12.2zm-39.8-73.6c-6.8 0-11.1-3.5-15-8.6-5.2-6.8-12.7-10.4-20.5-13.1 1.1 3.4 3.7 5.1 6.5 6.5 3.3 1.7 6.3 3.9 8.6 7 4.9 7 12.2 8.6 20.4 8.2z"/>
		</g>
		<g id="Layer">
			<path id="Layer" class="s0" d="m246.5 383c-4.9 2.9-10.2 3.6-15.4 4.2-26.3 3.4-51.9 0.3-76.2-10.5-24.9-11-48.1-24.7-67.4-44.2-29.9-30.4-45.6-67.1-46.4-109.9-0.1-3-0.3-6.2 1.2-9.8 2.5 4.3 1.8 8.6 2.4 12.5 3.2 22.1 9.8 43.1 19.9 63.1 3.9 7.8 10.3 13.5 16.5 19.2 26.2 24.2 56.7 40.2 91.9 46.7 20.2 3.7 39.7 0.7 59.2-4.8 18.2-5.2 35.5-12.5 51.8-22 1.5-0.9 3.2-1.7 5.4-2.8-0.2 2.7-1.9 3.6-3.2 4.6-22 17.9-46.9 27.9-75.5 29.4-18.2 0.9-36.3 0.6-54.2-2.8-26.3-4.9-49.6-16.2-69.6-34.3 14.6 20.4 40.7 42.2 71.5 51.3 28.8 8.5 58.1 12 88.1 10.1z"/>
			<path id="Layer" class="s0" d="m391.2 228.3c-1.4-3.1-0.7-5.9-0.7-8.7-1.1-54.1-20.1-100.7-59-138.7-19.7-19.3-44.1-29.8-70.6-36.3-21.9-5.4-44-7-66.4-6.1-1.5 0.1-3 0.7-4.7-0.3 1.2-2 3.2-2 5-2.3 35.6-6.8 69.3-1.3 100.9 16.3 25.1 13.9 48.1 30.5 65.6 53.7 19.7 26.1 30.9 55.3 32.9 88.1 0.6 10.5-0.3 20.9-1.3 31.3-0.1 1-0.2 2-1.7 3z"/>
			<path id="Layer" class="s0" d="m309.9 368.9c2.2 12-4.8 20.1-12.2 28-2.4 2.6-3.5 2.6-4.6-1.3-4.4-15.3 1.7-26.5 12.9-35.9 0.9-0.7 1.7-1.9 3-1.4 1.5 0.6 0.9 2 0.9 3.1 0.1 2.5 0 5 0 7.5z"/>
			<path id="Layer" class="s0" d="m313.1 370.4c-0.4-8.1 3.7-13 7.8-17.8 2.3-2.7 4.9-5 7.4-7.4 0.7-0.7 1.5-1.5 2.6-1 1.2 0.5 0.6 1.6 0.5 2.6-0.4 4.3-1.2 8.5-1.2 12.8-0.1 10.1-5.9 17-12.1 23.8-0.9 0.9-1.9 2.2-3.4 1.4-1.2-0.6-0.9-2-0.9-3.1-0.3-4.2-0.5-8.3-0.7-11.3z"/>
			<path id="Layer" class="s0" d="m97.2 100.3c-3.9 0-7 0-10.2 0-0.8 0-1.7 0.1-2.2-0.8-0.4-1 0.3-1.6 0.9-2.1 9.1-7.9 18.2-16.1 31.8-11.6 1.7 0.5 3.6 0.7 5.4 1.1 1.5 0.4 3.9-0.5 4.4 1.2 0.7 2.3-1.9 3.2-3.4 4.3-8.2 5.9-16.9 10-26.7 7.9z"/>
			<path id="Layer" class="s0" d="m316.4 345.3c-7.4-0.4-13.2-3.3-19.4-4.6-2.1-0.4-1.7-1.9-0.4-2.8 7-4.6 14.3-8.9 23-8.6 5.8 0.2 11.4 2 17.3 2 1.8 0 3.4 1 1.5 2.6-6.8 5.6-14.2 9.9-22 11.3z"/>
			<path id="Layer" class="s0" d="m118.3 82.5c-2.4 0-4.7 0-7-0.1-1 0-2.1 0.3-2.6-0.8-0.5-1.1 0.3-1.9 0.9-2.7 8.4-12.2 19.1-16.2 34.2-13.3 3.9 0.8 4.1 2.1 1.6 4.7-7.5 7.5-15.4 14.1-27.1 12.2z"/>
			<path id="Layer" class="s0" d="m72 119.5c-1 0-2 0.4-2.4-0.7-0.3-0.9 0.3-1.6 0.9-2.1 8.6-9.1 17.1-18.8 31.8-14.9 0.5 0.2 1 0.1 1.5 0.2 2.3 0.5 5.9-1.3 6.8 1.2 0.9 2.7-2.7 4-4.6 5.8-7.3 6.7-15.8 10.2-25.9 9.5-2.8-0.2-5.6 0.2-8.1 1z"/>
			<path id="Layer" class="s0" d="m111.3 52.6c-0.4-9.5 5.2-16.1 10.7-22.7 1.6-1.9 2.4-0.4 3 1.2 5.6 14.9 3 25.8-8.7 37-0.8 0.7-1.4 1.6-2.5 1.3-1.2-0.3-1.1-1.5-1.2-2.4q-0.7-7.2-1.3-14.4z"/>
			<path id="Layer" class="s0" d="m291.8 363.4c-4.9-0.9-10-1.8-15.1-2.8-3.1-0.5-3.1-2.1-1.1-3.9 7.3-6.3 14.7-12.2 25.3-10.6 3.8 0.5 7.6 0.6 11.4 0.9 2 0.2 3.2 1.1 1.3 2.8-5.2 4.6-10.3 9.5-16.8 12.4-1.4 0.6-3.2 0.8-5 1.2z"/>
			<path id="Layer" class="s0" d="m330.3 329.7c-5.1 0.1-9.8-1.8-14.8-2.2-2.6-0.2-2.9-1.7-1.1-3.2 7.6-6.1 15.5-11.7 25.9-11 4.4 0.3 8.9 1.1 13.3 0.2 0.8-0.2 1.8-0.3 2.2 0.6 0.1 0.5-0.1 1.5-0.5 1.8-7.3 6.4-14.3 13.5-25 13.8z"/>
			<path id="Layer" class="s0" d="m91.3 87.3c0.7-12.6-2.3-25.1 6.3-35.6 0.7-0.9 1.3-2 2-2.8 1.5-1.6 2.6-4.5 4.7-3.9 2.4 0.6 1.2 3.7 1.7 5.7 0.3 1.5 0.5 2.9 0.8 4.4 2.2 11.8-4 25.2-15.5 32.2z"/>
			<path id="Layer" class="s0" d="m370.8 319.2c1.6 9.9-3.3 18.4-9.7 26.3-0.8 1-1.7 2.4-3.1 2.1-1.6-0.4-1.2-2.2-1.4-3.4-0.1-1 0-2.1-0.3-3-4.9-13.4 2-23 10.3-32.1 0.9-1.1 1.8-2.9 3.5-2 1.4 0.7 0.7 2.4 0.7 3.7 0 2.5 0 5 0 8.4z"/>
			<path id="Layer" class="s0" d="m146 45.7c-1.4 0-1.4-1.2-0.8-2.3 4.7-9.6 8.9-19.7 21-22.3 3.3-0.7 6.5-1.4 9.8-2.1 0.9-0.2 2-1 2.8 0 0.8 0.9 0.2 1.9-0.3 2.8-4.7 8.3-10 16.1-19.9 19.2-4.2 1.2-8.1 3-12.6 4.7z"/>
			<path id="Layer" class="s0" d="m350.6 292.1c-5.3-0.5-9.8-0.9-14.2-1.2-3.2-0.3-2.4-1.7-1-3.1 6.9-6.7 14.4-12.3 24.6-12.6 4.1-0.1 8.3 0.2 12.4-0.7 1.9-0.4 3.5 0.4 1.9 2.2-6.8 7.4-13.6 14.8-23.7 15.3z"/>
			<path id="Layer" class="s0" d="m82.8 180.4c-0.1 0.4-0.3 0.8-0.6 1.2-5.3 7.6-11 14.7-20.8 16.9-3.8 0.9-7.7 2-11.5 3-1.1 0.3-2.3 1.4-3.3 0.3-1.1-1.2 0.1-2.5 0.7-3.6 6.7-11 14.9-19.6 29.2-19 1.5 0.1 3-0.3 4.5-0.5 1.2-0.1 2 0.2 1.8 1.7z"/>
			<path id="Layer" class="s0" d="m45.5 170.4c-0.1 2.2 0.6 5.7-1.3 6.4-2.5 0.9-3-2.8-4.5-4.4-5.6-6.1-11.9-11.8-12.8-20.9-0.4-3.8-0.8-7.6-1.1-11.4-0.1-0.9 0-2.1 1.1-2.6 1.1-0.5 1.7 0.7 2.3 1.4 1 0.9 1.8 2 2.9 2.7 10.7 6.7 14.1 16.7 13.4 28.8z"/>
			<path id="Layer" class="s0" d="m82.5 140.2c1.4 0.2 3.8 0.3 6.1 0.6 1.5 0.1 3.6-1.5 4.3 0.7 0.6 1.7-1.3 2.8-2.4 4-7.1 7.9-15.6 12.9-26.6 13-2.4 0.1-4.9 0.8-7.3 1.3-2.2 0.5-2.8-0.2-1.9-2.3 3.7-8.7 17.3-17.4 27.8-17.3z"/>
			<path id="Layer" class="s0" d="m350.3 273.2c-2.8 0.5-2.9-1-1.6-2.7 5.6-7.3 11-14.7 20.9-16.6 4.4-0.9 8.8-1.8 12.9-3.6 0.8-0.3 1.7-0.7 2.3 0 0.6 0.8 0.1 1.6-0.2 2.3-4.2 11.2-15.7 19.5-27.4 19.9-2.3 0.1-4.6 0.5-6.9 0.7z"/>
			<path id="Layer" class="s0" d="m58.1 141.5c2.3-9.8 13.7-20.4 22.8-21.6 3.7-0.4 7.3-0.7 11-0.9 1-0.1 2.4-1 3.1 0.5 0.4 1-0.3 1.9-0.9 2.7-5.8 8-12.6 14.7-23 16.3-4.3 0.7-8.6 2-13 3z"/>
			<path id="Layer" class="s0" d="m355.5 253.3c-2.4-0.6-6.3 1.8-7.2-0.6-0.9-2.7 2.7-5 4.7-7.1 6.2-6.5 13.5-10.5 22.8-10.7 2.3-0.1 4.5-0.9 6.8-1.4 1.2-0.2 2.6-1.5 3.5 0 0.7 1.1-0.4 2.2-1.1 3.1-7.4 9.8-15.2 18.9-29.5 16.7z"/>
			<path id="Layer" class="s0" d="m340.5 312.4c-1.3 0-1.5 0-1.7 0-2.6-0.6-6.9 1.5-7.8-1-1.1-3.1 3-5 5.1-7.2 5.6-5.7 12.2-9.1 20.2-9.8 3.3-0.3 6.6-1 9.9-1.5 0.9-0.2 2-0.9 2.8 0 0.7 1 0 2-0.6 2.7-7.6 9.2-15 18.9-27.9 16.8z"/>
			<path id="Layer" class="s0" d="m332.7 353.1c0.2-2.3 0.8-5.7 2.7-8.8 3.4-5.2 7.7-9.6 12.2-13.7 0.7-0.7 1.5-1.7 2.6-1.1 1.1 0.5 0.7 1.7 0.4 2.7-0.9 3.4-0.7 6.9-0.7 10.4 0 10.7-5.8 18.4-12.7 25.7-0.7 0.7-1.5 1.5-2.6 1-1.2-0.4-0.9-1.6-1-2.6-0.3-4.1-0.5-8.2-0.9-13.6z"/>
			<path id="Layer" class="s0" d="m55.3 128.9c0.4-7.4-1.1-13.1-1.5-18.8-0.5-9 4-16.4 9-23.3 1.6-2.1 2.7-1.1 3.2 1.2 0.6 2.9 1.3 5.8 2.2 8.7 1.9 6.2 1.4 12.1-2 17.8-2.8 4.7-5.5 9.7-10.9 14.4z"/>
			<path id="Layer" class="s0" d="m388.7 243.6c0.2-2.9-1-7 1.7-8.2 2-0.8 3 3.7 5 5.4 9 7.7 12.6 17.7 12.5 29.2 0 1.5 0.5 3.3-0.9 4.2-1.9 1-2.4-1.3-3.5-2.1-1-0.6-1.7-1.5-2.7-2.2-9.4-6.3-12.7-15.4-12.1-26.3z"/>
			<path id="Layer" class="s0" d="m390.1 304.2c-0.3 7.2-1.3 12.4-3.2 17.4-0.3 0.7-0.8 1.6-1.5 1.8-1.2 0.4-1.6-0.8-2-1.7-0.8-1.3-1.3-2.8-2.2-3.9-9.4-11-6.4-22.6-1.7-34.2 0.4-1.1 0.7-2.5 2.1-2.5 1.6 0 1.2 1.7 1.6 2.7 1.7 4 3.3 8 4.9 12 1.4 3.3 2.2 6.6 2 8.4z"/>
			<path id="Layer" class="s0" d="m79.3 158.9c1.9-0.2 2.2 1 1.2 2.7-4.5 7.6-9.4 15-18.4 18.2-4.1 1.4-8.2 2.8-12.3 4.2-1.1 0.3-2.4 1.8-3.5 0.4-0.9-1.2 0.1-2.5 0.7-3.7 6-11.3 13.5-20.7 27.9-20.8 1.3 0 2.6-0.5 4.4-1z"/>
			<path id="Layer" class="s0" d="m43 194.6c0 0.6 0.1 1.3 0 2-0.1 1.2 0.5 3-0.8 3.7-1.8 0.9-2.3-1.3-3.3-2.3-1.8-1.7-3.3-3.7-5.3-5.2-8.4-6.7-10.9-15.9-12-25.9-0.2-1.3-0.5-2.9 0.7-3.8 1.4-1 2.3 0.7 3.3 1.4 1 0.7 1.8 1.5 2.8 2.1 11.2 6 14.7 16 14.6 28z"/>
			<path id="Layer" class="s0" d="m36.4 126.8c-0.2-4.3 0.5-8.2 1.4-12.1 0.2-1.1 0.4-2.5 1.9-2.7 1.2-0.1 1.5 1.2 2 1.9 0.9 1.3 1.5 2.7 2.6 3.7 9.8 9.9 8.2 21.4 4.6 33.2-0.4 1.1-0.5 2.9-2.1 2.9-1.7 0-1.6-1.9-2.2-3-1.4-2.6-2.6-5.4-4.1-8-3-5-4.7-10.3-4.1-15.9z"/>
			<path id="Layer" class="s0" d="m384.4 270.8c0.1-3.5-0.3-7 0.7-10.4 0.2-0.8 0.3-1.8 1.2-2 1-0.3 1.4 0.6 1.8 1.3 2.1 4.3 5.3 7.7 8.1 11.4 5.5 7.5 5.6 16.1 5.2 24.8-0.1 1.2-0.2 2.6-1.4 3.1-1.5 0.6-1.7-1.1-2.5-1.9-1.4-1.4-2.6-3-4.1-4.3-7-5.7-10.4-12.9-9-22.1z"/>
			<path id="Layer" class="s0" d="m73.4 91.9c-1.8-11.1 3.2-19.8 9.8-27.8 0.8-1 1.6-2.6 3.1-2 1.3 0.6 0.6 2.1 0.8 3.2 0.3 1.1 0.4 2.3 0.8 3.4 4.3 13.5-2.2 23.5-10.9 32.7-0.7 0.8-1.6 2-2.8 1.6-1.5-0.6-0.8-2.1-0.8-3.1 0-2.7 0-5.4 0-8z"/>
			<path id="Layer" class="s0" d="m240 404.8c-2.3 0.1-2.1-1.4-1.1-2.8 5.1-7.4 10.5-14.6 19.8-17.3q6.5-1.8 12.9-3.6c0.8-0.2 1.6-0.9 2.3-0.2 1 0.8 0.4 1.9-0.1 2.7-6.3 10.4-12.7 20.6-27.1 20.1-2.1-0.1-4.3 0.7-6.7 1.1z"/>
			<path id="Layer" class="s0" d="m145.7 61.2c-3.3-0.1-9.1 0.8-9.6-1.3-0.8-3.4 4.3-5.1 6.7-7.7 7.4-7.9 16.2-6 25.1-4 2.7 0.7 1.7 2.5 0.4 3.7-6.5 5.6-12.9 11.3-22.6 9.3z"/>
			<path id="Layer" class="s0" d="m128.6 40.7c0.3-6.5 4.9-11.9 9.9-17.1 1.8-1.8 2.8-0.8 3.4 1.3 3.9 12.5 1 22.3-9.3 30.6-0.6 0.6-1.2 1.3-2.1 1-1.2-0.4-1-1.6-1.1-2.5-0.3-4-0.5-8-0.8-13.3z"/>
			<path id="Layer" class="s0" d="m268 364.3c5.7 0.7 10.3 1.2 14.9 1.8 2.7 0.3 2.6 1.5 1.1 3.2-7.8 9.1-22 12.1-32.2 7-1.7-0.8-2.1-1.9-0.7-3 5.3-4.4 10.7-8.4 16.9-9z"/>
			<path id="Layer" class="s0" d="m275.6 394.4c-2.2-11.1 5.7-16.5 12.2-22.6 1.7-1.6 2.9-1 3.1 1.5 0.5 10.8-0.6 21.1-10 28.4-1.1 0.9-2.1 2.6-3.7 2.2-2-0.6-1.5-2.7-1.6-4.3-0.2-1.8-0.1-3.6-0.1-5.2z"/>
		</g>
	</g>
	<g id="Layer_2">
	</g>
</svg>