<svg width="84" height="10" viewBox="0 0 84 10" fill="none" xmlns="http://www.w3.org/2000/svg">
<path d="M1.12168 2.51701C0.866265 2.32612 0.739075 2.09118 0.739075 1.81142C0.739075 1.54015 0.866265 1.30907 1.12168 1.11896C1.3771 0.92884 1.69147 0.833008 2.06581 0.833008C2.42877 0.833008 2.73796 0.928067 2.99235 1.11896C3.24777 1.30985 3.37496 1.54092 3.37496 1.81142C3.37496 2.09118 3.24777 2.32612 2.99235 2.51701C2.73693 2.7079 2.42774 2.80296 2.06581 2.80296C1.69147 2.80296 1.37607 2.70713 1.12168 2.51701ZM0.959333 3.47687H3.17021V9.83266H0.959333V3.47687Z" fill="#354476"/>
<path d="M12.2214 9.83305H10.0105V6.48977C10.0105 5.97274 9.88848 5.59328 9.64444 5.35215C9.40039 5.11026 9.01261 4.98969 8.47902 4.98969C7.94544 4.98969 7.55765 5.11026 7.31361 5.35215C7.06956 5.59405 6.94754 5.97274 6.94754 6.48977V9.83305H4.73666V6.48977C4.73666 5.45571 5.07688 4.67824 5.75731 4.15735C6.43774 3.63646 7.34463 3.37524 8.47902 3.37524C9.61238 3.37524 10.5203 3.63569 11.2007 4.15735C11.8812 4.67824 12.2214 5.45649 12.2214 6.48977V9.83305Z" fill="#354476"/>
<path d="M25.623 4.16353C26.3262 4.68906 26.6778 5.46422 26.6778 6.48977V9.83305H24.4669V6.48977C24.4669 5.98124 24.3366 5.6041 24.076 5.35834C23.8154 5.11258 23.407 4.98969 22.8517 4.98969C22.3077 4.98969 21.9013 5.11258 21.6356 5.35834C21.3688 5.6041 21.2354 5.98124 21.2354 6.48977V9.83305H19.0245V6.48977C19.0245 5.98124 18.8942 5.6041 18.6336 5.35834C18.373 5.11258 17.9646 4.98969 17.4092 4.98969C16.8653 4.98969 16.4589 5.11258 16.1932 5.35834C15.9264 5.6041 15.793 5.98124 15.793 6.48977V9.83305H13.5821V6.48977C13.5821 5.46422 13.9337 4.68906 14.6369 4.16353C15.34 3.63801 16.2635 3.37524 17.4092 3.37524C17.9759 3.37524 18.495 3.44944 18.9655 3.59782C19.4361 3.7462 19.8249 3.96414 20.131 4.25241C20.4371 3.96414 20.8259 3.7462 21.2964 3.59782C21.7669 3.44944 22.286 3.37524 22.8527 3.37524C23.9954 3.37524 24.9198 3.63801 25.623 4.16353Z" fill="#354476"/>
<path d="M28.4204 2.51701C28.165 2.32612 28.0378 2.09118 28.0378 1.81142C28.0378 1.54015 28.165 1.30907 28.4204 1.11896C28.6758 0.928067 28.9902 0.833008 29.3645 0.833008C29.7275 0.833008 30.0367 0.928067 30.2911 1.11896C30.5465 1.30985 30.6737 1.54092 30.6737 1.81142C30.6737 2.09118 30.5465 2.32612 30.2911 2.51701C30.0356 2.7079 29.7264 2.80296 29.3645 2.80296C28.9902 2.80296 28.6758 2.70713 28.4204 2.51701ZM28.2591 3.47687H30.47V9.83266H28.2591V3.47687Z" fill="#354476"/>
<path d="M39.5201 9.83305H37.3092V6.48977C37.3092 5.97274 37.1872 5.59328 36.9431 5.35215C36.6991 5.11026 36.3113 4.98969 35.7777 4.98969C35.2441 4.98969 34.8563 5.11026 34.6123 5.35215C34.3682 5.59405 34.2462 5.97274 34.2462 6.48977V9.83305H32.0353V6.48977C32.0353 5.45571 32.3756 4.67824 33.056 4.15735C33.7364 3.63646 34.6433 3.37524 35.7777 3.37524C36.9111 3.37524 37.819 3.63569 38.4994 4.15735C39.1798 4.67824 39.5201 5.45649 39.5201 6.48977V9.83305Z" fill="#354476"/>
<path d="M49.0537 8.19938C48.6628 8.70404 48.1323 9.10205 47.4632 9.39418C46.7942 9.68631 46.0631 9.83238 45.2689 9.83238C44.4747 9.83238 43.7436 9.68631 43.0746 9.39418C42.4055 9.10205 41.873 8.70327 41.4759 8.19938C41.0788 7.69549 40.8802 7.14678 40.8802 6.55324C40.8802 5.96048 41.0788 5.41177 41.4759 4.90711C41.873 4.40322 42.4055 4.00444 43.0746 3.7123C43.7436 3.42017 44.4747 3.27411 45.2689 3.27411C46.0962 3.27411 46.8107 3.43486 47.4115 3.75713V0.833496H49.64V6.55402C49.64 7.14601 49.4446 7.69472 49.0537 8.19938ZM43.7043 5.36462C43.2959 5.68226 43.0922 6.07872 43.0922 6.55324C43.0922 7.02776 43.2959 7.42423 43.7043 7.74186C44.1128 8.0595 44.6288 8.2187 45.2524 8.2187C45.8759 8.2187 46.3971 8.0595 46.8169 7.74186C47.2368 7.42423 47.4467 7.02776 47.4467 6.55324C47.4467 6.07872 47.2368 5.68226 46.8169 5.36462C46.3971 5.04699 45.8759 4.88778 45.2524 4.88778C44.6288 4.88778 44.1128 5.04622 43.7043 5.36462Z" fill="#354476"/>
<path d="M63.7561 3.47681L61.1026 9.83259H58.8917L57.3778 6.01943L55.8474 9.83259H53.6365L51.0006 3.47681H53.2456L54.7419 7.65861L56.2724 3.47681H58.4833L59.9972 7.65861L61.5111 3.47681H63.7561Z" fill="#354476"/>
<path d="M65.6868 4.93418C66.0664 4.43029 66.5886 4.02764 67.2514 3.72624C67.9153 3.4256 68.6433 3.2749 69.4375 3.2749C70.1634 3.2749 70.8604 3.4001 71.5294 3.64973C72.1985 3.90013 72.7507 4.26181 73.1881 4.73633C73.6245 5.21085 73.8541 5.77038 73.8768 6.41416C73.8882 6.68542 73.8654 6.94818 73.8086 7.20245H67.4986C67.6009 7.51622 67.8243 7.7643 68.1707 7.94591C68.5161 8.1283 68.939 8.2195 69.4375 8.2195C69.7891 8.2195 70.0755 8.18549 70.2968 8.11748C70.5181 8.04947 70.7187 7.9606 70.9007 7.85086L73.5366 7.86322C73.185 8.44826 72.6462 8.92278 71.9203 9.28678C71.1944 9.65156 70.3899 9.83318 69.5047 9.83318C68.6991 9.83318 67.9629 9.68711 67.2938 9.39498C66.6248 9.10285 66.0943 8.70638 65.7034 8.20636C65.3125 7.70634 65.1171 7.15994 65.1171 6.5664C65.1171 5.98291 65.3073 5.43884 65.6868 4.93418ZM71.5129 5.88167C71.3433 5.5849 71.0734 5.3461 70.7053 5.16371C70.3371 4.98132 69.9369 4.89013 69.5057 4.89013C69.029 4.89013 68.6216 4.979 68.2814 5.15675C67.9412 5.33451 67.6806 5.5764 67.4986 5.88167H71.5129Z" fill="#354476"/>
<path d="M75.2402 0.833496H77.4687V3.75713C78.0695 3.43486 78.7841 3.27411 79.6113 3.27411C80.4045 3.27411 81.1366 3.42017 81.8057 3.7123C82.4747 4.00444 83.0073 4.40322 83.4044 4.90711C83.8014 5.41099 84 5.96048 84 6.55324C84 7.14678 83.8014 7.69549 83.4044 8.19938C83.0073 8.70404 82.4747 9.10205 81.8057 9.39418C81.1366 9.68631 80.4055 9.83238 79.6113 9.83238C78.8171 9.83238 78.086 9.68631 77.417 9.39418C76.7479 9.10205 76.2175 8.70327 75.8266 8.19938C75.4357 7.69549 75.2402 7.14678 75.2402 6.55324V0.833496ZM78.0643 5.3654C77.6445 5.68303 77.4346 6.0795 77.4346 6.55402C77.4346 7.02854 77.6445 7.425 78.0643 7.74264C78.4831 8.06027 79.0054 8.21948 79.6289 8.21948C80.2525 8.21948 80.7685 8.06027 81.1769 7.74264C81.5854 7.425 81.7891 7.02854 81.7891 6.55402C81.7891 6.0795 81.5854 5.68303 81.1769 5.3654C80.7685 5.04776 80.2525 4.88856 79.6289 4.88856C79.0054 4.88856 78.4831 5.04699 78.0643 5.3654Z" fill="#354476"/>
</svg>
