<svg width="402" height="103" viewBox="0 0 402 103" fill="none" xmlns="http://www.w3.org/2000/svg">
<path d="M29.474 16.42C27.682 14.628 26.786 12.452 26.786 9.892C26.786 7.332 27.682 5.156 29.474 3.364C31.266 1.48666 33.442 0.547997 36.002 0.547997C38.562 0.547997 40.738 1.48666 42.53 3.364C44.4073 5.156 45.346 7.332 45.346 9.892C45.346 12.452 44.4073 14.628 42.53 16.42C40.738 18.212 38.562 19.108 36.002 19.108C33.442 19.108 31.266 18.212 29.474 16.42ZM25.378 29.86C31.6927 29.86 36.386 29.604 39.458 29.092L41.122 28.708C40.2687 33.316 38.8607 40.996 36.898 51.748C35.0207 62.4147 33.6553 70.052 32.802 74.66C31.1807 83.7907 28.2367 90.6173 23.97 95.14C19.7887 99.748 13.858 102.052 6.178 102.052C3.618 102.052 1.65533 101.668 0.29 100.9L1.186 98.468C2.63667 99.236 4.47133 99.62 6.69 99.62C8.82333 99.62 10.4873 98.8093 11.682 97.188C12.8767 95.652 13.9007 92.6227 14.754 88.1C17.7407 71.972 21.1967 53.3267 25.122 32.164H19.618L19.874 29.86H25.378ZM91.236 79.652C83.7267 79.652 79.6307 76.3667 78.948 69.796C75.1933 76.3667 70.4573 79.652 64.74 79.652C59.0227 79.652 54.4573 77.9453 51.044 74.532C47.716 71.0333 46.052 66.1693 46.052 59.94C46.052 50.212 48.4413 42.5747 53.22 37.028C57.9987 31.4813 64.1853 28.708 71.78 28.708C78.0093 28.708 82.148 31.652 84.196 37.54C84.6227 34.98 85.092 32.42 85.604 29.86C91.9187 29.86 96.612 29.604 99.684 29.092L101.348 28.708L92.516 77.092C95.076 76.836 97.2093 75.6413 98.916 73.508L100.836 75.044C98.276 78.116 95.076 79.652 91.236 79.652ZM60.516 66.468C60.516 70.308 60.9853 72.996 61.924 74.532C62.948 75.9827 64.484 76.708 66.532 76.708C68.58 76.708 70.6707 75.5987 72.804 73.38C75.62 70.4787 77.8813 66.8093 79.588 62.372C79.844 61.2627 80.3133 58.6173 80.996 54.436C81.764 50.1693 82.404 46.6707 82.916 43.94C82.66 40.6973 81.764 37.8813 80.228 35.492C78.692 33.1027 76.772 31.908 74.468 31.908C70.2867 31.908 66.916 35.6627 64.356 43.172C61.796 50.596 60.516 58.3613 60.516 66.468ZM173.204 44.58C171.412 42.788 170.516 40.612 170.516 38.052C170.516 35.492 171.412 33.316 173.204 31.524C174.996 29.6467 177.001 28.708 179.22 28.708C181.524 28.708 183.444 29.3053 184.98 30.5C186.601 31.6093 187.753 33.06 188.436 34.852C188.521 34.9373 188.564 35.0227 188.564 35.108V35.236C189.588 37.4547 190.1 40.5267 190.1 44.452C190.1 48.292 189.844 51.5773 189.332 54.308C188.82 57.0387 187.881 59.94 186.516 63.012C185.151 66.084 183.487 68.8573 181.524 71.332C179.561 73.7213 176.916 75.7267 173.588 77.348C170.345 78.884 166.719 79.652 162.708 79.652C155.881 79.652 150.761 77.1773 147.348 72.228C143.252 77.1773 137.663 79.652 130.58 79.652C125.119 79.652 120.639 77.9453 117.14 74.532C113.727 71.1187 112.02 67.1933 112.02 62.756C112.02 58.3187 112.788 52.8573 114.324 46.372C115.945 39.8013 116.841 34.7667 117.012 31.268C115.647 31.3533 114.324 31.8653 113.044 32.804C111.764 33.6573 110.825 34.5107 110.228 35.364L109.332 36.644L107.412 35.108C107.668 34.596 108.052 33.9987 108.564 33.316C109.076 32.6333 110.356 31.6947 112.404 30.5C114.537 29.3053 117.183 28.708 120.34 28.708C123.497 28.708 126.015 29.732 127.892 31.78C129.855 33.828 130.836 36.4307 130.836 39.588C130.836 42.7453 129.983 47.652 128.276 54.308C126.569 60.8787 125.716 65.5293 125.716 68.26C125.716 70.9053 126.313 72.996 127.508 74.532C128.788 76.068 130.58 76.836 132.884 76.836C137.833 76.836 142.057 74.276 145.556 69.156C144.617 66.7667 144.148 63.9933 144.148 60.836C144.148 57.6787 144.916 52.8573 146.452 46.372C148.073 39.8013 148.969 34.7667 149.14 31.268C147.775 31.3533 146.452 31.8653 145.172 32.804C143.892 33.6573 142.953 34.5107 142.356 35.364L141.46 36.644L139.54 35.108C139.796 34.596 140.18 33.9987 140.692 33.316C141.204 32.6333 142.484 31.6947 144.532 30.5C146.665 29.3053 149.311 28.708 152.468 28.708C155.625 28.708 158.143 29.732 160.02 31.78C161.983 33.828 162.964 36.4307 162.964 39.588C162.964 42.7453 162.111 47.652 160.404 54.308C158.697 60.8787 157.844 65.5293 157.844 68.26C157.844 70.9053 158.441 72.996 159.636 74.532C160.916 76.068 162.708 76.836 165.012 76.836C170.729 76.836 175.849 73.764 180.372 67.62C184.895 61.3907 187.156 54.3933 187.156 46.628C187.156 46.0307 187.071 45.1347 186.9 43.94C185.108 46.1587 182.804 47.268 179.988 47.268C177.257 47.268 174.996 46.372 173.204 44.58ZM207.182 31.14C205.049 31.14 203.257 31.8653 201.806 33.316C200.355 34.7667 199.63 36.4733 199.63 38.436C199.63 40.3987 200.185 42.404 201.294 44.452L198.99 45.348C197.625 43.6413 196.942 41.38 196.942 38.564C196.942 35.748 197.881 33.4013 199.758 31.524C201.721 29.6467 204.067 28.708 206.798 28.708C209.529 28.708 213.155 29.1347 217.678 29.988C222.286 30.756 227.406 31.14 233.038 31.14C238.755 31.0547 242.979 30.6707 245.71 29.988L211.79 75.172C216.313 76.5373 221.262 77.2627 226.638 77.348C230.051 77.348 232.995 76.4093 235.47 74.532C238.03 72.5693 239.694 70.6493 240.462 68.772L241.614 65.956L243.79 66.724C243.022 69.796 241.273 72.74 238.542 75.556C235.811 78.2867 231.715 79.652 226.254 79.652C220.878 79.652 215.971 79.0547 211.534 77.86C207.097 76.6653 203.854 76.068 201.806 76.068C199.758 76.068 197.923 76.8787 196.302 78.5H193.998L227.534 33.188C223.097 33.0173 219.129 32.6333 215.63 32.036C212.131 31.4387 209.315 31.14 207.182 31.14ZM295.111 79.652C287.602 79.652 283.506 76.3667 282.823 69.796C279.068 76.3667 274.332 79.652 268.615 79.652C262.898 79.652 258.332 77.9453 254.919 74.532C251.591 71.0333 249.927 66.1693 249.927 59.94C249.927 50.212 252.316 42.5747 257.095 37.028C261.874 31.4813 268.06 28.708 275.655 28.708C281.884 28.708 286.023 31.652 288.071 37.54C288.498 34.98 288.967 32.42 289.479 29.86C295.794 29.86 300.487 29.604 303.559 29.092L305.223 28.708L296.391 77.092C298.951 76.836 301.084 75.6413 302.791 73.508L304.711 75.044C302.151 78.116 298.951 79.652 295.111 79.652ZM264.391 66.468C264.391 70.308 264.86 72.996 265.799 74.532C266.823 75.9827 268.359 76.708 270.407 76.708C272.455 76.708 274.546 75.5987 276.679 73.38C279.495 70.4787 281.756 66.8093 283.463 62.372C283.719 61.2627 284.188 58.6173 284.871 54.436C285.639 50.1693 286.279 46.6707 286.791 43.94C286.535 40.6973 285.639 37.8813 284.103 35.492C282.567 33.1027 280.647 31.908 278.343 31.908C274.162 31.908 270.791 35.6627 268.231 43.172C265.671 50.596 264.391 58.3613 264.391 66.468ZM360.695 77.092C362.743 77.092 364.876 75.8973 367.095 73.508L369.015 75.044C368.418 76.2387 367.095 77.3053 365.047 78.244C362.999 79.1827 360.738 79.652 358.263 79.652C350.498 79.652 346.615 76.1533 346.615 69.156C346.615 66.1693 347.383 60.836 348.919 53.156C350.455 45.476 351.223 40.4413 351.223 38.052C351.223 34.3827 349.474 32.548 345.975 32.548C340.684 32.548 336.247 39.332 332.663 52.9L328.055 78.5H312.695L321.143 31.268C318.583 31.524 316.45 32.7187 314.743 34.852L312.823 33.316C315.383 30.244 318.583 28.708 322.423 28.708C326.348 28.708 329.378 29.6893 331.511 31.652C333.644 33.6147 334.711 36.388 334.711 39.972V40.356C338.039 32.5907 343.074 28.708 349.815 28.708C354.594 28.708 358.348 30.0307 361.079 32.676C363.895 35.236 365.431 38.8627 365.687 43.556C367.308 38.8627 369.356 35.236 371.831 32.676C374.306 30.0307 377.89 28.708 382.583 28.708C387.276 28.708 391.031 30.1587 393.847 33.06C396.663 35.876 398.071 39.8013 398.071 44.836C398.071 47.4813 397.26 52.6013 395.639 60.196C394.018 67.7053 393.122 73.3373 392.951 77.092C394.999 77.092 397.132 75.8973 399.351 73.508L401.271 75.044C400.674 76.2387 399.351 77.3053 397.303 78.244C395.255 79.1827 392.994 79.652 390.519 79.652C382.754 79.652 378.871 76.1533 378.871 69.156C378.871 66.1693 379.639 60.836 381.175 53.156C382.711 45.476 383.479 40.4413 383.479 38.052C383.479 34.3827 381.73 32.548 378.231 32.548C372.087 32.548 367.138 41.6787 363.383 59.94C361.762 67.7053 360.866 73.4227 360.695 77.092Z" fill="#F871A6"/>
</svg>
