<?xml version="1.0" encoding="utf-8"?>
<!-- Generator: Adobe Illustrator 23.0.0, SVG Export Plug-In . SVG Version: 6.00 Build 0)  -->
<svg version="1.1" xmlns="http://www.w3.org/2000/svg" xmlns:xlink="http://www.w3.org/1999/xlink" x="0px" y="0px"
	 viewBox="0 0 716.94 663.83" style="enable-background:new 0 0 716.94 663.83;" xml:space="preserve">
<style type="text/css">
	.st0{fill:#D9B01A;}
	.st1{fill:#333333;}
	.st2{fill:url(#SVGID_1_);}
	.st3{fill:url(#SVGID_2_);}
	.st4{fill:url(#SVGID_3_);}
	.st5{fill:url(#SVGID_4_);}
	.st6{fill:url(#SVGID_5_);}
	.st7{fill:url(#SVGID_6_);}
	.st8{fill:url(#SVGID_7_);}
	.st9{fill:url(#SVGID_8_);}
	.st10{fill:url(#SVGID_9_);}
	.st11{fill:#FFFFFF;}
	.st12{fill:url(#SVGID_10_);}
	.st13{fill:url(#SVGID_11_);}
	.st14{fill:url(#SVGID_12_);}
	.st15{fill:url(#SVGID_13_);}
	.st16{fill:url(#SVGID_14_);}
	.st17{fill:url(#SVGID_15_);}
	.st18{fill:url(#SVGID_16_);}
	.st19{fill:url(#SVGID_17_);}
	.st20{opacity:0.25;fill:url(#SVGID_18_);}
	.st21{fill:url(#SVGID_19_);}
	.st22{opacity:0.25;fill:url(#SVGID_20_);}
	.st23{opacity:0.25;fill:url(#SVGID_21_);}
	.st24{fill:url(#SVGID_22_);}
	.st25{fill:url(#SVGID_23_);}
	.st26{fill:url(#SVGID_24_);}
	.st27{opacity:0.25;fill:#FFFFFF;}
	.st28{opacity:0.25;fill:#333333;}
	.st29{fill:url(#SVGID_25_);}
	.st30{fill:url(#SVGID_26_);}
	.st31{fill:url(#SVGID_27_);}
	.st32{fill:url(#SVGID_28_);}
	.st33{fill:url(#SVGID_29_);}
	.st34{fill:url(#SVGID_30_);}
	.st35{fill:url(#SVGID_31_);}
	.st36{fill:url(#SVGID_32_);}
	.st37{fill:url(#SVGID_33_);}
	.st38{fill:url(#SVGID_34_);}
	.st39{fill:url(#SVGID_35_);}
	.st40{fill:url(#SVGID_36_);}
	.st41{fill:url(#SVGID_37_);}
	.st42{fill:url(#SVGID_38_);}
	.st43{fill:url(#SVGID_39_);}
	.st44{fill:url(#SVGID_40_);}
	.st45{fill:url(#SVGID_41_);}
	.st46{fill:url(#SVGID_42_);}
	.st47{fill:url(#SVGID_43_);}
	.st48{fill:#D6B214;}
	.st49{fill:url(#SVGID_44_);}
	.st50{opacity:0.5;fill:#FFFFFF;}
	.st51{opacity:0.5;fill:#333333;}
	.st52{opacity:0.5;fill:#D9B01A;}
	.st53{fill:#DCBB6F;}
	.st54{fill:#D9E021;}
</style>
<g id="Layer_1">
	<g>
		<path class="st0" d="M466.15,427c0,7.07-2.77,13.39-6.63,19.2c-2.1,3.16-5.27,3.06-8.44,2.17c-9.74-2.76-18.98-6.73-28.28-10.52
			c-23.01-9.36-44.75-21.19-65.82-34.19c-33.14-20.45-63.89-44.16-91.04-72.58c-2.08-2.18-5.57-4.12-4.25-8.09
			c1.41-4.27,5.61-5.83,9.15-6.22c10.4-1.14,19.3-6.11,28.14-12.02c5.07-3.39,10.65-5.94,16.15-8.46
			c5.41-2.49,10.95-1.11,16.43-1.19c19.62-0.3,35.19,8.23,48.73,21.24c4.4,4.23,9.89,6.78,15.13,9.68
			c11.27,6.23,22.39,12.68,32.65,20.6c-3.19-5.38-8.01-8.87-12.94-12.19c-2.98-2.01-6.12-3.83-9.35-5.4
			c-8.38-4.09-15.12-10.03-20.8-17.62c-9.64-12.88-23.58-17.53-39.15-18.51c-4.34-0.27-8.72-0.28-13.09-0.42
			c0.17-1.5,1.06-1.57,1.75-1.72c28.32-6.21,53.89-2.22,76.42,15.11c12.37,9.52,25.5,18.02,36.53,29.27
			c12.24,12.49,21.92,26.75,25.21,45.24c0.97,5.45,1.44,10.96,0.56,16.7c-2.26,0.11-2.73-1.64-3.59-2.73
			c-2.02-2.57-4.39-4.78-7.43-5.69c-8.31-2.49-14.83-7.7-21.12-13.38c-7.05-6.37-15.45-9.65-25.07-10.04
			c-5.67-0.23-11.18-1.14-17.16-3.41c1.68,2.83,3.77,3.81,6.06,4.22c3.42,0.62,6.88,1.26,10.38,1.34c7.38,0.16,13.68,2.67,18.66,7.9
			c8.36,8.77,18.75,14.44,29.1,20.23c10.48,5.87,10.49,5.93,7.09,18.41c-1.2,4.4-1.67,9-3.95,13.13
			c-8.74-5.86-19.71-6.22-28.77-11.3C439.69,420.84,450.93,424.99,466.15,427z M299.07,341.73c4.26,6.41,10.79,11.45,17.7,14.16
			c12.94,5.06,25.17,11.11,34.25,22.38c5.66,7.02,13.13,11.75,21.12,15.79c10.97,5.54,23.09,8.59,33.6,15.08
			c0.11,0.07,0.46-0.26,0.92-0.54c-3.5-6.16-9.56-8.55-15.52-10.87c-6.42-2.5-13.22-4.12-18.95-8.15c-2.42-1.7-4.28-3.68-4.7-6.97
			c-0.34-2.64-0.33-6.19-4.52-2.59c-0.92,0.79-1.94-0.4-2.67-1.16c-8.48-8.88-19.16-14.39-29.89-19.72
			C319.68,353.8,308.79,348.83,299.07,341.73z M355.42,347.6c-8.61-6.11-13.91-15.15-23.41-18.99c1.13-0.81,1.86-0.91,2.58-1.04
			c1-0.18,2.53,0.17,2.52-1.44c-0.01-1.47-1.53-1.16-2.55-1.18c-1.99-0.03-3.99,0.1-5.97,0.04c-6.97-0.23-13.94,0.16-19.6-5.15
			c-3.08-2.89-7.75-3.14-13.14-1.84c10.84,4.29,19.97,10.31,30.8,12.29c8.01,1.46,14.74,4.82,19.93,11.27
			C348.69,344.18,350.95,347.01,355.42,347.6z"/>
		<path class="st0" d="M368.25,472.83c5.66,3.71,8.79,10.18,14.49,13.95c5.93,3.92,13.41,1.6,19.47,4.74
			c-8.19,2.91-16.45,3.43-24.6,3.08c-22.75-0.99-43.93-7.38-63.56-17.73c-14.5-7.65-24.94-20.56-35.7-32.93
			c-14.11-16.22-21.45-35.77-23.96-58.02c-1.01-9,0.81-18.05,0.86-27.06c0.03-5.53-0.88-10.8-1.77-16.11
			c-0.29-1.71-0.64-3.44-0.65-5.19c-0.01-2.13,0.41-4.41,2.48-5.56c2.25-1.25,4.16-0.27,5.77,1.33c8.05,7.95,15.87,16.16,24.2,23.78
			c19.57,17.91,40.51,33.95,62.75,48.29c30.9,19.92,63.99,35.36,98.38,48.28c5.76,2.17,6.51,5.65,2.32,10.95
			c-9.8,12.38-22.67,19.32-36.48,24.58c-2.21,0.84-4.26,0.4-6.25-0.42c-5.18-2.15-10.63-3.41-16.36-3.33
			c-5.92,0.08-10.5-2.09-13.99-6.89C373.79,475.99,371.78,473.29,368.25,472.83z M413.51,459.2c-10.36-3.38-20.57-6.91-29.75-12.7
			c-5.26-3.32-11.04-5.49-17.04-6.89c-14.28-3.34-26.01-10.4-34.72-22.52c-2.72-3.78-6.15-7-12.29-7.9
			c6.37,4.09,10.61,8.94,14.71,13.9c10.01,12.11,21.57,21.44,38.12,22.36c1.93,0.11,3.79,0.97,5.6,1.68
			c1.44,0.56,3.85,0.47,3.58,2.72c-0.21,1.83-2.49,1.6-3.82,2.37c-1.36,0.78-4.15,0.11-3.8,2.51c0.28,1.9,2.81,1.04,4.44,1.02
			c0.76-0.01,1.54-0.09,2.3-0.22c6.41-1.15,11.39,0.51,14.52,6.56c1.04,2.01,2.46,4.26,5.73,3.81c-1.73-2.33-3.31-4.34-4.75-6.47
			c-0.55-0.82-1.6-1.8-0.78-2.93c0.88-1.21,1.97-0.26,2.92,0.07C403.29,458.25,408.21,459.53,413.51,459.2z M341.18,464.47
			c-4.54-5.07-10.84-6.59-17.07-8.13c-5.43-1.35-10.08-3.82-13.69-8.15c-5.34-6.4-10.65-12.81-15.97-19.22
			c-4.93-5.96-9.12-12.7-15.98-16.69c3.76,4.68,6.42,10,8.08,15.92c1.12,4,3.23,6.92,6.96,8.51c2.72,1.16,4.62,3.32,5.92,6.04
			c2.07,4.34,5.55,7.06,9.38,9.56C318.63,458.7,330.74,459.49,341.18,464.47z M301.36,390.85c-6.73,0.07-11.03-3.48-14.96-8.59
			c-5.18-6.74-12.68-10.33-20.55-13.09c1.15,3.38,3.73,5.09,6.5,6.48c3.4,1.7,6.37,3.92,8.61,7.07
			C285.91,389.69,293.2,391.26,301.36,390.85z"/>
	</g>
	<g>
		<path class="st0" d="M396.54,566.05c-4.9,2.87-10.21,3.52-15.41,4.18c-26.34,3.36-51.92,0.26-76.27-10.52
			c-24.84-11-48.11-24.72-67.32-44.18c-29.99-30.39-45.67-67.1-46.49-109.93c-0.06-3.01-0.24-6.21,1.24-9.82
			c2.55,4.3,1.8,8.6,2.37,12.53c3.24,22.13,9.85,43.14,19.94,63.09c3.93,7.78,10.32,13.5,16.53,19.23
			c26.2,24.18,56.62,40.15,91.86,46.65c20.19,3.72,39.73,0.76,59.18-4.77c18.23-5.19,35.49-12.5,51.83-22.04
			c1.54-0.9,3.17-1.66,5.35-2.8c-0.16,2.74-1.86,3.66-3.11,4.68c-22.01,17.88-46.99,27.87-75.5,29.32
			c-18.22,0.93-36.34,0.59-54.24-2.74c-26.28-4.88-49.57-16.21-69.61-34.35c14.64,20.43,40.67,42.25,71.52,51.36
			C337.19,564.44,366.49,567.85,396.54,566.05z"/>
		<path class="st0" d="M541.22,411.26c-1.39-3.01-0.68-5.86-0.74-8.61c-1.06-54.15-20.1-100.7-58.97-138.71
			c-19.76-19.32-44.14-29.84-70.62-36.37c-21.87-5.4-44.01-6.94-66.41-6.02c-1.45,0.06-2.96,0.62-4.72-0.39
			c1.25-1.97,3.28-1.94,5.07-2.28c35.6-6.77,69.25-1.27,100.88,16.31c25.09,13.94,48.1,30.53,65.63,53.71
			c19.71,26.07,30.83,55.3,32.85,88.06c0.65,10.56-0.31,20.93-1.29,31.35C542.8,409.29,542.67,410.28,541.22,411.26z"/>
		<path class="st0" d="M459.93,551.86c2.16,12.07-4.88,20.15-12.22,28.07c-2.37,2.56-3.51,2.56-4.64-1.38
			c-4.37-15.23,1.73-26.42,12.97-35.85c0.85-0.71,1.7-1.88,2.99-1.37c1.42,0.55,0.85,1.99,0.88,3.07
			C459.97,546.88,459.93,549.37,459.93,551.86z"/>
		<path class="st0" d="M463.12,553.38c-0.39-8.08,3.72-12.98,7.82-17.8c2.25-2.64,4.85-5,7.34-7.43c0.7-0.68,1.54-1.5,2.61-1
			c1.22,0.56,0.6,1.68,0.51,2.61c-0.43,4.29-1.17,8.58-1.2,12.87c-0.08,10.02-5.88,16.98-12.12,23.77
			c-0.86,0.93-1.88,2.17-3.37,1.41c-1.22-0.62-0.88-2.04-0.95-3.16C463.51,560.51,463.29,556.36,463.12,553.38z"/>
		<path class="st0" d="M247.16,283.27c-3.85,0-7,0.01-10.15-0.01c-0.8,0-1.73,0.16-2.17-0.78c-0.43-0.94,0.23-1.61,0.83-2.13
			c9.14-7.9,18.18-16.04,31.84-11.6c1.73,0.56,3.58,0.72,5.35,1.15c1.55,0.38,3.98-0.51,4.47,1.25c0.63,2.28-1.94,3.2-3.45,4.27
			C265.7,281.26,256.96,285.41,247.16,283.27z"/>
		<path class="st0" d="M466.37,528.25c-7.41-0.34-13.2-3.21-19.37-4.5c-2.06-0.43-1.73-1.92-0.37-2.83
			c6.97-4.65,14.23-8.9,22.95-8.63c5.79,0.18,11.45,2.03,17.32,2c1.8-0.01,3.41,1.06,1.46,2.66
			C481.59,522.47,474.17,526.8,466.37,528.25z"/>
		<path class="st0" d="M268.28,265.46c-2.33,0-4.66,0.02-6.99-0.01c-0.95-0.02-2.11,0.26-2.62-0.88c-0.49-1.09,0.36-1.86,0.92-2.66
			c8.42-12.2,19.08-16.23,34.21-13.26c3.91,0.77,4.12,2.08,1.56,4.65C287.9,260.83,279.99,267.36,268.28,265.46z"/>
		<path class="st0" d="M221.99,302.47c-1.02,0.06-1.96,0.38-2.36-0.64c-0.35-0.9,0.28-1.59,0.85-2.18
			c8.66-9.1,17.08-18.74,31.82-14.83c0.47,0.13,1,0.03,1.48,0.14c2.33,0.54,5.96-1.24,6.8,1.22c0.92,2.69-2.7,4.06-4.58,5.78
			c-7.3,6.71-15.79,10.23-25.85,9.54C227.32,301.3,224.51,301.71,221.99,302.47z"/>
		<path class="st0" d="M261.31,235.6c-0.45-9.48,5.15-16.14,10.73-22.74c1.57-1.86,2.37-0.4,3,1.27
			c5.51,14.83,2.93,25.79-8.79,36.95c-0.71,0.68-1.35,1.65-2.46,1.36c-1.2-0.31-1.12-1.5-1.2-2.47
			C262.15,245.18,261.74,240.39,261.31,235.6z"/>
		<path class="st0" d="M441.84,546.37c-4.98-0.9-10.04-1.81-15.11-2.72c-3.14-0.56-3.16-2.17-1.08-3.96
			c7.25-6.25,14.63-12.21,25.26-10.62c3.77,0.57,7.61,0.62,11.42,0.95c1.96,0.17,3.13,1.07,1.27,2.74
			c-5.2,4.65-10.3,9.49-16.76,12.41C445.35,545.84,443.62,545.96,441.84,546.37z"/>
		<path class="st0" d="M480.32,512.68c-5.09,0.08-9.83-1.82-14.79-2.21c-2.59-0.2-2.93-1.64-1.1-3.14
			c7.53-6.17,15.43-11.7,25.85-11.05c4.46,0.28,8.89,1.15,13.37,0.21c0.8-0.17,1.79-0.32,2.12,0.65c0.17,0.49-0.05,1.42-0.43,1.76
			C497.99,505.29,491.01,512.39,480.32,512.68z"/>
		<path class="st0" d="M241.32,270.27c0.68-12.58-2.36-25.07,6.29-35.56c0.74-0.9,1.25-1.98,2.03-2.83c1.42-1.55,2.54-4.49,4.7-3.91
			c2.4,0.64,1.18,3.74,1.65,5.74c0.34,1.45,0.56,2.94,0.83,4.4C259.01,249.9,252.77,263.33,241.32,270.27z"/>
		<path class="st0" d="M520.8,502.17c1.64,9.88-3.28,18.38-9.68,26.34c-0.81,1.01-1.73,2.43-3.15,2.07
			c-1.58-0.41-1.18-2.16-1.35-3.42c-0.14-0.98,0-2.05-0.33-2.96c-4.86-13.38,1.99-23,10.27-32.15c0.94-1.04,1.86-2.83,3.57-1.94
			c1.34,0.69,0.64,2.4,0.66,3.67C520.83,496.26,520.8,498.75,520.8,502.17z"/>
		<path class="st0" d="M295.98,228.72c-1.39,0.01-1.34-1.26-0.79-2.36c4.75-9.54,8.87-19.7,21.04-22.24
			c3.26-0.68,6.5-1.45,9.75-2.14c0.92-0.2,1.97-0.93,2.79,0.01c0.78,0.89,0.26,1.93-0.23,2.78c-4.78,8.35-10.03,16.16-19.99,19.2
			C304.43,225.22,300.47,227,295.98,228.72z"/>
		<path class="st0" d="M500.59,475.05c-5.31-0.45-9.76-0.88-14.22-1.19c-3.12-0.22-2.4-1.71-0.98-3.09
			c6.91-6.69,14.38-12.31,24.61-12.58c4.13-0.11,8.3,0.24,12.39-0.68c1.96-0.44,3.51,0.43,1.89,2.2
			C517.55,467.06,510.75,474.5,500.59,475.05z"/>
		<path class="st0" d="M232.85,363.36c-0.2,0.4-0.37,0.87-0.66,1.27c-5.31,7.58-11.01,14.67-20.74,16.87
			c-3.89,0.88-7.71,2.03-11.57,3c-1.06,0.27-2.27,1.36-3.24,0.31c-1.15-1.26,0.04-2.49,0.69-3.57
			c6.64-11.07,14.91-19.63,29.19-18.99c1.48,0.07,2.97-0.32,4.46-0.5C232.17,361.59,232.96,361.9,232.85,363.36z"/>
		<path class="st0" d="M195.49,353.4c-0.11,2.19,0.58,5.69-1.27,6.38c-2.5,0.94-3.04-2.78-4.5-4.37
			c-5.61-6.11-11.91-11.84-12.81-20.86c-0.38-3.8-0.83-7.6-1.15-11.4c-0.08-0.96,0.05-2.15,1.1-2.6c1.19-0.52,1.7,0.63,2.37,1.31
			c0.94,0.94,1.78,2.06,2.88,2.75C192.79,331.28,196.22,341.34,195.49,353.4z"/>
		<path class="st0" d="M232.51,323.23c1.43,0.12,3.75,0.3,6.07,0.52c1.5,0.14,3.61-1.49,4.37,0.72c0.59,1.73-1.39,2.85-2.46,4.05
			c-7.09,7.9-15.61,12.84-26.54,13.01c-2.46,0.04-4.91,0.81-7.36,1.29c-2.19,0.43-2.83-0.22-1.9-2.36
			C208.41,331.82,222.03,323.07,232.51,323.23z"/>
		<path class="st0" d="M500.32,456.22c-2.77,0.45-2.88-0.99-1.57-2.72c5.54-7.28,11-14.68,20.85-16.64
			c4.38-0.87,8.79-1.75,12.93-3.55c0.74-0.32,1.63-0.76,2.29,0.03c0.61,0.73,0.1,1.54-0.19,2.31c-4.18,11.1-15.68,19.42-27.41,19.9
			C504.93,455.64,502.63,455.99,500.32,456.22z"/>
		<path class="st0" d="M208.06,324.53c2.38-9.87,13.7-20.45,22.88-21.6c3.63-0.46,7.29-0.72,10.94-0.97
			c1.04-0.07,2.41-0.98,3.1,0.54c0.47,1.02-0.26,1.94-0.84,2.73c-5.88,7.94-12.59,14.63-23,16.29
			C216.8,322.21,212.54,323.48,208.06,324.53z"/>
		<path class="st0" d="M505.53,436.31c-2.42-0.59-6.36,1.78-7.21-0.65c-0.94-2.71,2.66-4.94,4.67-7.04
			c6.2-6.47,13.54-10.55,22.78-10.77c2.29-0.05,4.55-0.85,6.83-1.31c1.2-0.24,2.59-1.57,3.55-0.02c0.68,1.09-0.44,2.19-1.12,3.08
			C527.61,429.35,519.79,438.46,505.53,436.31z"/>
		<path class="st0" d="M490.46,495.35c-1.29,0-1.46,0.03-1.62,0c-2.68-0.56-6.89,1.51-7.8-0.96c-1.15-3.12,2.99-5.03,5.11-7.2
			c5.52-5.66,12.14-9.14,20.17-9.82c3.3-0.28,6.56-0.99,9.84-1.51c0.95-0.15,2.05-0.85,2.8,0.07c0.76,0.93,0.04,1.93-0.57,2.68
			C510.78,487.79,503.45,497.46,490.46,495.35z"/>
		<path class="st0" d="M482.71,536.1c0.18-2.3,0.79-5.68,2.73-8.75c3.32-5.27,7.67-9.6,12.19-13.79c0.71-0.66,1.52-1.63,2.56-1.08
			c1.06,0.56,0.71,1.77,0.45,2.69c-0.98,3.42-0.78,6.94-0.78,10.42c0,10.68-5.8,18.45-12.71,25.68c-0.66,0.7-1.46,1.51-2.59,1.06
			c-1.18-0.47-0.91-1.64-0.97-2.59C483.31,545.59,483.05,541.45,482.71,536.1z"/>
		<path class="st0" d="M205.29,311.93c0.37-7.41-1.1-13.09-1.45-18.87c-0.54-9.01,3.91-16.34,8.97-23.25
			c1.55-2.11,2.69-1.09,3.18,1.17c0.63,2.93,1.3,5.85,2.19,8.71c1.95,6.24,1.4,12.13-1.97,17.77
			C213.36,302.24,210.74,307.2,205.29,311.93z"/>
		<path class="st0" d="M538.69,426.6c0.19-2.86-1.02-7.02,1.69-8.16c1.98-0.83,3.05,3.67,5.01,5.34c8.98,7.7,12.59,17.69,12.5,29.24
			c-0.01,1.44,0.53,3.32-0.94,4.15c-1.85,1.04-2.35-1.25-3.47-2.03c-0.95-0.66-1.73-1.58-2.69-2.22
			C541.36,446.64,538.1,437.52,538.69,426.6z"/>
		<path class="st0" d="M540.12,487.23c-0.28,7.12-1.29,12.32-3.21,17.32c-0.27,0.72-0.85,1.63-1.48,1.84
			c-1.2,0.39-1.6-0.81-2.07-1.66c-0.72-1.31-1.22-2.8-2.17-3.92c-9.37-10.99-6.34-22.57-1.73-34.23c0.41-1.03,0.75-2.48,2.12-2.47
			c1.62,0.01,1.26,1.67,1.66,2.67c1.64,4,3.25,8.01,4.89,12C539.48,482.06,540.31,485.42,540.12,487.23z"/>
		<path class="st0" d="M229.28,341.94c1.9-0.26,2.24,1.01,1.24,2.68c-4.57,7.62-9.47,14.96-18.42,18.14
			c-4.07,1.45-8.17,2.83-12.26,4.2c-1.16,0.39-2.43,1.88-3.55,0.45c-0.94-1.19,0.14-2.52,0.74-3.67
			c5.98-11.37,13.44-20.74,27.88-20.83C226.21,342.91,227.5,342.35,229.28,341.94z"/>
		<path class="st0" d="M193.03,377.58c0,0.66,0.04,1.33-0.01,1.99c-0.1,1.28,0.5,3.05-0.77,3.69c-1.86,0.92-2.34-1.3-3.33-2.23
			c-1.82-1.7-3.35-3.73-5.29-5.26c-8.42-6.62-10.96-15.91-12.05-25.9c-0.14-1.28-0.51-2.91,0.69-3.74c1.46-1.01,2.32,0.66,3.34,1.37
			c0.96,0.66,1.79,1.52,2.8,2.07C189.56,355.64,193.11,365.65,193.03,377.58z"/>
		<path class="st0" d="M186.42,309.75c-0.24-4.24,0.46-8.18,1.38-12.07c0.25-1.06,0.39-2.49,1.87-2.64c1.25-0.13,1.49,1.12,2.04,1.9
			c0.86,1.22,1.51,2.65,2.55,3.7c9.86,9.9,8.28,21.36,4.63,33.11c-0.37,1.19-0.5,2.98-2.14,2.97c-1.66-0.01-1.58-1.89-2.16-3
			c-1.4-2.65-2.58-5.42-4.1-7.99C187.51,320.71,185.75,315.44,186.42,309.75z"/>
		<path class="st0" d="M534.41,453.75c0.1-3.44-0.31-6.96,0.69-10.38c0.23-0.77,0.26-1.76,1.2-2c1.03-0.26,1.43,0.64,1.79,1.37
			c2.1,4.22,5.35,7.62,8.1,11.37c5.52,7.52,5.59,16.13,5.2,24.84c-0.05,1.12-0.15,2.57-1.35,3.04c-1.53,0.6-1.75-1.14-2.51-1.89
			c-1.41-1.41-2.64-3.03-4.18-4.29C536.36,470.09,533.03,462.9,534.41,453.75z"/>
		<path class="st0" d="M223.42,274.88c-1.81-11.06,3.18-19.73,9.79-27.8c0.79-0.96,1.56-2.55,3.12-1.93
			c1.29,0.51,0.58,2.07,0.82,3.15c0.25,1.14,0.36,2.31,0.71,3.42c4.35,13.53-2.15,23.46-10.83,32.65c-0.77,0.81-1.61,2.04-2.87,1.59
			c-1.46-0.52-0.71-2.01-0.74-3.09C223.38,280.21,223.42,277.54,223.42,274.88z"/>
		<path class="st0" d="M390.04,587.77c-2.38,0.16-2.16-1.4-1.19-2.79c5.14-7.42,10.52-14.61,19.85-17.24
			c4.31-1.21,8.61-2.44,12.92-3.66c0.77-0.22,1.59-0.86,2.32-0.21c0.99,0.87,0.32,1.92-0.15,2.7c-6.29,10.4-12.66,20.66-27.12,20.14
			C394.55,586.63,392.41,587.37,390.04,587.77z"/>
		<path class="st0" d="M295.69,244.21c-3.34-0.14-9.07,0.76-9.57-1.31c-0.83-3.39,4.25-5.13,6.67-7.73
			c7.37-7.9,16.25-5.96,25.09-3.93c2.75,0.63,1.76,2.42,0.38,3.62C311.82,240.5,305.39,246.25,295.69,244.21z"/>
		<path class="st0" d="M278.59,223.71c0.3-6.46,4.93-11.91,9.94-17.09c1.78-1.84,2.74-0.81,3.4,1.29
			c3.92,12.49,0.99,22.27-9.29,30.63c-0.64,0.52-1.23,1.28-2.15,0.96c-1.2-0.41-0.99-1.59-1.05-2.53
			C279.15,232.99,278.92,229,278.59,223.71z"/>
		<path class="st0" d="M417.98,547.32c5.69,0.67,10.31,1.2,14.92,1.76c2.65,0.32,2.56,1.5,1.05,3.26
			c-7.72,9.03-21.96,12.09-32.2,6.94c-1.63-0.82-2.02-1.91-0.67-3.02C406.37,551.94,411.82,547.85,417.98,547.32z"/>
		<path class="st0" d="M425.55,577.4c-2.16-11.11,5.72-16.52,12.24-22.6c1.76-1.64,2.95-0.98,3.07,1.52
			c0.52,10.81-0.53,21.05-9.91,28.4c-1.16,0.91-2.11,2.62-3.7,2.16c-2.01-0.58-1.54-2.71-1.67-4.27
			C425.44,580.79,425.55,578.95,425.55,577.4z"/>
	</g>
	<g>
		<g>
			<path class="st0" d="M120.38,288.78l0.64-22.34c7.5,0.45,13.97,0.63,18.33-6.14c4.18-6.48,4.28-12.21-5.58-18.57l-67.08-43.27
				l12.73-19.73l67.37,43.45c20.43,13.18,22.01,31.16,10.74,48.64C147.33,286.6,133.25,290.49,120.38,288.78z"/>
			<path class="st0" d="M179.97,164.01c-6.81,5.18-8.17,10.86-8.98,15.06L152.85,176c1.38-9.27,4.23-17.97,17.58-28.13
				c14.55-11.07,31.62-11.63,45.23,6.25l24.58,32.29l-17.88,13.61l-5.59-8.18c0.71,9.79-2.3,16.08-9.91,21.87
				c-10.41,7.92-23.57,10.56-33.63-2.65c-9.24-12.14-3.79-24.09,10.22-34.75l13.21-10.06C191.41,159.93,185.97,159.43,179.97,164.01
				z M192.5,186.29c-4.54,3.45-5.02,6.98-2.58,10.18c2.44,3.2,6.53,3.04,11.6-0.82c7.34-5.59,8.64-11.63,4.98-16.44l-1.73-2.27
				L192.5,186.29z"/>
			<path class="st0" d="M228.5,109.13l24.22-6.15l12.96,17.64c3.92,5.23,8.96,14.16,8.96,14.16s0.12-10.41,1.77-16.89l5.93-24.34
				l1.63-0.41l17.48,18.4c4.49,4.74,9.94,13.91,9.94,13.91s0.12-10.41,1.12-16.72l3.13-21.73l21.94-5.57l-14.3,79.24l-1.95,0.5
				l-22.01-24c-4.04-4.34-8.39-12.58-8.39-12.58s-0.17,9.56-1.69,15.14l-8.87,31.84l-1.79,0.45L228.5,109.13z"/>
			<path class="st0" d="M363.23,153.03l38.5-45.97l-26.85-4.15l2.79-18.06l60.99,9.43l-0.28,1.82l-39.16,45.87l28.67,4.43
				l-2.79,18.06l-62.14-9.61L363.23,153.03z"/>
			<path class="st0" d="M496.11,136.66c-7.54-4.03-13.28-2.91-17.43-1.9L473.92,117c9-2.61,18.11-3.63,32.9,4.27
				c16.12,8.62,23.73,23.9,13.14,43.72l-19.13,35.79L481,190.19l5.11-8.49c-8.61,4.72-15.58,4.6-24.01,0.1
				c-11.54-6.17-19.42-17.03-11.59-31.68c7.19-13.46,20.32-13.48,35.85-5.18l14.64,7.83C504.58,145.37,502.77,140.22,496.11,136.66z
				 M481.07,157.33c-5.03-2.69-8.43-1.66-10.33,1.89c-1.9,3.55-0.05,7.2,5.57,10.21c8.13,4.35,14.17,3.01,17.02-2.31l1.34-2.51
				L481.07,157.33z"/>
			<path class="st0" d="M576.03,166.45l13.37,18.27l-9.23,6.13c10.01-1.09,17.08,2.05,22.13,8.95c5.45,7.44,6.2,15,2,23.47
				c9.42,0.38,18,3.87,24.24,12.4c10.6,14.48,7.13,29.9-8.71,41.49l-33.43,24.46l-13.27-18.14l31.8-23.27
				c6.77-4.95,8.84-9.79,3.79-16.69c-5.15-7.04-10.95-7.58-18.79-1.83l-30.86,22.58l-13.27-18.14l31.8-23.27
				c6.77-4.95,8.94-9.65,3.88-16.56c-5.15-7.04-11.04-7.71-18.89-1.97l-30.86,22.58l-13.37-18.27L576.03,166.45z"/>
		</g>
	</g>
</g>
<g id="Layer_2">
</g>
</svg>
