<svg version="1.2" xmlns="http://www.w3.org/2000/svg" viewBox="0 0 575 324" width="575" height="324">
	<title>jawzam brand-12-svg</title>
	<style>
		.s0 { fill: #004b41 } 
		.s1 { fill: #d9b01a } 
	</style>
	<g id="Layer_3">
		<g id="Layer">
			<path id="Layer" class="s0" d="m213.8 143.4h18v27.6q0 9.6-7.2 9.6-2.7 0-5.1-1.7-2.4-1.6-4.5-4.7l-6.6 8.9q2.8 4.1 7.2 6.3 4.3 2.2 9.5 2.2 9.2 0 13.8-5.3 4.7-5.3 4.7-16.1v-37.6h-29.8z"/>
			<path id="Layer" fill-rule="evenodd" class="s0" d="m282.2 132.6l23 58h-12.5l-4.6-12.4h-23.8l-4.6 12.4h-12.2l23-58zm2.1 35.4l-8.1-22.2-8.2 22.2z"/>
			<path id="Layer" class="s0" d="m362.1 173.7l-11.8-41.1h-11l-12.1 40.8-11.6-40.8h-12.3l16.8 58h12.8l11.6-39.3 11.3 39.3h12.8l16.8-58h-11.3z"/>
			<path id="Layer" class="s0" d="m432.9 141.3l0.1-8.7h-43.3v10.9h27.6l-28.2 38.4v8.7h45v-10.9h-29.3z"/>
			<path id="Layer" fill-rule="evenodd" class="s0" d="m469.6 132.6l23 58h-12.5l-4.6-12.4h-23.8l-4.6 12.4h-12.2l22.9-58zm2.2 35.4l-8.1-22.2-8.2 22.2z"/>
			<path id="Layer" class="s0" d="m555.9 190.6l-0.2-58h-9.7l-19 36-19.2-36h-9.9v58h11.2v-34.1l15 28h5.4l15.1-28.7 0.1 34.8z"/>
		</g>
		<g id="Layer">
			<path id="Layer" class="s1" d="m100.2 177.3l45.1-65.9h-49.9-8.4v8.4 12.4l8.4-12.4h33.9l-45.1 65.9h49 8.5v-8.4-12.4l-8.4 12.4z"/>
			<path id="Layer" class="s1" d="m106 108.3h8.4v-22.7-8.4h-8.4-33.5v8.4h33.5z"/>
			<path id="Layer" class="s1" d="m113.8 123.6l-7.8-0.1c-0.3 11.7-9.8 21.2-21.6 21.2-11.9 0-21.6-9.7-21.6-21.7q0-0.2 0-0.5l-7.8-0.2q-0.1 0.6-0.1 1.3c0 16.2 13.2 29.4 29.5 29.4 16.2 0 29.4-13.1 29.4-29.4z"/>
		</g>
		<g id="XMLID_8_">
			<g id="Layer">
				<g id="XMLID_318_">
					<path id="Layer" class="s1" d="m182.4 155.5c-4.4 38.2-40.8 65.4-81.4 60.7-40.3-4.6-69.6-39.1-65.5-77q-0.1 0.3-0.1 0.6c-4.4 38.5 25.1 73.5 66 78.2 41 4.7 77.7-22.7 82.1-61.2 2.7-23-6.9-44.8-23.7-59.6 16.1 14.6 25.2 35.9 22.6 58.3z"/>
				</g>
				<path id="XMLID_317_" class="s1" d="m116.9 209.7c4.1 3.6 10.7 3.1 10.7 3.1 0 0-0.1-6.2-4.3-9.8-4.1-3.6-10.7-3.2-10.7-3.2 0 0 0.1 6.3 4.3 9.9z"/>
				<path id="XMLID_316_" class="s1" d="m127.8 228.3c3.4-4.1 2.3-10.3 2.3-10.3 0 0-6.6 0.5-10 4.7-3.4 4.1-2.3 10.3-2.3 10.3 0 0 6.6-0.5 10-4.7z"/>
				<path id="XMLID_315_" class="s1" d="m101.8 211.2c4 3.7 10.6 3.6 10.6 3.6 0 0 0.2-6.2-3.8-10-3.9-3.8-10.6-3.7-10.6-3.7 0 0-0.2 6.3 3.8 10.1z"/>
				<path id="XMLID_314_" class="s1" d="m111.7 230.6c3.8-3.8 3.2-10.1 3.2-10.1 0 0-6.6 0-10.4 3.9-3.7 3.9-3.2 10.1-3.2 10.1 0 0 6.7 0 10.4-3.9z"/>
				<path id="XMLID_313_" class="s1" d="m86.1 208c2.9 4.5 9.4 5.8 9.4 5.8 0 0 1.7-6.1-1.2-10.6-3-4.5-9.5-5.8-9.5-5.8 0 0-1.7 6 1.3 10.6z"/>
				<path id="XMLID_312_" class="s1" d="m92.4 228.7c4.5-3.1 5.2-9.3 5.2-9.3 0 0-6.6-1.2-11 1.9-4.5 3.2-5.2 9.4-5.2 9.4 0 0 6.5 1.1 11-2z"/>
				<path id="XMLID_311_" class="s1" d="m71 200.5c1.8 5.1 7.8 7.8 7.8 7.8 0 0 3.2-5.5 1.4-10.5-1.7-5.1-7.8-7.8-7.8-7.8 0 0-3.1 5.5-1.4 10.5z"/>
				<path id="XMLID_310_" class="s1" d="m75.7 223.8c4.7-2.7 6-8.9 6-8.9 0 0-6.4-1.6-11.2 1.1-4.7 2.8-6 8.9-6 8.9 0 0 6.4 1.7 11.2-1.1z"/>
				<path id="XMLID_309_" class="s1" d="m60.9 216.6c5.3-1.6 8.1-7.2 8.1-7.2 0 0-5.8-3.1-11.1-1.5-5.4 1.5-8.2 7.2-8.2 7.2 0 0 5.8 3.1 11.2 1.5z"/>
				<path id="XMLID_308_" class="s1" d="m47.5 207.3c5.6-0.2 9.9-5 9.9-5 0 0-4.9-4.4-10.5-4.1-5.6 0.3-9.8 5-9.8 5 0 0 4.8 4.4 10.4 4.1z"/>
				<path id="XMLID_307_" class="s1" d="m38.9 195.7c5.6 0.9 10.8-2.9 10.8-2.9 0 0-3.7-5.2-9.3-6.1-5.5-0.9-10.7 2.9-10.7 2.9 0 0 3.7 5.2 9.2 6.1z"/>
				<path id="XMLID_306_" class="s1" d="m67.4 188.7c-0.9-5.3-6.4-8.9-6.4-8.9 0 0-4 4.9-3.2 10.2 0.9 5.2 6.4 8.8 6.4 8.8 0 0 4.1-4.9 3.2-10.1z"/>
				<path id="XMLID_305_" class="s1" d="m58.7 179.3c0.6-5.3-3.7-10.1-3.7-10.1 0 0-5.3 3.6-5.9 8.9-0.7 5.2 3.6 10.1 3.6 10.1 0 0 5.3-3.7 6-8.9z"/>
				<path id="XMLID_304_" class="s1" d="m31.5 183.8c5.6 0.9 10.8-2.9 10.8-2.9 0 0-3.7-5.2-9.3-6.1-5.5-0.9-10.7 2.9-10.7 2.9 0 0 3.7 5.2 9.2 6.1z"/>
				<path id="XMLID_303_" class="s1" d="m52.1 168.6c2-4.9-0.8-10.6-0.8-10.6 0 0-6.2 2.3-8.3 7.2-2 4.9 0.8 10.5 0.8 10.5 0 0 6.2-2.2 8.3-7.1z"/>
				<path id="XMLID_302_" class="s1" d="m25.5 171.3c5.6 0.9 10.8-2.9 10.8-2.9 0 0-3.7-5.2-9.2-6.1-5.6-1-10.8 2.8-10.8 2.8 0 0 3.7 5.2 9.2 6.2z"/>
				<path id="XMLID_301_" class="s1" d="m22.4 157.9c4.1 3.7 10.7 3.3 10.7 3.3 0 0 0-6.2-4.1-9.9-4.1-3.6-10.8-3.3-10.8-3.3 0 0 0.1 6.3 4.2 9.9z"/>
				<path id="XMLID_300_" class="s1" d="m44.4 143.1c2.7-3.3 1.8-8.1 1.8-8.1 0 0-5.2 0.4-7.8 3.7-2.7 3.2-1.8 8.1-1.8 8.1 0 0 5.2-0.5 7.8-3.7z"/>
				<path id="XMLID_299_" class="s1" d="m40.2 131.1c0.6-4.1-2.7-8-2.7-8 0 0-4.2 2.8-4.8 6.9-0.6 4.1 2.6 7.9 2.6 7.9 0 0 4.3-2.7 4.9-6.8z"/>
				<path id="XMLID_298_" class="s1" d="m30.4 139.2c-2.5-3.4-7.7-4.2-7.7-4.2 0 0-1.1 4.8 1.4 8.2 2.5 3.4 7.6 4.3 7.6 4.3 0 0 1.1-4.8-1.3-8.3z"/>
				<path id="XMLID_297_" class="s1" d="m48.2 156.2c2.8-4.6 0.8-10.6 0.8-10.6 0 0-6.4 1.4-9.2 5.9-2.8 4.6-0.9 10.6-0.9 10.6 0 0 6.5-1.4 9.3-5.9z"/>
				<path id="XMLID_296_" class="s1" d="m135.2 243.2c0 0 10.7-2.7 16.2-14.3 5.4-11.6 4.3-25 14.7-34.2l5.4-6.6c0 0-5.6 10.4-7.4 17.4-1.7 7.1-4.6 34.6-28.9 37.7z"/>
				<path id="XMLID_295_" class="s1" d="m137.3 202.2c0 0 7.8 1.3 15-4.7 7.2-5.9 10.7-14.8 20.3-17.9l5.6-2.7c0 0-6.9 5.1-10.3 9.1-3.4 4.1-13.8 21-30.6 16.2z"/>
				<path id="XMLID_294_" class="s1" d="m25.8 139.1c0 0-7.4-9.2-8-20.2 0 0 1.1 12 9.3 19.4q0.3 0.3 0.6 0.6c8.8 7.4-1.9 0.2-1.9 0.2z"/>
				<path id="XMLID_293_" class="s1" d="m45.9 139.4c0 0 4.8-11.9 1.8-23.8 0 0 2.9 13.1-3.5 23.3q-0.2 0.4-0.5 0.7c-6.9 10.3 2.2-0.2 2.2-0.2z"/>
				<path id="XMLID_292_" class="s1" d="m36.4 125.5l4-24.1-2.5 25.2z"/>
			</g>
		</g>
	</g>
</svg>