<?xml version="1.0" standalone="no"?>
<!DOCTYPE svg PUBLIC "-//W3C//DTD SVG 20010904//EN"
 "http://www.w3.org/TR/2001/REC-SVG-20010904/DTD/svg10.dtd">
<svg version="1.0" xmlns="http://www.w3.org/2000/svg"
 width="700.000000pt" height="700.000000pt" viewBox="0 0 700.000000 700.000000"
 preserveAspectRatio="xMidYMid meet">
<metadata>
Created by potrace 1.14, written by Peter Selinger 2001-2017
</metadata>
<g transform="translate(0.000000,700.000000) scale(0.100000,-0.100000)"
fill="#000000" stroke="none">
<path d="M2989 6686 c-3 -3 -20 -8 -39 -11 -98 -17 -208 -48 -253 -72 -27 -15
-71 -52 -97 -81 -57 -64 -163 -261 -151 -281 7 -10 32 -5 122 29 177 65 230
94 296 163 67 71 156 208 151 233 -3 17 -20 29 -29 20z"/>
<path d="M2305 6568 c-120 -134 -139 -186 -130 -358 7 -144 10 -160 33 -160
31 0 126 102 169 180 42 75 53 198 28 315 -7 34 -31 75 -44 75 -5 0 -30 -24
-56 -52z"/>
<path d="M2048 6483 c-39 -44 -104 -134 -126 -178 -39 -79 -53 -174 -38 -265
3 -14 7 -63 11 -110 3 -46 9 -88 11 -92 11 -17 33 -6 75 35 147 142 201 307
161 487 -16 73 -47 150 -60 150 -4 0 -20 -12 -34 -27z"/>
<path d="M3789 6446 c-2 -2 -67 -6 -144 -10 -77 -3 -183 -13 -235 -21 -52 -9
-111 -18 -130 -21 -96 -16 -91 -49 6 -44 165 7 512 -1 597 -15 12 -2 51 -6 87
-10 36 -3 74 -8 85 -10 29 -7 73 -14 125 -21 66 -8 320 -70 435 -105 279 -87
539 -212 747 -360 174 -124 412 -368 590 -606 287 -384 469 -801 574 -1318 5
-23 32 -213 39 -265 10 -85 18 -215 20 -336 2 -139 8 -168 30 -137 18 27 29
171 29 413 1 226 -4 300 -30 450 -3 19 -8 49 -11 65 -9 58 -62 252 -91 336
-143 410 -362 761 -667 1064 -347 347 -884 683 -1314 825 -117 39 -308 85
-391 95 -25 3 -56 7 -70 10 -13 3 -78 7 -145 11 -66 3 -123 8 -126 10 -3 2 -8
2 -10 0z"/>
<path d="M1690 6188 c-22 -29 -44 -58 -48 -63 -20 -25 -61 -103 -71 -136 -21
-67 -23 -84 -28 -272 l-5 -189 22 12 c13 7 53 42 89 79 65 65 110 139 142 236
14 44 17 187 5 250 -5 22 -9 56 -10 75 -5 78 -40 81 -96 8z"/>
<path d="M2551 6204 c-49 -13 -102 -41 -126 -68 -5 -6 -34 -31 -63 -55 -109
-90 -96 -110 74 -116 84 -3 134 0 169 10 56 16 146 71 215 133 37 34 43 43 34
58 -22 37 -214 61 -303 38z"/>
<path d="M1372 5878 c-117 -157 -140 -233 -136 -446 3 -193 7 -200 70 -134
173 178 228 343 179 531 -8 32 -15 73 -15 90 0 26 -4 31 -22 31 -17 0 -38 -20
-76 -72z"/>
<path d="M2190 5903 c-54 -8 -147 -47 -192 -80 -88 -64 -183 -182 -162 -202 5
-5 68 -11 140 -13 151 -5 210 6 293 55 64 38 211 173 211 194 0 25 -70 45
-170 48 -52 1 -106 0 -120 -2z"/>
<path d="M1802 5568 c-77 -12 -145 -44 -231 -109 -123 -94 -145 -114 -138
-133 5 -13 24 -16 118 -16 120 0 143 -9 37 -15 -103 -5 -184 -51 -316 -179
-94 -91 -111 -114 -91 -126 7 -5 22 -6 33 -3 12 2 82 9 156 13 197 13 262 37
417 159 111 87 109 120 -6 122 -91 1 -138 17 -56 18 108 2 210 40 352 133 60
38 84 71 66 88 -4 5 -26 11 -48 14 -67 8 -120 18 -128 23 -7 4 -33 9 -92 17
-11 1 -44 -1 -73 -6z"/>
<path d="M1056 5530 c-43 -52 -103 -161 -126 -230 -19 -56 -21 -79 -16 -170 3
-58 8 -118 10 -135 3 -16 6 -60 7 -98 2 -67 2 -67 23 -50 33 29 53 54 101 124
115 170 133 253 89 419 -13 52 -26 106 -29 119 -2 14 -11 31 -18 38 -12 12
-18 10 -41 -17z"/>
<path d="M3335 5219 c-27 -5 -70 -11 -95 -14 -80 -10 -153 -30 -157 -41 -3 -8
27 -12 99 -13 369 -5 598 -94 765 -298 127 -154 201 -220 327 -293 48 -28 89
-50 92 -50 16 0 207 -136 247 -177 71 -70 81 -95 21 -51 -136 98 -286 190
-549 336 -85 48 -158 97 -210 144 -250 222 -443 315 -710 344 -16 1 -95 4
-175 4 -126 2 -152 -1 -197 -19 -83 -33 -191 -89 -288 -151 -209 -131 -313
-175 -470 -197 -88 -12 -155 -71 -155 -137 0 -25 27 -56 168 -196 92 -92 196
-193 232 -225 36 -32 83 -74 105 -95 22 -20 96 -82 165 -139 69 -57 134 -111
145 -120 118 -97 597 -435 690 -487 11 -6 63 -38 115 -71 337 -214 814 -460
1140 -588 52 -20 113 -45 136 -55 22 -10 108 -41 191 -69 188 -63 214 -61 267
22 44 70 83 170 92 237 3 30 13 71 21 90 22 56 83 317 83 359 0 52 -27 77
-179 163 -229 130 -369 227 -451 313 -86 91 -177 130 -333 145 -170 17 -212
28 -247 65 -27 29 -26 30 26 11 45 -15 149 -33 244 -40 191 -15 310 -68 460
-205 71 -65 198 -145 285 -180 79 -31 117 -58 165 -119 27 -35 45 -40 54 -17
7 18 0 206 -9 250 -30 145 -54 220 -106 332 -88 190 -257 402 -464 578 -114
98 -535 408 -633 468 -145 87 -324 151 -497 178 -85 14 -341 18 -410 8z m-691
-505 c17 -8 52 -30 79 -49 60 -43 127 -57 286 -59 134 -2 160 -8 140 -32 -6
-8 -20 -14 -29 -14 -52 0 -49 -13 9 -48 33 -19 98 -71 143 -115 46 -44 105
-99 132 -123 26 -24 42 -44 35 -44 -24 0 -63 32 -145 116 -94 96 -160 132
-312 169 -120 30 -190 55 -327 120 -55 26 -120 57 -145 68 l-45 21 35 6 c47 8
107 2 144 -16z m-9 -471 c63 -38 201 -111 355 -188 272 -136 415 -224 507
-312 84 -79 77 -76 111 -56 38 22 50 13 59 -43 16 -106 76 -148 378 -259 151
-56 243 -115 276 -177 14 -27 1 -23 -97 26 -49 24 -159 72 -244 106 -278 110
-427 198 -540 317 -218 229 -322 301 -592 413 -137 56 -249 137 -310 223 l-21
29 49 -34 c27 -18 58 -38 69 -45z m2239 -1182 c4 -5 90 -37 194 -70 103 -34
203 -71 222 -81 l35 -20 -53 6 c-84 9 -238 51 -305 83 -58 28 -134 91 -109 91
6 0 13 -4 16 -9z"/>
<path d="M646 5093 c-31 -102 -42 -284 -22 -360 22 -81 147 -323 167 -323 37
0 85 215 76 342 -6 91 -42 178 -101 243 -20 22 -46 57 -58 78 -23 39 -53 49
-62 20z"/>
<path d="M1547 4994 c-1 -1 -43 -5 -93 -8 -125 -9 -182 -28 -262 -85 -47 -35
-152 -141 -152 -154 0 -5 -8 -21 -18 -35 -28 -40 -44 -92 -29 -92 7 0 73 14
147 30 163 36 244 74 324 149 83 79 149 170 135 187 -8 10 -43 16 -52 8z"/>
<path d="M439 4665 c-3 -31 -2 -42 5 -130 15 -172 48 -250 159 -368 31 -34 69
-81 83 -104 31 -52 49 -59 69 -29 12 18 16 48 14 123 -2 114 -27 225 -66 292
-26 45 -127 151 -144 151 -5 0 -26 18 -48 40 -40 41 -70 52 -72 25z"/>
<path d="M1325 4629 c-106 -20 -231 -86 -314 -167 -61 -60 -104 -130 -92 -150
6 -11 45 -9 80 4 8 2 46 7 85 10 180 14 285 64 424 201 81 79 80 97 -2 100
-33 1 -78 4 -100 5 -23 2 -59 1 -81 -3z"/>
<path d="M1783 4489 c-46 -17 -57 -71 -37 -182 29 -170 34 -266 20 -442 -18
-229 -11 -309 50 -595 13 -59 69 -212 109 -298 86 -182 156 -281 367 -517 230
-258 344 -350 570 -458 281 -135 556 -214 852 -244 128 -13 345 -8 421 10 115
28 119 29 94 42 -13 7 -49 16 -79 19 -30 4 -73 9 -95 12 -98 12 -153 45 -229
134 -17 19 -54 59 -83 87 -29 29 -49 53 -45 53 18 0 63 -40 106 -92 48 -60
109 -102 161 -112 17 -3 68 -8 115 -11 78 -5 170 -25 243 -54 60 -23 99 -13
278 72 152 73 314 190 390 282 9 11 27 31 39 45 62 71 67 140 13 172 -15 9
-115 50 -220 92 -996 391 -1776 868 -2523 1544 -47 42 -160 151 -251 242 -227
225 -217 218 -266 199z m307 -685 c85 -42 106 -57 200 -155 77 -79 120 -115
160 -133 61 -28 57 -31 -22 -15 -94 19 -148 51 -216 127 -36 41 -88 86 -125
108 -68 41 -104 70 -118 97 -16 29 17 21 121 -29z m860 -647 c40 -18 80 -54
123 -110 22 -29 72 -84 111 -123 124 -123 245 -188 474 -253 93 -27 175 -58
233 -89 49 -26 124 -65 167 -88 42 -22 129 -60 192 -83 63 -24 131 -49 150
-57 35 -14 34 -14 -28 -9 -34 3 -73 10 -87 15 -14 5 -25 8 -25 6 0 -3 -23 4
-51 15 -85 30 -91 7 -23 -83 25 -33 43 -62 40 -65 -15 -15 -55 12 -85 58 -65
100 -105 120 -227 114 -48 -2 -89 -7 -92 -9 -2 -3 -13 -1 -24 5 -34 18 -16 40
50 61 55 17 63 22 60 41 -4 26 -90 61 -178 71 -157 19 -319 88 -426 182 -12
11 -36 33 -55 49 -19 17 -82 85 -141 151 -59 67 -131 141 -160 165 -75 61 -76
62 -48 54 14 -3 36 -11 50 -18z m-698 -89 c31 -29 93 -100 139 -158 74 -93
270 -331 318 -385 64 -72 118 -102 266 -145 116 -34 159 -53 214 -94 40 -30
36 -32 -15 -11 -19 8 -90 31 -157 51 -313 93 -416 158 -515 321 -14 23 -48 54
-83 76 -65 41 -99 87 -122 164 -17 57 -66 160 -98 204 -31 45 -9 35 53 -23z"/>
<path d="M1319 4315 c-3 -2 -30 -7 -60 -10 -141 -16 -227 -51 -307 -128 -44
-42 -111 -136 -151 -212 -26 -50 -29 -62 -17 -73 11 -11 34 -6 142 32 202 72
258 107 340 212 51 65 106 162 99 173 -6 11 -38 15 -46 6z"/>
<path d="M365 4231 c-3 -10 -4 -32 -1 -47 13 -84 18 -114 18 -121 1 -5 11 -38
24 -75 37 -109 69 -155 190 -269 27 -26 59 -58 71 -73 46 -53 63 -28 58 84 -9
212 -60 328 -184 417 -30 21 -74 53 -98 71 -49 37 -69 40 -78 13z"/>
<path d="M1359 3985 c-3 -2 -48 -7 -100 -9 -114 -6 -185 -29 -266 -90 -65 -48
-94 -80 -164 -183 -49 -72 -58 -96 -40 -108 6 -3 62 8 126 25 63 17 125 33
138 36 43 8 143 64 188 106 45 42 159 183 159 197 0 17 -31 37 -41 26z"/>
<path d="M701 3378 c-13 -35 -4 -311 14 -438 22 -153 24 -166 45 -261 127
-570 457 -1092 944 -1494 365 -302 995 -618 1375 -690 75 -14 219 -35 276 -40
77 -7 346 -7 410 0 22 2 65 7 95 10 110 12 182 26 235 46 30 11 55 21 55 22 0
1 -109 2 -242 2 -209 0 -410 9 -470 20 -9 2 -43 6 -74 10 -199 21 -555 100
-764 168 -406 133 -862 468 -1114 817 -9 12 85 -60 104 -80 47 -49 278 -193
425 -265 238 -116 517 -201 761 -230 27 -3 58 -8 69 -10 91 -18 542 -26 735
-12 58 4 112 8 120 8 42 3 284 51 345 70 266 80 520 211 743 382 61 47 100 92
90 103 -3 3 -25 -6 -49 -19 -301 -168 -495 -256 -744 -339 -158 -52 -386 -111
-495 -129 -36 -5 -76 -12 -90 -14 -57 -9 -191 -17 -280 -17 -133 0 -204 8
-368 38 -76 14 -303 79 -397 112 -435 157 -783 376 -1148 722 -127 120 -175
184 -241 317 -162 327 -291 770 -320 1095 -6 65 -20 118 -31 118 -3 0 -9 -10
-14 -22z"/>
<path d="M6458 3065 c-3 -3 -15 -8 -27 -10 -13 -2 -30 -6 -39 -9 -9 -3 -47 -8
-85 -11 -137 -12 -231 -61 -360 -184 -60 -58 -81 -90 -71 -115 8 -22 263 -14
324 9 43 17 124 72 165 112 73 72 155 182 148 199 -5 13 -44 20 -55 9z"/>
<path d="M6567 3010 c-10 -14 -13 -49 -11 -127 2 -124 7 -153 34 -226 28 -76
69 -126 170 -212 118 -99 125 -97 117 45 -9 174 -62 302 -173 415 -27 28 -60
67 -73 88 -25 41 -43 46 -64 17z"/>
<path d="M6429 2770 c-8 -5 -70 -23 -137 -39 -140 -35 -200 -63 -262 -123 -87
-84 -160 -176 -160 -202 0 -19 -6 -19 180 0 128 13 242 72 343 179 40 43 110
171 101 186 -7 12 -44 11 -65 -1z"/>
<path d="M6495 2608 c-4 -18 -9 -95 -11 -170 -5 -202 8 -231 166 -394 87 -90
94 -95 107 -78 10 14 13 51 12 135 -2 178 -23 241 -121 370 -36 47 -76 104
-89 127 -29 51 -54 55 -64 10z"/>
<path d="M6249 2366 c-2 -2 -62 -6 -134 -9 -147 -5 -202 -21 -301 -86 -106
-68 -202 -168 -166 -172 4 0 14 -2 23 -4 42 -8 210 -19 259 -16 91 4 185 56
296 164 102 100 115 127 61 127 -19 0 -36 -2 -38 -4z"/>
<path d="M6406 2225 c-33 -69 -68 -192 -75 -262 -11 -118 20 -227 90 -313 16
-19 29 -38 29 -43 0 -5 9 -22 21 -39 20 -27 22 -28 39 -13 16 15 41 86 55 160
3 17 8 71 10 120 l4 90 -59 150 c-32 83 -61 158 -64 168 -9 28 -32 20 -50 -18z"/>
<path d="M6170 2059 c-19 -4 -55 -10 -80 -14 -78 -10 -134 -17 -150 -20 -37
-7 -131 -48 -171 -74 -66 -44 -189 -161 -189 -180 1 -39 13 -42 146 -43 142 0
197 12 269 62 70 48 235 228 235 256 0 17 -21 22 -60 13z"/>
<path d="M6175 1777 c-72 -78 -142 -182 -166 -246 -28 -75 -31 -207 -4 -272 6
-16 12 -55 14 -96 1 -17 7 -23 25 -23 19 0 37 17 80 76 114 156 134 223 132
439 -2 193 -8 202 -81 122z"/>
<path d="M5612 1705 c-62 -15 -154 -61 -237 -120 -107 -76 -115 -101 -35 -111
24 -3 47 -7 50 -9 17 -10 114 -20 190 -19 63 1 97 7 133 23 52 22 136 76 178
113 14 13 45 39 68 59 66 59 59 67 -66 68 -60 0 -135 2 -168 4 -33 2 -84 -1
-113 -8z"/>
<path d="M5295 1436 c-67 -13 -190 -68 -260 -116 -44 -30 -58 -57 -32 -64 6
-2 59 -17 117 -34 187 -54 197 -54 313 -17 88 28 287 155 287 183 0 16 -12 20
-80 26 -30 2 -84 9 -120 15 -110 18 -163 19 -225 7z"/>
<path d="M5800 1361 c-153 -156 -195 -241 -185 -371 3 -36 7 -96 10 -135 3
-38 10 -74 15 -79 38 -38 215 200 248 334 6 25 12 84 13 130 0 47 5 107 10
135 7 39 6 52 -6 64 -13 13 -25 5 -105 -78z"/>
<path d="M5473 1113 c-98 -98 -152 -174 -176 -246 -13 -39 -15 -76 -11 -185 6
-161 8 -172 38 -172 42 0 177 175 216 277 20 54 24 80 37 228 11 133 10 178
-4 182 -7 3 -52 -35 -100 -84z"/>
<path d="M4929 1154 c-62 -14 -133 -53 -220 -120 -98 -75 -107 -109 -33 -118
38 -6 76 -13 144 -27 91 -20 155 -15 217 17 69 36 222 157 262 207 11 15 10
18 -10 26 -22 8 -135 19 -259 26 -25 1 -70 -4 -101 -11z"/>
<path d="M5120 894 c-79 -75 -149 -174 -175 -249 -35 -104 -22 -328 23 -363
13 -10 21 -7 50 20 49 47 156 187 174 228 39 87 40 97 39 311 -1 104 -6 119
-37 119 -2 0 -35 -30 -74 -66z"/>
<path d="M4471 844 c-61 -16 -145 -64 -211 -122 -37 -33 -43 -42 -32 -54 23
-29 122 -53 212 -52 98 0 169 20 246 70 54 34 124 98 124 114 0 15 -32 27 -79
29 -25 1 -47 4 -50 6 -4 2 -38 6 -76 10 -39 4 -72 8 -75 10 -3 1 -29 -4 -59
-11z"/>
<path d="M4779 657 c-51 -50 -95 -104 -109 -133 -22 -45 -24 -60 -22 -182 1
-74 4 -138 7 -143 14 -21 53 -6 99 39 101 97 143 192 153 344 7 108 -1 158
-26 158 -9 0 -56 -38 -102 -83z"/>
<path d="M4460 539 c-203 -60 -255 -93 -362 -228 -99 -124 -101 -149 -12 -132
27 5 82 12 122 15 142 9 247 84 360 256 57 86 69 123 42 126 -8 2 -76 -15
-150 -37z"/>
</g>
</svg>
