<svg version="1.2" xmlns="http://www.w3.org/2000/svg" viewBox="0 0 1440 200" width="1440" height="200">
	<title>subscribe-waves-bg-top-svg</title>
	<defs>
		<clipPath clipPathUnits="userSpaceOnUse" id="cp1">
			<path d="m-12-5h1464v199.33h-1464z"/>
		</clipPath>
	</defs>
	<style>
		.s0 { fill: #ffffff } 
	</style>
	<g id="Clip-Path" clip-path="url(#cp1)">
		<g id="Layer">
			<path id="Layer" class="s0" d="m-12 84.6l6.3-7.5c6.2-7.2 19.1-22.6 31.3-29.8 12.4-7.5 25.4-7.5 37.6-11.2 12.4-4 24.4-11 37.7-11.2 12.3 0.2 24.4 7.2 37.6 26.1 12.2 18.9 24.4 48.3 37.6 78.4 12.1 30.1 24.4 59.5 37.6 59.7 12-0.2 24.4-29.6 36.6-59.7 13-30.1 25.4-59.5 37.6-74.7 12.9-14.9 25.4-14.9 37.6 3.8 12.8 18.4 25.5 56.2 37.7 82.1 12.7 25.9 25.4 41.3 37.6 44.8 12.7 3.5 25.4-3.5 37.6-11.2 12.6-7.7 25.4-14.7 37.6-18.7 12.5-3.7 25.4-3.7 37.6-7.4 12.4-4 25.4-11 37.6-37.4 12.4-26.1 24.4-70.9 37.7-67.2 12.3 4 24.4 55.8 37.6 89.6 12.2 33.4 24.4 48.8 37.6 26.2 12.1-22.2 24.4-82.4 37.6-97.1 12-14.7 24.4 14.7 36.6 18.7 13 3.7 25.4-18.7 37.6-18.7 12.9 0 25.4 22.4 37.6 18.7 12.8-4 25.5-33.4 37.7-26.2 12.7 7.5 25.4 52.3 37.6 59.8 12.7 7.2 25.4-22.2 37.6-22.4 12.6 0.2 25.4 29.6 37.6 52.2 12.5 22.2 25.4 37.6 37.6 44.8 12.4 7.5 25.4 7.5 37.6-3.7 12.4-11.2 24.4-33.6 37.7-52.3 12.3-18.4 24.4-33.8 37.6-48.5 12.2-14.7 24.4-30.1 37.6-41.1 12.1-11.4 24.4-18.4 37.6-14.9 12 3.5 24.4 18.9 36.6 33.6 13 14.7 25.4 30.1 37.6 22.4 12.9-7.7 25.4-37.1 37.6-29.9 12.8 7.5 25.5 52.3 37.7 56 12.7 4 25.4-33.8 37.6-52.2 12.7-18.7 25.4-18.7 37.6-11.2 12.6 7.2 25.4 22.6 31.5 29.8l6.1 7.5v-89.6h-6.3c-6.2 0-19.1 0-31.3 0-12.4 0-25.4 0-37.6 0-12.4 0-24.4 0-37.6 0-12.4 0-24.4 0-37.7 0-12.2 0-24.4 0-37.6 0-12.1 0-24.4 0-37.6 0-12 0-24.4 0-36.6 0-13 0-25.4 0-37.6 0-12.9 0-25.4 0-37.6 0-12.8 0-25.4 0-37.6 0-12.8 0-25.5 0-37.7 0-12.7 0-25.4 0-37.6 0-12.6 0-25.4 0-37.6 0-12.5 0-25.4 0-37.6 0-12.4 0-25.4 0-37.6 0-12.4 0-24.4 0-37.6 0-12.4 0-24.4 0-37.7 0-12.2 0-24.4 0-37.6 0-12.1 0-24.4 0-37.6 0-12 0-24.4 0-36.6 0-13 0-25.4 0-37.6 0-12.9 0-25.4 0-37.6 0-12.8 0-25.4 0-37.6 0-12.8 0-25.5 0-37.7 0-12.7 0-25.4 0-37.6 0-12.6 0-25.4 0-37.6 0-12.5 0-25.4 0-37.6 0-12.4 0-25.4 0-37.6 0-12.4 0-24.4 0-37.6 0-12.4 0-24.4 0-37.7 0-12.2 0-24.4 0-37.6 0-12.1 0-24.4 0-37.6 0-12 0-24.4 0-36.6 0-13 0-25.4 0-37.6 0-12.9 0-25.4 0-37.6 0-12.8 0-25.4 0-37.6 0-12.8 0-25.5 0-37.7 0-12.7 0-25.4 0-37.6 0-12.6 0-25.4 0-31.5 0h-6.1z"/>
		</g>
	</g>
</svg>