<?xml version="1.0" standalone="no"?>
<!DOCTYPE svg PUBLIC "-//W3C//DTD SVG 20010904//EN"
 "http://www.w3.org/TR/2001/REC-SVG-20010904/DTD/svg10.dtd">
<svg version="1.0" xmlns="http://www.w3.org/2000/svg"
 width="668.000000pt" height="668.000000pt" viewBox="0 0 668.000000 668.000000"
 preserveAspectRatio="xMidYMid meet">
<metadata>
Created by potrace 1.14, written by Peter Selinger 2001-2017
</metadata>
<g transform="translate(0.000000,668.000000) scale(0.100000,-0.100000)"
fill="#000000" stroke="none">
<path d="M3806 6347 c-54 -71 -73 -197 -41 -274 19 -44 19 -42 -4 -36 -34 9
-125 -25 -168 -62 -56 -48 -106 -148 -102 -205 3 -33 -1 -44 -16 -52 -32 -17
-105 -90 -123 -123 -8 -16 -21 -52 -27 -79 l-11 -49 -38 38 c-115 115 -93 285
47 356 44 23 62 14 52 -28 -7 -31 3 -29 16 3 7 21 6 32 -7 51 -14 22 -21 24
-52 18 -21 -3 -57 -18 -81 -31 -42 -23 -43 -23 -25 -3 10 12 41 32 67 46 27
13 47 27 44 30 -6 6 -122 -18 -229 -47 -39 -11 -83 -16 -106 -13 -33 4 -44 1
-73 -24 -19 -16 -61 -40 -94 -53 -169 -65 -403 -197 -550 -309 -104 -79 -274
-252 -360 -366 -264 -348 -388 -658 -371 -925 8 -140 43 -246 117 -361 18 -29
93 -235 199 -549 94 -276 170 -507 170 -512 0 -37 -517 190 -665 293 -102 70
-200 176 -239 258 -28 60 -31 75 -31 161 0 84 3 102 28 152 80 163 286 211
403 94 96 -96 80 -262 -32 -316 -100 -49 -213 5 -214 103 0 45 26 94 59 111
40 21 63 20 95 -5 34 -26 34 -62 0 -88 -15 -12 -22 -21 -17 -21 6 0 22 9 37
21 81 64 -36 165 -133 115 -87 -45 -101 -189 -25 -256 48 -42 105 -55 174 -41
99 20 167 101 177 209 15 162 -96 289 -261 300 -201 13 -344 -114 -376 -331
-18 -122 30 -266 128 -383 131 -158 446 -334 810 -454 64 -21 120 -44 125 -52
4 -7 52 -147 107 -311 105 -313 122 -349 205 -426 59 -55 138 -91 295 -136
213 -61 328 -78 555 -78 275 -1 453 34 650 127 97 46 174 115 213 192 11 21
73 221 137 444 65 223 127 420 138 439 12 19 15 31 8 27 -10 -6 -12 -3 -7 11
35 109 244 839 241 841 -2 2 -15 -4 -29 -13 -21 -14 -17 -4 23 57 180 270 237
546 170 818 -42 169 -124 308 -250 423 -43 39 -66 67 -60 72 26 15 61 105 61
154 l0 49 48 -15 c107 -33 234 5 301 89 9 12 -6 8 -46 -13 -67 -35 -146 -41
-204 -16 -33 14 -49 29 -154 144 -49 55 -121 96 -189 108 l-39 8 79 41 c101
52 190 140 232 227 48 98 48 108 1 148 -22 19 -42 32 -44 29 -3 -2 -12 -40
-21 -84 -9 -48 -28 -100 -47 -133 -33 -55 -119 -141 -166 -166 l-27 -13 4 65
c3 39 -2 89 -11 126 -26 104 -27 112 -14 164 18 70 59 117 130 154 l62 31 -48
-6 c-92 -11 -177 -77 -218 -171 -19 -41 -23 -71 -25 -165 -1 -74 -7 -128 -16
-150 l-15 -35 -11 53 c-15 67 -62 160 -99 193 -15 14 -48 40 -73 57 -93 63
-130 124 -130 214 0 31 9 71 20 97 25 55 20 62 -14 18z m105 -469 c8 -15 6
-18 -16 -18 -21 0 -25 4 -25 31 0 27 2 30 16 19 8 -8 20 -22 25 -32z m-760 1
c-58 -26 -91 -33 -91 -21 0 9 91 40 120 40 8 1 -5 -8 -29 -19z m-8 -95 c-31
-67 -43 -182 -24 -235 18 -51 5 -46 -27 11 -42 73 -50 146 -22 199 16 33 87
95 98 86 1 -1 -10 -29 -25 -61z m-175 23 c2 -12 -3 -17 -17 -17 -12 0 -21 6
-21 13 0 31 32 34 38 4z m-68 -25 c0 -25 -11 -35 -77 -78 -296 -186 -574 -499
-683 -766 l-23 -57 -24 25 c-21 22 -31 25 -73 22 -46 -3 -48 -2 -31 12 10 8
44 65 75 125 31 61 48 100 38 89 -197 -242 -300 -426 -354 -628 -27 -105 -30
-300 -5 -392 32 -118 89 -223 184 -341 64 -81 152 -172 188 -194 26 -16 27
-19 9 -19 -44 0 -174 121 -268 250 -58 79 -67 87 -36 35 33 -56 93 -137 138
-185 22 -22 35 -40 30 -40 -5 0 -56 25 -113 56 -125 66 -166 109 -230 239 -60
120 -75 186 -75 320 0 202 61 390 202 624 255 425 565 696 1028 897 93 41 100
41 100 6z m119 -199 c-1 -105 2 -138 19 -183 55 -155 144 -271 287 -376 18
-13 26 -25 21 -33 -8 -13 -51 14 -113 72 -25 23 -33 27 -33 15 0 -31 -18 -28
-63 13 -55 48 -127 153 -157 229 -26 67 -37 192 -22 253 13 51 49 137 57 137
3 0 5 -57 4 -127z m-149 112 c0 -3 -39 -47 -87 -98 -299 -318 -472 -615 -554
-947 -20 -82 -23 -120 -23 -275 1 -162 3 -190 27 -277 30 -113 87 -239 147
-328 90 -132 267 -292 395 -357 27 -15 44 -28 38 -30 -44 -15 -219 97 -340
216 -213 211 -316 465 -316 776 1 220 44 399 148 610 102 209 219 368 429 583
126 128 136 138 136 127z m-16 -152 c-5 -10 -9 -74 -9 -143 -1 -102 -4 -130
-18 -150 -43 -61 -2 -140 73 -140 23 0 40 -5 40 -11 0 -15 81 -114 112 -138
51 -40 164 -114 207 -136 25 -12 129 -58 231 -100 221 -92 288 -126 400 -198
120 -79 135 -91 186 -163 72 -101 89 -157 88 -299 0 -110 -3 -130 -36 -232
-43 -135 -81 -203 -167 -292 -35 -36 -63 -69 -63 -74 1 -4 -1 -6 -5 -5 -5 0
-25 -6 -46 -16 -38 -17 -132 -40 -202 -49 l-40 -6 25 17 c48 32 140 125 171
173 100 157 107 372 16 543 -47 89 -149 192 -254 255 -81 49 -85 53 -48 46 98
-17 316 3 374 35 23 12 -58 64 -229 147 -85 41 -171 83 -191 94 -20 10 -43 19
-51 19 -9 0 -57 20 -108 45 -51 25 -94 44 -97 42 -7 -8 19 -101 48 -164 15
-34 49 -85 75 -113 25 -27 44 -50 40 -50 -12 0 -160 78 -199 104 -29 20 -35
22 -28 8 17 -32 143 -145 236 -211 219 -157 295 -238 342 -370 70 -190 25
-372 -133 -540 -59 -63 -71 -80 -57 -84 10 -2 5 -5 -12 -5 -16 0 -43 -4 -59
-8 l-29 -7 21 31 c114 159 120 358 17 558 -56 109 -108 181 -260 354 -144 165
-227 284 -313 450 -126 242 -176 458 -143 626 9 47 77 174 93 174 6 0 7 -7 2
-17z m1553 -105 c-22 -14 -35 -8 -39 17 -5 24 -5 24 23 8 20 -12 25 -19 16
-25z m-1214 -127 c17 -14 24 -51 9 -51 -21 0 -112 139 -112 171 0 6 19 -15 43
-47 24 -33 51 -65 60 -73z m-626 -37 c-53 -82 -93 -159 -78 -149 15 8 15 8
-13 -89 -94 -324 -26 -671 190 -963 61 -83 179 -202 250 -253 54 -38 55 -41
-44 90 -72 95 -130 191 -172 286 -17 36 -30 67 -30 69 0 2 17 1 38 -2 31 -4
44 0 70 22 26 21 32 34 32 65 0 102 -111 131 -172 44 -11 -16 -18 -22 -15 -13
3 9 -1 42 -9 75 -29 123 -37 251 -23 412 6 84 13 151 15 149 2 -2 15 -43 29
-91 35 -121 110 -284 176 -387 62 -95 180 -243 337 -424 232 -267 313 -453
268 -609 -17 -58 -55 -128 -76 -141 -19 -12 -209 -11 -351 0 l-137 12 -73 45
c-261 163 -444 418 -522 726 -18 72 -21 116 -22 257 0 185 9 252 57 405 52
164 137 325 262 495 65 88 74 64 13 -31z m638 76 c10 -11 16 -20 13 -20 -3 0
-13 9 -23 20 -10 11 -16 20 -13 20 3 0 13 -9 23 -20z m-230 -80 c10 -11 16
-20 13 -20 -3 0 -13 9 -23 20 -10 11 -16 20 -13 20 3 0 13 -9 23 -20z m-92
-55 c7 -18 -9 -29 -30 -21 -12 5 -13 9 -3 21 16 19 26 19 33 0z m91 -84 l-28
-26 22 26 c12 14 22 32 23 40 0 11 2 11 6 0 3 -7 -7 -25 -23 -40z m1379 -142
c97 -64 193 -195 237 -324 25 -72 25 -69 -2 -51 -12 9 -39 16 -59 16 -30 0
-41 6 -63 34 -33 43 -33 52 2 70 56 31 56 30 32 76 -30 59 -95 127 -164 172
-33 21 -52 38 -44 38 8 0 35 -14 61 -31z m-2335 -136 c-2 -10 -10 -18 -18 -18
-8 0 -16 8 -18 18 -2 12 3 17 18 17 15 0 20 -5 18 -17z m-91 -15 c-3 -8 -6 -5
-6 6 -1 11 2 17 5 13 3 -3 4 -12 1 -19z m104 -86 c41 4 41 4 35 -27 -54 -266
-47 -464 24 -677 37 -109 67 -170 138 -278 64 -96 199 -236 285 -294 31 -22
55 -41 53 -43 -5 -6 -161 49 -164 58 -2 4 -10 5 -19 2 -10 -4 -14 -2 -10 4 3
5 -24 30 -61 54 -94 62 -230 200 -291 294 -28 44 -56 86 -61 93 -9 9 -4 14 20
18 17 4 42 20 56 37 33 39 28 91 -12 125 -26 23 -63 26 -113 11 -18 -5 -27 30
-41 150 -14 115 4 286 43 420 14 47 23 91 20 98 -3 8 9 0 26 -18 27 -27 37
-31 72 -27z m1984 -43 c119 -76 215 -178 263 -281 138 -288 80 -573 -173 -846
-68 -73 -108 -102 -142 -102 -13 0 -10 5 12 19 40 24 163 154 204 214 137 201
169 452 82 647 -11 25 -20 39 -20 31 -1 -8 -23 18 -51 57 -27 39 -54 73 -60
77 -16 10 -12 28 5 21 12 -4 13 -2 5 13 -14 26 -102 95 -183 144 -48 28 -64
43 -55 48 22 14 30 11 113 -42z m-587 -82 c2 -12 -3 -17 -17 -17 -12 0 -21 6
-21 13 0 31 32 34 38 4z m1090 -84 c-2 -10 -10 -18 -18 -18 -8 0 -16 8 -18 18
-2 12 3 17 18 17 15 0 20 -5 18 -17z m119 -218 c-4 -87 -12 -145 -31 -210 -31
-105 -121 -295 -166 -345 -27 -30 -25 -27 10 30 95 150 155 321 166 475 5 65
2 90 -13 130 -19 50 -18 50 2 81 l20 31 8 -36 c5 -20 6 -90 4 -156z m-1929 42
c2 -12 -3 -17 -17 -17 -12 0 -21 6 -21 13 0 31 32 34 38 4z m1776 -247 c-1
-118 -31 -216 -99 -325 -48 -78 -162 -203 -205 -225 -24 -12 -24 -12 -8 6 9
10 53 71 99 134 131 184 187 322 191 474 3 107 22 49 22 -64z m-2537 -64 c-4
-9 -11 -16 -17 -16 -17 0 -24 31 -9 41 18 11 34 -5 26 -25z m-80 -23 c-3 -10
-5 -2 -5 17 0 19 2 27 5 18 2 -10 2 -26 0 -35z m28 -53 l20 -25 -22 19 c-13
11 -23 24 -23 29 0 6 1 8 3 6 1 -2 11 -15 22 -29z m2515 -254 c0 -2 -8 -10
-17 -17 -16 -13 -17 -12 -4 4 13 16 21 21 21 13z m-813 -332 c-3 -3 -12 -4
-19 -1 -8 3 -5 6 6 6 11 1 17 -2 13 -5z"/>
<path d="M3964 4220 c-55 -22 -71 -99 -30 -147 19 -22 32 -28 66 -28 34 0 47
6 66 28 65 75 -11 184 -102 147z m12 -76 c-6 -17 -8 -17 -24 0 -15 15 -15 18
-2 26 19 12 35 -3 26 -26z"/>
<path d="M2411 4904 c0 -11 3 -14 6 -6 3 7 2 16 -1 19 -3 4 -6 -2 -5 -13z"/>
<path d="M2393 4803 c-26 -216 17 -461 114 -658 94 -188 219 -335 436 -508
145 -117 209 -178 242 -235 21 -35 55 -44 55 -13 0 51 -64 171 -127 238 l-30
32 30 12 c18 8 35 26 43 46 40 94 -84 170 -150 92 -14 -17 -26 -39 -26 -50 0
-10 -3 -19 -7 -19 -14 0 -155 113 -220 177 -228 226 -346 506 -346 821 0 72
-1 132 -3 132 -1 0 -6 -30 -11 -67z m672 -1033 c0 -22 -29 -18 -33 3 -3 14 1
18 15 15 10 -2 18 -10 18 -18z m-81 -56 c3 -8 2 -12 -4 -9 -6 3 -10 10 -10 16
0 14 7 11 14 -7z m67 -62 c-7 -2 -18 1 -23 6 -8 8 -4 9 13 5 13 -4 18 -8 10
-11z"/>
<path d="M1340 2090 c0 -4 12 -12 26 -19 14 -6 24 -17 21 -24 -4 -14 -184 -12
-202 2 -5 5 -19 5 -30 1 -11 -4 -33 -6 -50 -4 -136 15 -125 16 -125 -14 0 -33
8 -45 38 -61 20 -11 32 -9 70 6 38 16 68 19 157 17 166 -3 157 -2 151 -22 -3
-9 -8 -40 -11 -67 -6 -53 -108 -275 -126 -275 -6 0 -14 -13 -20 -28 -7 -22
-20 -31 -57 -41 -26 -7 -56 -16 -67 -19 -11 -3 -24 -5 -29 -4 -4 2 -14 -2 -21
-8 -7 -6 -17 -10 -21 -9 -5 1 -11 0 -14 -1 -3 -1 -12 -3 -21 -5 -9 -1 -45 -13
-80 -25 -60 -21 -76 -27 -131 -49 -32 -13 -52 -19 -59 -17 -3 0 -21 -10 -40
-25 -19 -14 -54 -31 -79 -38 -25 -7 -59 -28 -79 -48 -29 -29 -38 -33 -53 -24
-16 10 -18 8 -18 -14 0 -18 -11 -32 -40 -50 -22 -14 -41 -33 -41 -43 -4 -39 4
-89 17 -114 8 -15 14 -36 14 -46 0 -11 7 -25 15 -32 8 -7 15 -21 15 -32 0 -33
39 -77 85 -98 60 -27 89 -25 114 6 18 22 23 25 36 14 13 -11 18 -10 31 8 8 12
21 22 29 22 7 0 16 8 20 18 7 24 51 46 61 31 3 -6 12 -8 20 -5 7 3 18 -2 23
-12 5 -9 13 -13 17 -9 5 5 2 13 -6 18 -11 8 -12 12 -2 16 6 2 12 13 12 24 0
10 7 19 15 19 8 0 15 7 15 16 0 8 5 12 10 9 6 -4 13 7 16 23 7 37 48 59 72 40
13 -11 14 -10 8 10 -9 26 1 28 26 5 27 -25 31 -10 6 22 -13 16 -17 26 -10 21
7 -4 15 -1 18 9 6 14 8 14 20 -2 13 -17 13 -17 14 2 0 12 -6 27 -12 34 -11 11
-10 12 1 6 10 -6 12 -2 6 14 -7 23 23 70 41 64 6 -2 16 8 22 22 7 16 19 25 29
23 10 -2 18 4 19 12 3 41 4 42 34 38 30 -5 41 6 18 15 -8 3 -6 6 5 6 9 1 17
-3 17 -9 0 -18 18 -11 23 9 3 14 1 18 -9 14 -19 -7 -17 6 6 45 11 17 15 32 9
32 -5 0 -7 5 -4 10 3 6 17 10 30 10 14 0 26 7 29 18 6 17 49 29 174 49 49 8
33 28 -21 27 -26 0 -47 3 -47 8 0 5 -11 6 -25 2 l-26 -6 32 51 c18 28 36 51
41 51 4 0 5 11 2 26 -4 17 -1 32 13 47 34 40 46 72 34 95 -6 11 -8 28 -5 37 4
9 -1 24 -11 35 -14 16 -15 20 -4 21 8 1 25 3 38 4 12 1 60 -6 105 -16 44 -10
96 -19 114 -19 19 0 47 -9 64 -21 32 -23 53 -18 22 6 -39 31 -142 65 -239 81
-22 3 -43 9 -48 13 -4 4 -26 5 -50 2 -38 -6 -45 -3 -80 30 -25 24 -51 38 -73
41 -19 2 -34 1 -34 -2z m-210 -632 c-24 -61 -53 -104 -79 -118 -37 -19 -106
-97 -116 -130 -9 -31 -34 -60 -51 -60 -7 0 -30 -17 -51 -39 -21 -21 -48 -44
-60 -50 -12 -6 -23 -21 -25 -33 -2 -16 -11 -24 -29 -26 -15 -2 -46 -22 -71
-47 -26 -25 -60 -47 -83 -54 -21 -6 -39 -9 -40 -8 0 1 -6 13 -13 27 -26 54 -6
201 33 239 14 14 17 14 25 1 8 -12 10 -9 10 13 0 17 5 27 15 27 8 0 15 -4 15
-10 0 -5 4 -10 10 -10 5 0 7 13 4 30 -7 34 11 64 33 56 18 -7 53 15 53 33 0
12 3 12 12 3 10 -10 16 -8 30 10 17 23 17 23 32 3 15 -19 15 -19 16 13 0 20 5
32 13 31 23 -3 57 13 57 27 0 8 10 14 25 14 16 0 25 6 25 15 0 18 5 18 31 4
16 -8 23 -7 33 7 7 9 18 14 24 10 6 -4 17 2 24 13 9 15 19 18 40 14 17 -3 28
-1 28 6 0 6 9 11 20 11 16 0 18 -4 10 -22z"/>
<path d="M810 1321 c0 -12 5 -21 10 -21 6 0 10 6 10 14 0 8 -4 18 -10 21 -5 3
-10 -3 -10 -14z"/>
<path d="M850 1279 c0 -5 5 -7 10 -4 6 3 10 8 10 11 0 2 -4 4 -10 4 -5 0 -10
-5 -10 -11z"/>
<path d="M742 1233 c2 -14 8 -28 14 -30 7 -2 9 8 6 27 -5 37 -25 40 -20 3z"/>
<path d="M945 2000 c-3 -5 -1 -10 4 -10 6 0 11 5 11 10 0 6 -2 10 -4 10 -3 0
-8 -4 -11 -10z"/>
<path d="M5614 1942 c-11 -7 -156 -221 -229 -337 -116 -183 -188 -288 -203
-293 -30 -9 14 131 48 155 10 7 21 30 24 50 11 68 14 80 25 101 6 11 11 37 11
56 0 34 -2 36 -33 36 -50 0 -93 -49 -326 -370 -9 -14 -39 -58 -66 -98 -27 -39
-50 -70 -52 -69 -3 4 6 26 63 155 8 18 18 31 23 28 12 -8 21 18 14 42 -3 14 3
25 21 37 15 10 26 27 26 40 0 12 7 36 15 51 8 16 15 37 15 46 0 10 11 25 25
34 19 13 23 22 19 41 -5 19 -2 25 14 30 11 3 23 11 26 19 3 8 11 14 18 14 12
0 48 50 86 116 7 12 26 28 42 36 36 16 37 23 6 43 -18 12 -37 14 -75 9 -55 -7
-60 -13 -139 -155 -17 -30 -41 -64 -52 -74 -11 -10 -20 -24 -20 -31 0 -7 -25
-62 -56 -121 -31 -59 -63 -128 -71 -153 -8 -25 -21 -58 -28 -75 -68 -156 -99
-281 -76 -309 17 -20 41 -21 41 -1 0 8 5 15 10 15 25 0 54 48 157 256 26 52
53 90 76 108 20 15 51 57 73 99 47 89 124 175 136 153 5 -9 1 -36 -11 -70 -11
-31 -17 -64 -14 -75 2 -10 -2 -32 -10 -47 -8 -16 -18 -56 -22 -90 l-7 -61 35
-16 c19 -10 39 -17 44 -17 14 0 73 76 73 93 0 8 7 21 17 28 9 8 22 29 30 47 7
17 18 32 23 32 6 0 10 7 10 15 0 8 9 19 21 26 15 8 20 18 16 35 -2 13 2 29 9
35 8 6 14 18 14 25 0 8 15 31 34 51 18 21 52 66 76 101 23 35 44 61 47 59 2
-3 -3 -29 -12 -58 -35 -115 -37 -127 -30 -138 4 -7 1 -19 -7 -28 -18 -22 -44
-188 -38 -241 4 -34 11 -45 34 -57 25 -13 32 -13 62 1 35 17 59 46 47 58 -4 3
-16 -3 -29 -15 l-22 -20 -6 34 c-4 19 -2 47 4 62 6 15 11 50 11 79 1 28 6 59
11 70 7 13 6 21 -3 26 -10 7 -9 15 3 42 10 21 15 50 12 80 -3 39 1 55 28 98
22 36 33 67 36 105 l4 55 -33 0 c-19 0 -39 -4 -45 -8z"/>
<path d="M1590 1859 c0 -5 5 -7 10 -4 6 3 10 8 10 11 0 2 -4 4 -10 4 -5 0 -10
-5 -10 -11z"/>
<path d="M4550 1720 c0 -5 5 -10 10 -10 6 0 10 5 10 10 0 6 -4 10 -10 10 -5 0
-10 -4 -10 -10z"/>
<path d="M4539 1662 c-37 -15 -149 -98 -149 -109 0 -7 -24 -30 -52 -51 -51
-38 -203 -195 -249 -257 -12 -16 -35 -43 -50 -60 -43 -48 -111 -190 -117 -244
-4 -45 -2 -49 33 -79 32 -26 44 -30 82 -26 47 4 93 28 93 49 0 7 7 18 15 25 8
7 15 20 15 29 0 9 30 45 66 81 65 64 137 150 161 195 14 25 41 50 47 44 2 -2
-2 -47 -10 -99 -12 -78 -13 -102 -2 -135 14 -47 23 -55 64 -55 26 0 36 7 58
40 14 22 26 43 26 48 0 10 49 55 70 63 8 3 15 12 16 20 0 8 2 24 2 36 1 12 20
43 42 68 22 25 40 52 40 60 0 7 7 16 16 19 9 4 14 9 10 13 -3 3 3 12 14 20 11
8 20 21 20 29 0 8 11 31 25 51 13 20 22 39 19 42 -4 3 -13 -5 -22 -18 -20 -29
-127 -159 -156 -188 -11 -12 -34 -40 -50 -62 -17 -23 -33 -41 -38 -41 -4 0 -5
-6 -2 -14 3 -7 -12 -28 -33 -46 -21 -18 -41 -40 -45 -49 -5 -9 -5 13 -2 49 7
70 33 134 60 144 12 5 15 14 11 35 -5 22 0 35 18 56 14 14 25 33 25 41 0 8 7
17 15 20 8 4 15 17 15 29 0 16 9 27 30 37 17 7 30 18 30 24 0 15 -32 41 -47
38 -7 -1 -26 -2 -42 -3 -22 -1 -34 -9 -45 -31 -9 -16 -23 -43 -31 -59 -9 -16
-22 -32 -30 -35 -8 -3 -21 -21 -29 -40 -8 -19 -31 -46 -52 -60 -21 -14 -45
-41 -54 -58 -8 -18 -25 -37 -38 -43 -12 -5 -22 -17 -22 -25 0 -9 -12 -27 -27
-41 -16 -15 -55 -57 -88 -94 -33 -37 -71 -77 -84 -89 -13 -12 -31 -28 -40 -37
-29 -29 -71 -51 -86 -45 -21 8 -19 28 10 70 13 20 22 36 19 36 -3 0 4 12 15
26 12 15 21 34 21 43 0 9 13 25 30 34 19 12 42 43 66 90 28 56 45 78 75 95 26
15 47 39 63 70 14 27 36 53 50 60 14 6 26 18 26 27 0 8 3 15 8 15 4 0 12 10
17 23 13 29 224 137 270 137 24 0 34 5 38 20 4 15 -2 21 -27 29 -47 15 -109
21 -127 13z"/>
<path d="M5090 1649 c0 -5 5 -7 10 -4 6 3 10 8 10 11 0 2 -4 4 -10 4 -5 0 -10
-5 -10 -11z"/>
<path d="M1620 1600 c0 -5 5 -10 11 -10 5 0 7 5 4 10 -3 6 -8 10 -11 10 -2 0
-4 -4 -4 -10z"/>
<path d="M3450 1580 c0 -16 -4 -30 -10 -30 -5 0 -10 -9 -10 -20 0 -11 -4 -20
-9 -20 -15 0 -24 -40 -12 -54 8 -10 6 -18 -9 -31 -11 -10 -20 -26 -20 -37 0
-24 -96 -216 -122 -244 -11 -12 -16 -24 -11 -27 4 -3 35 26 68 63 50 58 132
129 150 130 3 0 31 14 62 30 40 21 66 29 84 25 17 -4 30 0 39 9 7 10 21 14 34
10 14 -3 28 1 35 10 15 18 47 21 55 7 8 -13 -81 -124 -121 -151 -18 -12 -65
-53 -104 -91 -43 -42 -79 -69 -92 -69 -16 0 -18 -3 -9 -9 10 -6 4 -16 -23 -39
-20 -18 -40 -32 -46 -32 -6 0 -65 -46 -132 -103 -67 -57 -130 -106 -139 -110
-21 -7 -24 -40 -5 -55 12 -10 31 -8 107 14 14 4 30 10 35 15 6 4 23 10 39 13
16 3 36 12 45 19 31 28 77 45 104 40 19 -4 39 2 65 19 20 14 39 25 42 24 3 0
22 10 43 23 36 22 39 22 51 6 9 -13 15 -15 20 -7 4 7 16 12 26 12 11 0 24 8
29 19 13 24 104 37 145 21 28 -10 28 -13 23 -60 -3 -28 -2 -50 3 -50 13 0 17
10 24 56 15 85 -65 119 -203 85 -42 -10 -101 -22 -131 -26 -30 -4 -75 -16 -99
-26 -24 -11 -46 -17 -48 -15 -4 4 35 68 58 94 6 7 18 10 28 7 12 -4 21 2 29
20 7 15 20 25 32 25 11 0 23 7 26 15 4 8 15 15 25 15 14 0 19 7 19 25 0 20 5
25 26 25 19 0 25 4 21 15 -9 22 38 97 77 123 33 22 56 65 56 102 0 24 -49 110
-66 117 -12 5 -144 -34 -199 -58 -29 -13 -82 -44 -100 -59 -9 -7 -18 -10 -22
-7 -3 4 13 27 36 52 60 66 73 100 53 142 -12 26 -22 33 -44 33 -24 0 -28 -4
-28 -30z"/>
<path d="M4880 1589 c0 -5 5 -7 10 -4 6 3 10 8 10 11 0 2 -4 4 -10 4 -5 0 -10
-5 -10 -11z"/>
<path d="M4840 1580 c0 -5 5 -10 10 -10 6 0 10 5 10 10 0 6 -4 10 -10 10 -5 0
-10 -4 -10 -10z"/>
<path d="M1891 1548 c-18 -5 -45 -18 -60 -28 -14 -10 -44 -23 -66 -29 -22 -6
-62 -25 -89 -43 -27 -18 -61 -39 -75 -47 -14 -8 -28 -17 -31 -21 -3 -3 -30
-26 -60 -49 -53 -42 -100 -98 -100 -120 0 -6 -4 -11 -8 -11 -12 0 -32 -61 -32
-96 0 -37 51 -109 91 -130 46 -23 91 -21 122 8 15 14 27 32 27 41 0 9 18 22
45 33 25 9 45 20 45 25 0 4 11 11 24 16 27 9 116 89 116 104 0 5 12 9 26 9 21
0 25 -3 19 -17 -15 -34 -26 -148 -20 -200 5 -42 12 -57 36 -78 39 -32 69 -32
94 1 11 15 22 29 25 33 10 12 50 31 68 31 13 0 18 9 20 33 1 22 11 38 29 52
15 11 41 34 59 52 18 17 35 29 38 26 3 -3 10 6 16 21 5 15 19 36 30 48 31 34
23 43 -12 13 -76 -61 -138 -105 -150 -105 -7 0 -29 -16 -48 -36 -19 -19 -40
-32 -46 -30 -7 3 -10 -2 -7 -13 3 -12 -8 -22 -39 -36 l-43 -20 10 60 c11 62
32 105 51 105 15 0 25 26 18 44 -3 9 5 21 20 31 14 10 26 24 26 31 0 8 7 14
15 14 8 0 15 9 15 19 0 21 22 33 45 25 9 -4 15 0 15 8 0 27 -30 55 -76 73 -46
17 -48 17 -58 0 -21 -35 -58 -75 -70 -75 -6 0 -16 -10 -21 -22 -6 -14 -25 -27
-49 -33 -22 -6 -47 -23 -58 -38 -12 -16 -29 -27 -44 -27 -15 0 -24 -6 -24 -15
0 -9 -8 -18 -17 -22 -10 -3 -37 -21 -60 -39 -22 -19 -52 -38 -65 -44 -12 -6
-43 -22 -68 -36 -30 -16 -57 -24 -80 -22 -50 4 -51 33 0 96 22 28 40 56 40 61
0 5 13 12 29 16 21 4 38 21 63 60 22 36 40 55 53 55 43 1 66 14 81 46 11 23
23 34 38 34 12 0 36 16 55 35 32 35 34 35 119 36 118 1 154 -1 176 -13 13 -7
21 -6 27 3 6 10 -1 22 -24 41 -17 15 -37 28 -43 28 -6 0 -19 9 -29 20 -20 22
-92 26 -154 8z"/>
<path d="M3610 1524 c0 -14 3 -14 15 -4 8 7 15 14 15 16 0 2 -7 4 -15 4 -8 0
-15 -7 -15 -16z"/>
<path d="M5447 1473 c-12 -11 -8 -23 8 -23 8 0 15 7 15 15 0 16 -12 20 -23 8z"/>
<path d="M3099 1444 c-11 -14 -10 -18 6 -30 10 -8 25 -14 32 -14 7 0 13 -7 13
-16 0 -22 -19 -92 -36 -131 -8 -17 -14 -36 -14 -43 0 -21 -33 -75 -74 -120
-22 -25 -57 -67 -76 -94 -19 -26 -48 -66 -63 -87 -16 -21 -36 -43 -46 -48 -9
-5 -39 -30 -67 -55 -55 -51 -84 -59 -84 -23 0 13 7 32 15 43 8 10 15 29 15 41
0 12 5 25 11 28 6 4 8 28 4 61 -3 30 -2 54 3 54 14 0 59 76 66 112 4 22 20 47
41 67 19 17 35 40 35 51 0 19 -48 60 -72 60 -22 0 -166 -149 -211 -221 -11
-16 -24 -29 -31 -29 -6 0 -55 -43 -109 -95 -54 -52 -101 -95 -106 -95 -4 0
-22 -16 -41 -35 -24 -25 -40 -33 -53 -29 -12 4 -17 2 -13 -4 3 -6 1 -14 -5
-17 -24 -15 -18 6 16 60 20 31 43 72 51 91 10 23 20 34 32 32 14 -2 16 4 14
35 -2 22 1 37 7 37 6 0 11 8 11 19 0 10 7 24 15 31 8 6 17 21 21 33 4 12 17
30 30 40 13 10 24 24 24 32 0 7 12 21 28 31 15 9 32 23 37 29 6 6 22 16 38 23
22 10 27 9 27 -3 0 -8 5 -15 11 -15 6 0 9 10 7 22 -3 23 -80 88 -104 88 -7 0
-53 -41 -101 -91 -49 -51 -107 -111 -130 -136 -24 -24 -43 -50 -43 -58 0 -8
-4 -15 -9 -15 -6 0 -24 -28 -41 -62 -18 -35 -36 -68 -40 -73 -20 -25 9 -195
32 -195 7 0 19 -7 29 -16 34 -30 82 -1 173 107 12 14 21 18 24 11 7 -22 19
-12 15 12 -4 19 4 30 39 54 23 17 60 47 81 66 21 20 45 36 53 36 8 0 14 7 14
15 0 9 11 20 25 25 14 5 25 14 25 20 0 5 7 10 15 10 19 0 20 -16 2 -23 -8 -3
-22 -31 -31 -64 -10 -32 -20 -65 -23 -73 -3 -8 -8 -32 -10 -53 -4 -36 0 -43
56 -99 55 -56 61 -59 83 -47 13 7 25 14 28 14 43 11 100 61 100 89 0 6 15 18
33 26 34 16 50 50 23 50 -13 0 -13 4 2 29 9 16 22 27 29 24 7 -3 13 2 13 12 0
11 6 15 18 11 13 -4 25 3 40 24 13 16 29 30 38 30 10 0 14 8 12 27 -2 22 1 28
17 28 15 0 28 18 52 68 18 37 40 70 48 73 17 7 21 70 6 93 -6 9 -5 24 2 38 9
20 6 28 -24 59 -47 49 -64 57 -80 38z"/>
<path d="M2946 1362 c-3 -6 -1 -14 5 -17 15 -10 25 3 12 16 -7 7 -13 7 -17 1z"/>
<path d="M5320 1359 c0 -5 5 -7 10 -4 6 3 10 8 10 11 0 2 -4 4 -10 4 -5 0 -10
-5 -10 -11z"/>
<path d="M1275 1340 c3 -5 8 -10 11 -10 2 0 4 5 4 10 0 6 -5 10 -11 10 -5 0
-7 -4 -4 -10z"/>
<path d="M1220 1329 c0 -5 4 -9 9 -9 5 0 17 -3 27 -7 11 -4 15 -3 11 4 -9 14
-47 24 -47 12z"/>
<path d="M1310 1310 c0 -5 5 -10 10 -10 6 0 10 5 10 10 0 6 -4 10 -10 10 -5 0
-10 -4 -10 -10z"/>
<path d="M5265 1290 c-3 -5 -1 -10 4 -10 6 0 11 5 11 10 0 6 -2 10 -4 10 -3 0
-8 -4 -11 -10z"/>
<path d="M1270 1276 c0 -9 5 -16 10 -16 6 0 10 4 10 9 0 6 -4 13 -10 16 -5 3
-10 -1 -10 -9z"/>
<path d="M1385 1280 c3 -5 8 -10 11 -10 2 0 4 5 4 10 0 6 -5 10 -11 10 -5 0
-7 -4 -4 -10z"/>
<path d="M1335 1260 c-3 -5 -1 -10 4 -10 6 0 11 5 11 10 0 6 -2 10 -4 10 -3 0
-8 -4 -11 -10z"/>
<path d="M4910 1230 c0 -5 5 -10 10 -10 6 0 10 5 10 10 0 6 -4 10 -10 10 -5 0
-10 -4 -10 -10z"/>
<path d="M5500 1195 c-8 -9 -8 -15 -2 -15 12 0 26 19 19 26 -2 2 -10 -2 -17
-11z"/>
<path d="M1820 1150 c0 -5 5 -10 10 -10 6 0 10 5 10 10 0 6 -4 10 -10 10 -5 0
-10 -4 -10 -10z"/>
<path d="M3150 1064 c0 -8 5 -12 10 -9 6 3 10 10 10 16 0 5 -4 9 -10 9 -5 0
-10 -7 -10 -16z"/>
<path d="M4340 1060 c0 -5 5 -10 10 -10 6 0 10 5 10 10 0 6 -4 10 -10 10 -5 0
-10 -4 -10 -10z"/>
<path d="M1060 1049 c0 -5 5 -7 10 -4 6 3 10 8 10 11 0 2 -4 4 -10 4 -5 0 -10
-5 -10 -11z"/>
<path d="M1100 1050 c0 -5 5 -10 10 -10 6 0 10 5 10 10 0 6 -4 10 -10 10 -5 0
-10 -4 -10 -10z"/>
<path d="M1785 1050 c4 -6 11 -8 16 -5 14 9 11 15 -7 15 -8 0 -12 -5 -9 -10z"/>
<path d="M3277 1054 c-8 -8 1 -24 14 -24 5 0 9 7 9 15 0 15 -12 20 -23 9z"/>
<path d="M2922 1031 c2 -7 7 -12 11 -12 12 1 9 15 -3 20 -7 2 -11 -2 -8 -8z"/>
<path d="M3880 1020 c0 -5 5 -10 11 -10 5 0 7 5 4 10 -3 6 -8 10 -11 10 -2 0
-4 -4 -4 -10z"/>
<path d="M2440 1000 c0 -5 5 -10 10 -10 6 0 10 5 10 10 0 6 -4 10 -10 10 -5 0
-10 -4 -10 -10z"/>
<path d="M3125 999 c-4 -5 0 -18 9 -28 9 -10 13 -21 9 -24 -3 -4 -1 -7 5 -7 7
0 12 15 12 35 0 35 -20 49 -35 24z"/>
<path d="M1210 990 c0 -5 5 -10 11 -10 5 0 7 5 4 10 -3 6 -8 10 -11 10 -2 0
-4 -4 -4 -10z"/>
<path d="M2880 975 c0 -9 5 -15 11 -13 6 2 11 8 11 13 0 5 -5 11 -11 13 -6 2
-11 -4 -11 -13z"/>
<path d="M1400 950 c0 -5 5 -10 10 -10 6 0 10 5 10 10 0 6 -4 10 -10 10 -5 0
-10 -4 -10 -10z"/>
<path d="M3240 951 c0 -6 5 -13 10 -16 6 -3 10 1 10 9 0 9 -4 16 -10 16 -5 0
-10 -4 -10 -9z"/>
<path d="M2025 910 c3 -5 8 -10 11 -10 2 0 4 5 4 10 0 6 -5 10 -11 10 -5 0 -7
-4 -4 -10z"/>
<path d="M4430 890 c0 -5 5 -10 10 -10 6 0 10 5 10 10 0 6 -4 10 -10 10 -5 0
-10 -4 -10 -10z"/>
<path d="M1880 834 c0 -8 5 -12 10 -9 6 4 8 11 5 16 -9 14 -15 11 -15 -7z"/>
<path d="M3950 784 c0 -8 5 -12 10 -9 6 3 10 10 10 16 0 5 -4 9 -10 9 -5 0
-10 -7 -10 -16z"/>
<path d="M3730 749 c0 -5 4 -8 9 -5 5 4 11 0 14 -6 2 -7 8 -9 13 -5 5 4 2 12
-6 17 -20 13 -30 12 -30 -1z"/>
<path d="M3902 719 c2 -6 8 -10 13 -10 5 0 11 4 13 10 2 6 -4 11 -13 11 -9 0
-15 -5 -13 -11z"/>
</g>
</svg>
